<svg xmlns="http://www.w3.org/2000/svg" xmlns:xlink="http://www.w3.org/1999/xlink" width="1366" zoomAndPan="magnify" viewBox="0 0 1024.5 576" height="768" preserveAspectRatio="xMidYMid meet" version="1.0"><defs><clipPath id="a116bce912"><path d="M 0 0.140625 L 1024 0.140625 L 1024 575.859375 L 0 575.859375 Z M 0 0.140625 " clip-rule="nonzero"/></clipPath></defs><g clip-path="url(#a116bce912)"><path fill="#ffffff" d="M 0 0.140625 L 1024.5 0.140625 L 1024.5 583.640625 L 0 583.640625 Z M 0 0.140625 " fill-opacity="1" fill-rule="nonzero"/><path fill="#ffffff" d="M 0 0.140625 L 1024.5 0.140625 L 1024.5 576.140625 L 0 576.140625 Z M 0 0.140625 " fill-opacity="1" fill-rule="nonzero"/><path fill="#eeeeee" d="M 0 0.140625 L 1024.5 0.140625 L 1024.5 576.140625 L 0 576.140625 Z M 0 0.140625 " fill-opacity="1" fill-rule="nonzero"/></g><path stroke-linecap="round" transform="matrix(0.404598, 0, 0, 0.404163, 334.708178, 102.383054)" fill-opacity="1" fill="#d4d4d4" fill-rule="nonzero" stroke-linejoin="round" d="M 63.389493 22.373953 C 63.389493 22.373953 -63.385508 22.373953 -63.385508 22.373953 C -68.463845 22.373953 -72.576719 18.256649 -72.576719 13.182506 C -72.576719 13.182506 -72.576719 -13.183703 -72.576719 -13.183703 C -72.576719 -18.257846 -68.463845 -22.37515 -63.385508 -22.37515 C -63.385508 -22.37515 63.389493 -22.37515 63.389493 -22.37515 C 68.467831 -22.37515 72.580705 -18.257846 72.580705 -13.183703 C 72.580705 -13.183703 72.580705 13.182506 72.580705 13.182506 C 72.580705 18.256649 68.467831 22.373953 63.389493 22.373953 Z M 63.389493 22.373953 " stroke="#253237" stroke-width="2" stroke-opacity="1" stroke-miterlimit="4"/><path stroke-linecap="round" transform="matrix(0.404598, 0, 0, 0.404163, 393.157265, 102.383054)" fill-opacity="1" fill="#d4d4d4" fill-rule="nonzero" stroke-linejoin="round" d="M 34.252133 22.373953 C 34.252133 22.373953 -34.257151 22.373953 -34.257151 22.373953 C -39.325834 22.373953 -43.448363 18.256649 -43.448363 13.182506 C -43.448363 13.182506 -43.448363 -13.183703 -43.448363 -13.183703 C -43.448363 -18.257846 -39.325834 -22.37515 -34.257151 -22.37515 C -34.257151 -22.37515 34.252133 -22.37515 34.252133 -22.37515 C 39.33047 -22.37515 43.443344 -18.257846 43.443344 -13.183703 C 43.443344 -13.183703 43.443344 13.182506 43.443344 13.182506 C 43.443344 18.256649 39.33047 22.373953 34.252133 22.373953 Z M 34.252133 22.373953 " stroke="#253237" stroke-width="2" stroke-opacity="1" stroke-miterlimit="4"/><path stroke-linecap="round" transform="matrix(0.404598, 0, 0, 0.404163, 434.899644, 102.383054)" fill-opacity="1" fill="#d4d4d4" fill-rule="nonzero" stroke-linejoin="round" d="M 34.25166 22.373953 C 34.25166 22.373953 -34.257624 22.373953 -34.257624 22.373953 C -39.326307 22.373953 -43.439181 18.256649 -43.439181 13.182506 C -43.439181 13.182506 -43.439181 -13.183703 -43.439181 -13.183703 C -43.439181 -18.257846 -39.326307 -22.37515 -34.257624 -22.37515 C -34.257624 -22.37515 34.25166 -22.37515 34.25166 -22.37515 C 39.329997 -22.37515 43.442871 -18.257846 43.442871 -13.183703 C 43.442871 -13.183703 43.442871 13.182506 43.442871 13.182506 C 43.442871 18.256649 39.329997 22.373953 34.25166 22.373953 Z M 34.25166 22.373953 " stroke="#253237" stroke-width="2" stroke-opacity="1" stroke-miterlimit="4"/><path stroke-linecap="round" transform="matrix(0.404598, 0, 0, 0.404163, 515.83355, 287.474825)" fill-opacity="1" fill="#d4d4d4" fill-rule="nonzero" stroke-linejoin="round" d="M 616.232234 -425.875712 C 616.232234 -425.875712 616.232234 425.874645 616.232234 425.874645 C 616.232234 447.137717 598.998712 464.370471 577.739208 464.370471 C 577.739208 464.370471 -577.737059 464.370471 -577.737059 464.370471 C -598.996563 464.370471 -616.23974 447.137717 -616.23974 425.874645 C -616.23974 425.874645 -616.23974 -425.875712 -616.23974 -425.875712 C -616.23974 -447.138785 -598.996563 -464.371538 -577.737059 -464.371538 C -577.737059 -464.371538 577.739208 -464.371538 577.739208 -464.371538 C 598.998712 -464.371538 616.232234 -447.138785 616.232234 -425.875712 Z M 616.232234 -425.875712 " stroke="#253237" stroke-width="2" stroke-opacity="1" stroke-miterlimit="4"/><path stroke-linecap="round" transform="matrix(0.404598, 0, 0, 0.404163, 515.832302, 287.474005)" fill-opacity="1" fill="#ffffff" fill-rule="nonzero" stroke-linejoin="round" d="M 576.32306 -390.190381 C 576.32306 -390.190381 576.32306 390.193373 576.32306 390.193373 C 576.32306 411.495105 559.050919 428.766519 537.752797 428.766519 C 537.752797 428.766519 -537.754136 428.766519 -537.754136 428.766519 C -559.052259 428.766519 -576.324399 411.495105 -576.324399 390.193373 C -576.324399 390.193373 -576.324399 -390.190381 -576.324399 -390.190381 C -576.324399 -411.492113 -559.052259 -428.763527 -537.754136 -428.763527 C -537.754136 -428.763527 537.752797 -428.763527 537.752797 -428.763527 C 559.050919 -428.763527 576.32306 -411.492113 576.32306 -390.190381 Z M 576.32306 -390.190381 " stroke="#253237" stroke-width="2" stroke-opacity="1" stroke-miterlimit="4"/><path stroke-linecap="round" transform="matrix(0.404598, 0, 0, 0.404163, 373.924672, 287.474005)" fill-opacity="1" fill="#ffffff" fill-rule="nonzero" stroke-linejoin="round" d="M 225.583269 -428.763527 C 225.583269 -428.763527 225.583269 428.766519 225.583269 428.766519 C 225.583269 428.766519 -187.017175 428.766519 -187.017175 428.766519 C -208.315298 428.766519 -225.587438 411.495105 -225.587438 390.193373 C -225.587438 390.193373 -225.587438 -390.190381 -225.587438 -390.190381 C -225.587438 -411.492113 -208.315298 -428.763527 -187.017175 -428.763527 C -187.017175 -428.763527 225.583269 -428.763527 225.583269 -428.763527 Z M 225.583269 -428.763527 " stroke="#253237" stroke-width="2" stroke-opacity="1" stroke-miterlimit="4"/><path stroke-linecap="round" transform="matrix(0.404598, 0, 0, 0.404163, 658.927044, 358.360345)" fill-opacity="1" fill="#ffffff" fill-rule="nonzero" stroke-linejoin="round" d="M 123.87549 115.968331 C 123.87549 115.968331 -123.881731 115.968331 -123.881731 115.968331 C -123.881731 115.968331 -123.881731 -115.973129 -123.881731 -115.973129 C -123.881731 -115.973129 123.87549 -115.973129 123.87549 -115.973129 C 123.87549 -115.973129 123.87549 115.968331 123.87549 115.968331 Z M 123.87549 115.968331 " stroke="#253237" stroke-width="2" stroke-opacity="1" stroke-miterlimit="4"/><path stroke-linecap="round" transform="matrix(0.404598, 0, 0, 0.404163, 658.927044, 358.360345)" fill-opacity="1" fill="#ffffff" fill-rule="nonzero" stroke-linejoin="round" d="M -123.881731 -115.973129 C -123.881731 -115.973129 123.87549 115.968331 123.87549 115.968331 " stroke="#253237" stroke-width="2" stroke-opacity="1" stroke-miterlimit="4"/><path stroke-linecap="round" transform="matrix(0.404598, 0, 0, 0.404163, 658.927044, 358.360345)" fill-opacity="1" fill="#ffffff" fill-rule="nonzero" stroke-linejoin="round" d="M -123.881731 115.968331 C -123.881731 115.968331 123.87549 -115.973129 123.87549 -115.973129 " stroke="#253237" stroke-width="2" stroke-opacity="1" stroke-miterlimit="4"/><path stroke-linecap="round" transform="matrix(0.404598, 0, 0, 0.404163, 709.047509, 311.489149)" fill-opacity="1" fill="#7aba59" fill-rule="nonzero" stroke-linejoin="round" d="M 25.988709 -0.0021468 C 25.988709 14.350427 14.354874 25.987127 -0.00156651 25.987127 C -14.348353 25.987127 -25.982187 14.350427 -25.982187 -0.0021468 C -25.982187 -14.354721 -14.348353 -25.99142 -0.00156651 -25.99142 C 14.354874 -25.99142 25.988709 -14.354721 25.988709 -0.0021468 Z M 25.988709 -0.0021468 " stroke="#253237" stroke-width="2" stroke-opacity="1" stroke-miterlimit="4"/><path stroke-linecap="round" transform="matrix(0.404598, 0, 0, 0.404163, 709.047509, 311.489149)" fill-opacity="1" fill="#ffffff" fill-rule="nonzero" stroke-linejoin="round" d="M 15.378266 -3.8295 C 15.378266 -3.8295 15.378266 3.825206 15.378266 3.825206 C 15.378266 3.825206 3.831323 3.825206 3.831323 3.825206 C 3.831323 3.825206 3.831323 15.374921 3.831323 15.374921 C 3.831323 15.374921 -3.824802 15.374921 -3.824802 15.374921 C -3.824802 15.374921 -3.824802 3.825206 -3.824802 3.825206 C -3.824802 3.825206 -15.381399 3.825206 -15.381399 3.825206 C -15.381399 3.825206 -15.381399 -3.8295 -15.381399 -3.8295 C -15.381399 -3.8295 -3.824802 -3.8295 -3.824802 -3.8295 C -3.824802 -3.8295 -3.824802 -15.379214 -3.824802 -15.379214 C -3.824802 -15.379214 3.831323 -15.379214 3.831323 -15.379214 C 3.831323 -15.379214 3.831323 -3.8295 3.831323 -3.8295 C 3.831323 -3.8295 15.378266 -3.8295 15.378266 -3.8295 Z M 15.378266 -3.8295 " stroke="#253237" stroke-width="2" stroke-opacity="1" stroke-miterlimit="4"/><path stroke-linecap="round" transform="matrix(0.404598, 0, 0, 0.404163, 538.213042, 356.414575)" fill-opacity="1" fill="#ffffff" fill-rule="nonzero" stroke-linejoin="round" d="M 123.873408 115.969462 C 123.873408 115.969462 -123.874158 115.969462 -123.874158 115.969462 C -123.874158 115.969462 -123.874158 -115.971998 -123.874158 -115.971998 C -123.874158 -115.971998 123.873408 -115.971998 123.873408 -115.971998 C 123.873408 -115.971998 123.873408 115.969462 123.873408 115.969462 Z M 123.873408 115.969462 " stroke="#253237" stroke-width="2" stroke-opacity="1" stroke-miterlimit="4"/><path stroke-linecap="round" transform="matrix(0.404598, 0, 0, 0.404163, 538.213522, 356.414985)" fill-opacity="1" fill="#ffffff" fill-rule="nonzero" stroke-linejoin="round" d="M -123.875344 -115.973013 C -123.875344 -115.973013 123.872222 115.968447 123.872222 115.968447 " stroke="#253237" stroke-width="2" stroke-opacity="1" stroke-miterlimit="4"/><path stroke-linecap="round" transform="matrix(0.404598, 0, 0, 0.404163, 538.213522, 356.414985)" fill-opacity="1" fill="#ffffff" fill-rule="nonzero" stroke-linejoin="round" d="M -123.875344 115.968447 C -123.875344 115.968447 123.872222 -115.973013 123.872222 -115.973013 " stroke="#253237" stroke-width="2" stroke-opacity="1" stroke-miterlimit="4"/><path stroke-linecap="round" transform="matrix(0.404598, 0, 0, 0.404163, 588.333459, 309.54379)" fill-opacity="1" fill="#7aba59" fill-rule="nonzero" stroke-linejoin="round" d="M 25.986745 -0.002031 C 25.986745 14.350543 14.352911 25.987243 -0.00352999 25.987243 C -14.350316 25.987243 -25.98415 14.350543 -25.98415 -0.002031 C -25.98415 -14.354605 -14.350316 -25.991305 -0.00352999 -25.991305 C 14.352911 -25.991305 25.986745 -14.354605 25.986745 -0.002031 Z M 25.986745 -0.002031 " stroke="#253237" stroke-width="2" stroke-opacity="1" stroke-miterlimit="4"/><path stroke-linecap="round" transform="matrix(0.404598, 0, 0, 0.404163, 588.333459, 309.54379)" fill-opacity="1" fill="#ffffff" fill-rule="nonzero" stroke-linejoin="round" d="M 15.376302 -3.829384 C 15.376302 -3.829384 15.376302 3.825322 15.376302 3.825322 C 15.376302 3.825322 3.82936 3.825322 3.82936 3.825322 C 3.82936 3.825322 3.82936 15.375036 3.82936 15.375036 C 3.82936 15.375036 -3.826765 15.375036 -3.826765 15.375036 C -3.826765 15.375036 -3.826765 3.825322 -3.826765 3.825322 C -3.826765 3.825322 -15.373708 3.825322 -15.373708 3.825322 C -15.373708 3.825322 -15.373708 -3.829384 -15.373708 -3.829384 C -15.373708 -3.829384 -3.826765 -3.829384 -3.826765 -3.829384 C -3.826765 -3.829384 -3.826765 -15.379098 -3.826765 -15.379098 C -3.826765 -15.379098 3.82936 -15.379098 3.82936 -15.379098 C 3.82936 -15.379098 3.82936 -3.829384 3.82936 -3.829384 C 3.82936 -3.829384 15.376302 -3.829384 15.376302 -3.829384 Z M 15.376302 -3.829384 " stroke="#253237" stroke-width="2" stroke-opacity="1" stroke-miterlimit="4"/><path stroke-linecap="round" transform="matrix(0.404598, 0, 0, 0.404163, 658.927044, 205.794809)" fill-opacity="1" fill="#d4d4d4" fill-rule="nonzero" stroke-linejoin="round" d="M 123.87549 115.966176 C 123.87549 115.966176 -123.881731 115.966176 -123.881731 115.966176 C -123.881731 115.966176 -123.881731 -115.975285 -123.881731 -115.975285 C -123.881731 -115.975285 123.87549 -115.975285 123.87549 -115.975285 C 123.87549 -115.975285 123.87549 115.966176 123.87549 115.966176 Z M 123.87549 115.966176 " stroke="#253237" stroke-width="2" stroke-opacity="1" stroke-miterlimit="4"/><path stroke-linecap="round" transform="matrix(0.404598, 0, 0, 0.404163, 658.927044, 225.417741)" fill-opacity="1" fill="#ffffff" fill-rule="nonzero" stroke-linejoin="round" d="M -123.881731 67.414169 C -123.881731 67.414169 -34.701876 -67.422705 -34.701876 -67.422705 C -34.701876 -67.422705 20.599869 14.730075 20.599869 14.730075 C 20.599869 14.730075 63.534027 -28.859224 63.534027 -28.859224 C 63.534027 -28.859224 123.87549 67.414169 123.87549 67.414169 C 123.87549 67.414169 -123.881731 67.414169 -123.881731 67.414169 Z M -123.881731 67.414169 " stroke="#253237" stroke-width="2" stroke-opacity="1" stroke-miterlimit="4"/><path stroke-linecap="round" transform="matrix(0.404598, 0, 0, 0.404163, 669.616946, 191.405802)" fill-opacity="1" fill="#ffffff" fill-rule="nonzero" stroke-linejoin="round" d="M 22.553822 0.00110811 C 22.553822 12.459336 12.455074 22.559295 0.000596252 22.559295 C -12.453882 22.559295 -22.552629 12.459336 -22.552629 0.00110811 C -22.552629 -12.457119 -12.453882 -22.557079 0.000596252 -22.557079 C 12.455074 -22.557079 22.553822 -12.457119 22.553822 0.00110811 Z M 22.553822 0.00110811 " stroke="#253237" stroke-width="2" stroke-opacity="1" stroke-miterlimit="4"/><path stroke-linecap="round" transform="matrix(0.404598, 0, 0, 0.404163, 709.047509, 158.923614)" fill-opacity="1" fill="#7aba59" fill-rule="nonzero" stroke-linejoin="round" d="M 25.988709 -0.00430223 C 25.988709 14.348272 14.354874 25.984971 -0.00156651 25.984971 C -14.348353 25.984971 -25.982187 14.348272 -25.982187 -0.00430223 C -25.982187 -14.347211 -14.348353 -25.983911 -0.00156651 -25.983911 C 14.354874 -25.983911 25.988709 -14.347211 25.988709 -0.00430223 Z M 25.988709 -0.00430223 " stroke="#253237" stroke-width="2" stroke-opacity="1" stroke-miterlimit="4"/><path stroke-linecap="round" transform="matrix(0.404598, 0, 0, 0.404163, 709.047509, 158.923614)" fill-opacity="1" fill="#ffffff" fill-rule="nonzero" stroke-linejoin="round" d="M 15.378266 -3.831655 C 15.378266 -3.831655 15.378266 3.823051 15.378266 3.823051 C 15.378266 3.823051 3.831323 3.823051 3.831323 3.823051 C 3.831323 3.823051 3.831323 15.38243 3.831323 15.38243 C 3.831323 15.38243 -3.824802 15.38243 -3.824802 15.38243 C -3.824802 15.38243 -3.824802 3.823051 -3.824802 3.823051 C -3.824802 3.823051 -15.381399 3.823051 -15.381399 3.823051 C -15.381399 3.823051 -15.381399 -3.831655 -15.381399 -3.831655 C -15.381399 -3.831655 -3.824802 -3.831655 -3.824802 -3.831655 C -3.824802 -3.831655 -3.824802 -15.38137 -3.824802 -15.38137 C -3.824802 -15.38137 3.831323 -15.38137 3.831323 -15.38137 C 3.831323 -15.38137 3.831323 -3.831655 3.831323 -3.831655 C 3.831323 -3.831655 15.378266 -3.831655 15.378266 -3.831655 Z M 15.378266 -3.831655 " stroke="#253237" stroke-width="2" stroke-opacity="1" stroke-miterlimit="4"/><path stroke-linecap="round" transform="matrix(0.404598, 0, 0, 0.404163, 538.213042, 200.749187)" fill-opacity="1" fill="#ffffff" fill-rule="nonzero" stroke-linejoin="round" d="M 123.873408 115.972743 C 123.873408 115.972743 -123.874158 115.972743 -123.874158 115.972743 C -123.874158 115.972743 -123.874158 -115.968717 -123.874158 -115.968717 C -123.874158 -115.968717 123.873408 -115.968717 123.873408 -115.968717 C 123.873408 -115.968717 123.873408 115.972743 123.873408 115.972743 Z M 123.873408 115.972743 " stroke="#253237" stroke-width="2" stroke-opacity="1" stroke-miterlimit="4"/><path stroke-linecap="round" transform="matrix(0.404598, 0, 0, 0.404163, 538.213522, 200.749187)" fill-opacity="1" fill="#ffffff" fill-rule="nonzero" stroke-linejoin="round" d="M -123.875344 -115.968717 C -123.875344 -115.968717 123.872222 115.972743 123.872222 115.972743 " stroke="#253237" stroke-width="2" stroke-opacity="1" stroke-miterlimit="4"/><path stroke-linecap="round" transform="matrix(0.404598, 0, 0, 0.404163, 538.213522, 200.749187)" fill-opacity="1" fill="#ffffff" fill-rule="nonzero" stroke-linejoin="round" d="M -123.875344 115.972743 C -123.875344 115.972743 123.872222 -115.968717 123.872222 -115.968717 " stroke="#253237" stroke-width="2" stroke-opacity="1" stroke-miterlimit="4"/><path stroke-linecap="round" transform="matrix(0.404598, 0, 0, 0.404163, 588.333459, 153.877991)" fill-opacity="1" fill="#7aba59" fill-rule="nonzero" stroke-linejoin="round" d="M 25.986745 0.00226482 C 25.986745 14.354839 14.352911 25.991538 -0.00352999 25.991538 C -14.350316 25.991538 -25.98415 14.354839 -25.98415 0.00226482 C -25.98415 -14.350309 -14.350316 -25.987009 -0.00352999 -25.987009 C 14.352911 -25.987009 25.986745 -14.350309 25.986745 0.00226482 Z M 25.986745 0.00226482 " stroke="#253237" stroke-width="2" stroke-opacity="1" stroke-miterlimit="4"/><path stroke-linecap="round" transform="matrix(0.404598, 0, 0, 0.404163, 588.333459, 153.877991)" fill-opacity="1" fill="#ffffff" fill-rule="nonzero" stroke-linejoin="round" d="M 15.376302 -3.825088 C 15.376302 -3.825088 15.376302 3.829618 15.376302 3.829618 C 15.376302 3.829618 3.82936 3.829618 3.82936 3.829618 C 3.82936 3.829618 3.82936 15.379332 3.82936 15.379332 C 3.82936 15.379332 -3.826765 15.379332 -3.826765 15.379332 C -3.826765 15.379332 -3.826765 3.829618 -3.826765 3.829618 C -3.826765 3.829618 -15.373708 3.829618 -15.373708 3.829618 C -15.373708 3.829618 -15.373708 -3.825088 -15.373708 -3.825088 C -15.373708 -3.825088 -3.826765 -3.825088 -3.826765 -3.825088 C -3.826765 -3.825088 -3.826765 -15.374803 -3.826765 -15.374803 C -3.826765 -15.374803 3.82936 -15.374803 3.82936 -15.374803 C 3.82936 -15.374803 3.82936 -3.825088 3.82936 -3.825088 C 3.82936 -3.825088 15.376302 -3.825088 15.376302 -3.825088 Z M 15.376302 -3.825088 " stroke="#253237" stroke-width="2" stroke-opacity="1" stroke-miterlimit="4"/><path stroke-linecap="round" transform="matrix(0.404598, -0.000127402, 0.000127539, 0.404163, 352.966864, 238.989076)" fill-opacity="1" fill="#253237" fill-rule="nonzero" stroke-linejoin="round" d="M -32.912943 -137.42013 C 38.923933 -188.332215 129.882653 -104.082436 117.033971 -17.391131 C 135.739453 29.731807 127.034581 79.542648 104.503837 130.731232 C 42.877337 164.423444 -99.429859 188.32854 -135.734386 75.651794 C -127.942919 13.836692 -119.939733 -45.813375 -109.703503 -83.793733 C -101.378893 -121.765027 -71.763966 -134.967794 -32.912943 -137.42013 Z M -32.912943 -137.42013 " stroke="#253237" stroke-width="2" stroke-opacity="1" stroke-miterlimit="4"/><path stroke-linecap="round" transform="matrix(0.404598, -0.000127402, 0.000127539, 0.404163, 352.966864, 238.989076)" fill-opacity="1" fill="#253237" fill-rule="nonzero" stroke-linejoin="round" d="M -32.912943 -137.42013 C 38.923933 -188.332215 129.882653 -104.082436 117.033971 -17.391131 C 135.739453 29.731807 127.034581 79.542648 104.503837 130.731232 C 42.877337 164.423444 -99.429859 188.32854 -135.734386 75.651794 C -127.942919 13.836692 -119.939733 -45.813375 -109.703503 -83.793733 C -101.378893 -121.765027 -71.763966 -134.967794 -32.912943 -137.42013 Z M -32.912943 -137.42013 " stroke="#253237" stroke-width="2" stroke-opacity="1" stroke-miterlimit="4"/><path stroke-linecap="round" transform="matrix(0.404598, -0.000127402, 0.000127539, 0.404163, 318.280034, 396.061025)" fill-opacity="1" fill="#ffffff" fill-rule="nonzero" stroke-linejoin="round" d="M 182.919704 -30.596178 C 182.919704 -30.596178 177.331078 148.707772 177.331078 148.707772 C 177.331078 148.707772 177.18465 153.810864 177.18465 153.810864 C 177.18465 153.810864 175.581804 184.999424 175.581804 184.999424 C 175.581804 184.999424 -144.623812 185.004803 -144.623812 185.004803 C -144.623812 185.004803 -151.034312 153.813717 -151.034312 153.813717 C -151.034312 153.813717 -176.583689 -50.387511 -176.583689 -50.387511 C -185.549559 -122.06623 -125.255838 -184.995591 -47.613264 -185.000112 C -47.613264 -185.000112 21.533229 -184.997645 21.533229 -184.997645 C 112.528161 -184.997957 185.553105 -115.135401 182.919704 -30.596178 Z M 182.919704 -30.596178 " stroke="#253237" stroke-width="2" stroke-opacity="1" stroke-miterlimit="4"/><path stroke-linecap="round" transform="matrix(0.404598, -0.000127402, 0.000127539, 0.404163, 397.578761, 420.07568)" fill-opacity="1" fill="#d4d4d4" fill-rule="nonzero" stroke-linejoin="round" d="M 41.271044 125.519527 C 41.271044 125.519527 1.918754 125.516787 1.918754 125.516787 C 1.918754 125.516787 -7.195047 94.334514 -7.195047 94.334514 C -7.195047 94.334514 -41.273493 -97.092228 -41.273493 -97.092228 C -41.273493 -97.092228 14.481329 -125.518848 14.481329 -125.518848 C 14.481329 -125.518848 36.212193 94.328867 36.212193 94.328867 C 36.212193 94.328867 41.271044 125.519527 41.271044 125.519527 Z M 41.271044 125.519527 " stroke="#253237" stroke-width="2" stroke-opacity="1" stroke-miterlimit="4"/><path stroke-linecap="round" transform="matrix(0.404598, -0.000127402, 0.000127539, 0.404163, 391.193665, 349.069039)" fill-opacity="1" fill="#7aba59" fill-rule="nonzero" stroke-linejoin="round" d="M 0.957205 -83.396126 C 24.966362 -46.680758 39.510545 0.924119 46.511723 57.20582 C 46.511723 57.20582 -41.662657 83.399263 -41.662657 83.399263 C -41.662657 83.399263 -46.516619 14.785656 -46.516619 14.785656 C -45.447191 -39.376858 -35.354811 -80.430742 0.957205 -83.396126 Z M 0.957205 -83.396126 " stroke="#253237" stroke-width="2" stroke-opacity="1" stroke-miterlimit="4"/><path stroke-linecap="round" transform="matrix(0.404598, -0.000127402, 0.000127539, 0.404163, 346.268179, 454.017266)" fill-opacity="1" fill="#253237" fill-rule="nonzero" stroke-linejoin="round" d="M 109.8505 10.391485 C 114.904465 26.456365 118.863778 23.558103 121.870342 41.584339 C 121.870342 41.584339 -121.870566 41.584826 -121.870566 41.584826 C -119.518689 23.183343 -116.159775 26.035587 -111.588201 10.389337 C -105.78915 -9.499475 -98.050277 -26.981082 -87.966236 -41.58177 C -87.966236 -41.58177 89.455886 -38.094755 89.455886 -38.094755 C 96.837465 -24.716021 103.040824 -10.216514 108.201166 5.287827 C 108.770257 6.979387 109.320035 8.680607 109.8505 10.391485 Z M 109.8505 10.391485 " stroke="#253237" stroke-width="2" stroke-opacity="1" stroke-miterlimit="4"/><path stroke-linecap="round" transform="matrix(0.404598, -0.000127402, 0.000127539, 0.404163, 342.607096, 373.62474)" fill-opacity="1" fill="#7aba59" fill-rule="nonzero" stroke-linejoin="round" d="M 120.724369 -144.20227 C 96.032538 -159.190856 70.315701 -169.057297 42.974318 -170.776627 C 42.974318 -170.776627 20.278909 -148.515543 20.278909 -148.515543 C 20.278909 -148.515543 -38.544702 -185.734801 -38.544702 -185.734801 C -38.544702 -185.734801 -136.533029 -144.196378 -136.533029 -144.196378 C -102.966799 -43.002555 -83.254761 57.529678 -78.989909 157.332164 C -19.835258 185.727351 39.309491 184.27691 98.451523 160.819185 C 93.149774 103.861468 91.196123 53.438369 102.287506 28.496412 C 132.503752 6.6243 136.533223 -35.069387 114.028437 -96.855379 C 113.018701 -109.545887 116.132733 -126.168764 120.724369 -144.20227 Z M 120.724369 -144.20227 " stroke="#253237" stroke-width="2" stroke-opacity="1" stroke-miterlimit="4"/><path stroke-linecap="round" transform="matrix(0.404598, -0.000127402, 0.000127539, 0.404163, 343.476846, 287.218016)" fill-opacity="1" fill="#d4d4d4" fill-rule="nonzero" stroke-linejoin="round" d="M 40.759636 -25.771647 C 40.759636 -25.771647 40.757262 43.0144 40.757262 43.0144 C 40.757262 43.0144 18.061853 65.275485 18.061853 65.275485 C 18.061853 65.275485 -40.761758 28.056226 -40.761758 28.056226 C -40.761758 28.056226 -40.201335 -65.269167 -40.201335 -65.269167 C -40.201335 -65.269167 40.759636 -25.771647 40.759636 -25.771647 Z M 40.759636 -25.771647 " stroke="#253237" stroke-width="2" stroke-opacity="1" stroke-miterlimit="4"/><path stroke-linecap="round" transform="matrix(0.404598, -0.000127402, 0.000127539, 0.404163, 343.891254, 276.045217)" fill-opacity="1" fill="#253237" fill-rule="nonzero" stroke-linejoin="round" d="M 39.734547 7.536023 C 39.734547 7.536023 39.72722 30.780428 39.72722 30.780428 C 6.128915 31.340074 -24.584351 6.65556 -39.730153 -31.332798 C -16.758663 -10.584394 13.947392 6.34876 39.734547 7.536023 Z M 39.734547 7.536023 " stroke="#253237" stroke-width="2" stroke-opacity="1" stroke-miterlimit="4"/><path stroke-linecap="round" transform="matrix(0.404598, -0.000127402, 0.000127539, 0.404163, 343.476846, 287.218016)" fill-opacity="1" fill="#d4d4d4" fill-rule="nonzero" stroke-linejoin="round" d="M 40.759636 -25.771647 C 40.759636 -25.771647 40.757262 43.0144 40.757262 43.0144 C 40.757262 43.0144 18.061853 65.275485 18.061853 65.275485 C 18.061853 65.275485 -40.761758 28.056226 -40.761758 28.056226 C -40.761758 28.056226 -40.201335 -65.269167 -40.201335 -65.269167 C -40.201335 -65.269167 40.759636 -25.771647 40.759636 -25.771647 Z M 40.759636 -25.771647 " stroke="#253237" stroke-width="2" stroke-opacity="1" stroke-miterlimit="4"/><path stroke-linecap="round" transform="matrix(0.404598, -0.000127402, 0.000127539, 0.404163, 360.826337, 310.051814)" fill-opacity="1" fill="#7aba59" fill-rule="nonzero" stroke-linejoin="round" d="M -2.1026 -23.305614 C 18.893501 -14.64879 24.79903 -4.788594 20.286806 6.344103 C 17.523433 13.157081 11.680789 18.200387 4.80609 20.102231 C -6.790134 23.297702 -16.269293 17.93062 -24.801101 8.765479 C -24.801101 8.765479 -2.105693 -13.495606 -2.105693 -13.495606 C -2.105693 -13.495606 -2.1026 -23.305614 -2.1026 -23.305614 Z M -2.1026 -23.305614 " stroke="#253237" stroke-width="2" stroke-opacity="1" stroke-miterlimit="4"/><path stroke-linecap="round" transform="matrix(0.404598, -0.000127402, 0.000127539, 0.404163, 334.208703, 309.002091)" fill-opacity="1" fill="#7aba59" fill-rule="nonzero" stroke-linejoin="round" d="M 40.985858 11.383492 C 40.985858 11.383492 -17.837754 -25.835767 -17.837754 -25.835767 C -17.837754 -25.835767 -17.835371 -33.393823 -17.835371 -33.393823 C -40.983585 -14.187032 -40.207342 4.157447 -16.800376 21.677867 C 9.929615 33.39065 27.947038 27.442668 40.985858 11.383492 Z M 40.985858 11.383492 " stroke="#253237" stroke-width="2" stroke-opacity="1" stroke-miterlimit="4"/><path stroke-linecap="butt" transform="matrix(0.404598, -0.000127402, 0.000127539, 0.404163, 285.687348, 408.099597)" fill-opacity="1" fill="#d4d4d4" fill-rule="nonzero" stroke-linejoin="miter" d="M 17.068288 65.95477 C 11.154274 113.640184 -42.16619 107.031823 -36.261828 59.336741 C -36.261828 59.336741 -18.616557 -113.642476 -18.616557 -113.642476 C -18.616557 -113.642476 42.169715 -85.208115 42.169715 -85.208115 C 42.169715 -85.208115 17.068288 65.95477 17.068288 65.95477 Z M 17.068288 65.95477 " stroke="#253237" stroke-width="2" stroke-opacity="1" stroke-miterlimit="10"/><path stroke-linecap="round" transform="matrix(0.404598, -0.000127402, 0.000127539, 0.404163, 287.746323, 349.068072)" fill-opacity="1" fill="#7aba59" fill-rule="nonzero" stroke-linejoin="round" d="M -0.959053 -83.394338 C -24.972046 -46.684443 -39.507623 0.920933 -46.515319 57.198217 C -46.515319 57.198217 41.661856 83.398925 41.661856 83.398925 C 41.661856 83.398925 46.520455 14.78838 46.520455 14.78838 C 45.446558 -39.384475 35.351093 -80.425392 -0.959053 -83.394338 Z M -0.959053 -83.394338 " stroke="#253237" stroke-width="2" stroke-opacity="1" stroke-miterlimit="4"/><path stroke-linecap="round" transform="matrix(0.404598, -0.000127402, 0.000127539, 0.404163, 355.301623, 387.224069)" fill="none" stroke-linejoin="round" d="M 57.454063 -4.479627 C 41.367734 0.937387 24.048683 -3.388343 7.675768 -7.655784 C 4.78927 -8.410567 1.83519 -9.16537 -1.109592 -8.789362 C -5.251601 -8.249426 -8.843968 -5.573344 -12.484463 -3.361199 C -26.100098 4.888448 -41.992326 7.106397 -57.450044 9.160176 " stroke="#253237" stroke-width="2" stroke-opacity="1" stroke-miterlimit="4"/><path stroke-linecap="round" transform="matrix(0.404598, -0.000127402, 0.000127539, 0.404163, 343.891254, 276.045217)" fill-opacity="1" fill="#253237" fill-rule="nonzero" stroke-linejoin="round" d="M 39.734547 7.536023 C 39.734547 7.536023 39.72722 30.780428 39.72722 30.780428 C 6.128915 31.340074 -24.584351 6.65556 -39.730153 -31.332798 C -16.758663 -10.584394 13.947392 6.34876 39.734547 7.536023 Z M 39.734547 7.536023 " stroke="#253237" stroke-width="2" stroke-opacity="1" stroke-miterlimit="4"/><path stroke-linecap="round" transform="matrix(0.404598, -0.000127402, 0.000127539, 0.404163, 362.799866, 239.14524)" fill-opacity="1" fill="#d4d4d4" fill-rule="nonzero" stroke-linejoin="round" d="M 67.137582 -51.707852 C 91.119475 102.12839 -10.583607 136.436197 -87.757558 58.685666 C -87.757558 58.685666 -91.114344 -12.169757 -91.114344 -12.169757 C -91.114344 -12.169757 -91.11878 -59.354455 -91.11878 -59.354455 C -60.103103 -136.442655 49.876629 -117.831791 67.137582 -51.707852 Z M 67.137582 -51.707852 " stroke="#253237" stroke-width="2" stroke-opacity="1" stroke-miterlimit="4"/><path stroke-linecap="round" transform="matrix(0.404598, -0.000127402, 0.000127539, 0.404163, 319.967032, 241.624919)" fill-opacity="1" fill="#d4d4d4" fill-rule="nonzero" stroke-linejoin="round" d="M 14.752633 -18.271729 C -3.635862 -29.643605 -14.372424 -27.713983 -16.347383 -10.53984 C -16.97664 -5.127619 -16.408751 0.371964 -15.058762 5.639834 C -9.157374 28.63481 3.586425 29.643991 16.977722 28.633383 C 16.977722 28.633383 14.752633 -18.271729 14.752633 -18.271729 Z M 14.752633 -18.271729 " stroke="#253237" stroke-width="2" stroke-opacity="1" stroke-miterlimit="4"/><path stroke-linecap="round" transform="matrix(0.404598, -0.000127402, 0.000127539, 0.404163, 357.744842, 207.194488)" fill-opacity="1" fill="#253237" fill-rule="nonzero" stroke-linejoin="round" d="M -22.360549 -19.499382 C -22.181507 25.075811 -43.266728 54.112592 -78.647174 72.716295 C -78.647174 72.716295 -88.716852 -19.500969 -88.716852 -19.500969 C 4.486456 -72.716262 41.675566 -40.365335 82.812029 -3.596243 C 82.812029 -3.596243 79.60659 27.350185 79.60659 27.350185 C 42.302334 23.375762 7.433739 10.858217 -22.360549 -19.499382 Z M -22.360549 -19.499382 " stroke="#253237" stroke-width="2" stroke-opacity="1" stroke-miterlimit="4"/><path stroke-linecap="round" transform="matrix(0.404598, -0.000127402, 0.000127539, 0.404163, 370.658258, 240.04281)" fill="none" stroke-linejoin="round" d="M -2.399114 -31.257083 C -0.708441 -4.155794 3.466221 14.228417 9.593263 25.809059 C 5.855385 30.679058 -1.434047 31.256662 -9.592066 30.790169 " stroke="#253237" stroke-width="2" stroke-opacity="1" stroke-miterlimit="4"/><path stroke-linecap="round" transform="matrix(0.404598, -0.000127402, 0.000127539, 0.404163, 351.211461, 225.383481)" fill="none" stroke-linejoin="round" d="M 14.964636 -3.949935 C 2.578079 -5.026658 -6.923278 -1.231295 -14.967562 5.029112 " stroke="#253237" stroke-width="2" stroke-opacity="1" stroke-miterlimit="4"/><path stroke-linecap="round" transform="matrix(0.404598, -0.000127402, 0.000127539, 0.404163, 379.045344, 225.156482)" fill="none" stroke-linejoin="round" d="M 11.153682 3.820631 C 3.711766 -1.91308 -3.721701 -3.819435 -11.146718 -1.908099 " stroke="#253237" stroke-width="2" stroke-opacity="1" stroke-miterlimit="4"/><path stroke-linecap="round" transform="matrix(0.404598, -0.000127402, 0.000127539, 0.404163, 354.520948, 237.720731)" fill-opacity="1" fill="#253237" fill-rule="nonzero" stroke-linejoin="round" d="M -4.792201 0.00325308 C -4.793877 5.319021 -2.65191 9.639967 0.00311457 9.640804 C 2.648487 9.631973 4.793175 5.322043 4.794853 -0.00338988 C 4.796529 -5.319158 2.644908 -9.640107 -0.000465054 -9.631275 C -2.645835 -9.632109 -4.790522 -5.32218 -4.792201 0.00325308 Z M -4.792201 0.00325308 " stroke="#253237" stroke-width="2" stroke-opacity="1" stroke-miterlimit="4"/><path stroke-linecap="round" transform="matrix(0.404598, -0.000127402, 0.000127539, 0.404163, 351.613773, 234.76237)" fill-opacity="1" fill="#253237" fill-rule="nonzero" stroke-linejoin="round" d="M 7.18256 -2.309291 C 1.688998 -2.069396 -3.060777 -3.037397 -7.182678 -5.029693 C -6.141343 -0.69943 -2.232179 2.355953 2.526712 5.034668 C 2.526712 5.034668 7.18256 -2.309291 7.18256 -2.309291 Z M 7.18256 -2.309291 " stroke="#253237" stroke-width="2" stroke-opacity="1" stroke-miterlimit="4"/><path stroke-linecap="round" transform="matrix(0.404598, -0.000127402, 0.000127539, 0.404163, 378.976414, 237.499206)" fill-opacity="1" fill="#253237" fill-rule="nonzero" stroke-linejoin="round" d="M 4.79872 0.00347658 C 4.797044 5.319245 2.652354 9.638839 -0.00267069 9.638002 C -2.64804 9.637168 -4.799665 5.325885 -4.797986 0.000451469 C -4.796307 -5.324982 -2.65162 -9.634911 0.00340432 -9.634074 C 2.648774 -9.63324 4.800398 -5.321957 4.79872 0.00347658 Z M 4.79872 0.00347658 " stroke="#253237" stroke-width="2" stroke-opacity="1" stroke-miterlimit="4"/><path stroke-linecap="round" transform="matrix(0.404598, -0.000127402, 0.000127539, 0.404163, 381.881715, 234.539032)" fill-opacity="1" fill="#253237" fill-rule="nonzero" stroke-linejoin="round" d="M -7.179607 -2.312131 C -1.686196 -2.068773 3.054536 -3.043447 7.187347 -5.033141 C 6.143279 -0.69387 2.23219 2.359048 -2.528389 5.034762 C -2.528389 5.034762 -7.179607 -2.312131 -7.179607 -2.312131 Z M -7.179607 -2.312131 " stroke="#253237" stroke-width="2" stroke-opacity="1" stroke-miterlimit="4"/><path stroke-linecap="round" transform="matrix(0.404598, -0.000127402, 0.000127539, 0.404163, 362.743556, 264.598628)" fill="none" stroke-linejoin="round" d="M 18.543502 -1.050048 C 3.624073 8.523297 -8.742729 6.035485 -18.547246 -8.532812 " stroke="#253237" stroke-width="2" stroke-opacity="1" stroke-miterlimit="4"/><path stroke-linecap="round" transform="matrix(0.404598, -0.000127402, 0.000127539, 0.404163, 370.331844, 446.75457)" fill-opacity="1" fill="#d4d4d4" fill-rule="nonzero" stroke-linejoin="round" d="M -57.997911 9.461473 C -41.790742 18.860995 -23.034001 25.883722 -3.089389 31.795345 C -0.386341 32.58873 2.47133 32.908577 5.252007 32.455197 C 9.722331 31.731728 11.991892 29.441831 12.437133 25.865909 C 13.085629 20.67599 9.727352 15.803754 4.862014 13.907874 C 4.862014 13.907874 -17.871861 5.057201 -17.871861 5.057201 C -9.172686 3.948464 -0.570416 3.980171 7.973667 4.833387 C 18.989253 5.948339 29.21203 10.648768 36.672868 17.609944 C 37.985511 18.837817 39.278852 20.046354 40.54324 21.216222 C 45.88068 26.205062 54.773293 24.004237 56.84159 17.007405 C 57.682433 14.18548 58.001998 11.13143 57.81959 7.864591 C 57.195613 -3.472691 50.372961 -13.545807 40.527017 -19.202956 C 27.78521 -26.533068 12.445596 -31.612046 -7.268757 -32.913375 C -7.268757 -32.913375 -56.729653 -32.271744 -56.729653 -32.271744 " stroke="#253237" stroke-width="2" stroke-opacity="1" stroke-miterlimit="4"/><path fill="#d4d4d4" d="M 282.550781 447.96875 C 268.039062 448.4375 267.328125 426.507812 281.839844 426.039062 C 281.839844 426.039062 347.679688 433.71875 347.679688 433.71875 C 347.679688 433.71875 347.167969 450.585938 347.167969 450.585938 C 347.167969 450.585938 282.550781 447.96875 282.550781 447.96875 Z M 282.550781 447.96875 " fill-opacity="1" fill-rule="nonzero"/><path stroke-linecap="round" transform="matrix(0.404598, -0.000127402, 0.000127539, 0.404163, 308.547996, 440.239134)" fill="none" stroke-linejoin="round" d="M 95.444523 25.630651 C 95.444523 25.630651 -68.585608 18.929401 -68.585608 18.929401 C -90.07661 18.246074 -95.448744 0.808659 -92.1868 -25.624181 " stroke="#253237" stroke-width="2" stroke-opacity="1" stroke-miterlimit="4"/><path stroke-linecap="round" transform="matrix(0.404598, -0.000127402, 0.000127539, 0.404163, 314.760589, 429.879695)" fill="none" stroke-linejoin="round" d="M -81.363466 -9.528327 C -81.363466 -9.528327 81.359396 9.524424 81.359396 9.524424 " stroke="#253237" stroke-width="2" stroke-opacity="1" stroke-miterlimit="4"/><path stroke-linecap="round" transform="matrix(0.404598, 0, 0, 0.404163, 512.153722, 468.575448)" fill-opacity="1" fill="#253237" fill-rule="nonzero" stroke-linejoin="round" d="M 677.771219 25.589966 C 677.771219 25.589966 -677.77803 25.589966 -677.77803 25.589966 C -677.77803 25.589966 -677.77803 -25.596048 -677.77803 -25.596048 C -677.77803 -25.596048 677.771219 -25.596048 677.771219 -25.596048 C 677.771219 -25.596048 677.771219 25.589966 677.771219 25.589966 Z M 677.771219 25.589966 " stroke="#253237" stroke-width="2" stroke-opacity="1" stroke-miterlimit="4"/><path stroke-linecap="butt" transform="matrix(0.404598, 0, 0, 0.404163, 375.238023, 150.997434)" fill-opacity="1" fill="#ffffff" fill-rule="nonzero" stroke-linejoin="miter" d="M 169.07259 39.140068 C 169.07259 39.140068 -169.071315 39.140068 -169.071315 39.140068 C -181.129953 39.140068 -190.900443 29.36872 -190.900443 17.306759 C -190.900443 17.306759 -190.900443 -17.313389 -190.900443 -17.313389 C -190.900443 -29.365685 -181.129953 -39.137034 -169.071315 -39.137034 C -169.071315 -39.137034 169.07259 -39.137034 169.07259 -39.137034 C 181.131228 -39.137034 190.901718 -29.365685 190.901718 -17.313389 C 190.901718 -17.313389 190.901718 17.306759 190.901718 17.306759 C 190.901718 29.36872 181.131228 39.140068 169.07259 39.140068 Z M 169.07259 39.140068 " stroke="#253237" stroke-width="2" stroke-opacity="1" stroke-miterlimit="10"/><path stroke-linecap="butt" transform="matrix(0.404598, 0, 0, 0.404163, 313.413736, 149.488678)" fill-opacity="1" fill="#ffffff" fill-rule="nonzero" stroke-linejoin="miter" d="M 14.376558 -14.382551 C 22.322322 -6.437894 22.322322 6.43593 14.376558 14.380587 C 6.440449 22.325244 -6.438833 22.325244 -14.384597 14.380587 C -22.320706 6.43593 -22.320706 -6.437894 -14.384597 -14.382551 C -6.438833 -22.327208 6.440449 -22.327208 14.376558 -14.382551 Z M 14.376558 -14.382551 " stroke="#253237" stroke-width="2" stroke-opacity="1" stroke-miterlimit="10"/><path stroke-linecap="butt" transform="matrix(0.404598, 0, 0, 0.404163, 321.947119, 158.013292)" fill-opacity="1" fill="#ffffff" fill-rule="nonzero" stroke-linejoin="miter" d="M -6.714437 -6.711425 C -6.714437 -6.711425 6.71516 6.713306 6.71516 6.713306 " stroke="#253237" stroke-width="2" stroke-opacity="1" stroke-miterlimit="10"/><path stroke-linecap="round" transform="matrix(0.404598, 0, 0, 0.404163, 377.286076, 456.412185)" fill-opacity="1" fill="#ffffff" fill-rule="nonzero" stroke-linejoin="round" d="M 94.34281 9.428053 C 94.34281 9.428053 -94.337704 9.428053 -94.337704 9.428053 C -94.337704 9.428053 -94.337704 -9.428426 -94.337704 -9.428426 C -94.337704 -9.428426 94.34281 -9.428426 94.34281 -9.428426 C 94.34281 -9.428426 94.34281 9.428053 94.34281 9.428053 Z M 94.34281 9.428053 " stroke="#253237" stroke-width="2" stroke-opacity="1" stroke-miterlimit="4"/><path stroke-linecap="round" transform="matrix(0.404598, 0, 0, 0.404163, 441.422636, 375.932382)" fill-opacity="1" fill="#ffffff" fill-rule="nonzero" stroke-linejoin="round" d="M -209.623298 137.642731 C -209.623298 137.642731 209.629189 137.642731 209.629189 137.642731 C 209.629189 137.642731 209.629189 -137.636737 209.629189 -137.636737 C 209.629189 -137.636737 -209.623298 -137.636737 -209.623298 -137.636737 C -209.623298 -137.636737 -209.623298 137.642731 -209.623298 137.642731 Z M -209.623298 137.642731 " stroke="#253237" stroke-width="2" stroke-opacity="1" stroke-miterlimit="4"/><path stroke-linecap="round" transform="matrix(0.404598, 0, 0, 0.404163, 353.580273, 375.932382)" fill-opacity="1" fill="#ffffff" fill-rule="nonzero" stroke-linejoin="round" d="M 7.486686 -137.636737 C 7.486686 -137.636737 -7.487651 -137.636737 -7.487651 -137.636737 C -7.487651 -137.636737 -7.487651 137.642731 -7.487651 137.642731 C -7.487651 137.642731 7.486686 137.642731 7.486686 137.642731 C 7.486686 137.642731 7.486686 -137.636737 7.486686 -137.636737 Z M 7.486686 -137.636737 " stroke="#253237" stroke-width="2" stroke-opacity="1" stroke-miterlimit="4"/><path stroke-linecap="round" transform="matrix(0.404598, 0, 0, 0.404163, 454.737554, 429.329619)" fill-opacity="1" fill="#ffffff" fill-rule="nonzero" stroke-linejoin="round" d="M -74.280956 -71.689246 C -74.280956 -71.689246 26.127238 -71.689246 26.127238 -71.689246 C 26.127238 -71.689246 74.284553 71.691517 74.284553 71.691517 C 74.284553 71.691517 -48.445156 71.691517 -48.445156 71.691517 C -48.445156 71.691517 -74.280956 -71.689246 -74.280956 -71.689246 Z M -74.280956 -71.689246 " stroke="#253237" stroke-width="2" stroke-opacity="1" stroke-miterlimit="4"/><path stroke-linecap="round" transform="matrix(0.404598, 0, 0, 0.404163, 426.643834, 429.329619)" fill-opacity="1" fill="#ffffff" fill-rule="nonzero" stroke-linejoin="round" d="M -4.844902 -71.689246 C -4.844902 -71.689246 -20.987451 -71.689246 -20.987451 -71.689246 C -20.987451 -71.689246 1.913342 71.691517 1.913342 71.691517 C 1.913342 71.691517 20.990899 71.691517 20.990899 71.691517 C 20.990899 71.691517 -4.844902 -71.689246 -4.844902 -71.689246 Z M -4.844902 -71.689246 " stroke="#253237" stroke-width="2" stroke-opacity="1" stroke-miterlimit="4"/></svg>