<svg xmlns="http://www.w3.org/2000/svg" xmlns:xlink="http://www.w3.org/1999/xlink" width="1640" zoomAndPan="magnify" viewBox="0 0 1230 693.000001" height="924" preserveAspectRatio="xMidYMid meet" version="1.0"><defs><clipPath id="id1"><path d="M 0.886719 0 L 1229.113281 0 L 1229.113281 692 L 0.886719 692 Z M 0.886719 0 " clip-rule="nonzero"/></clipPath><clipPath id="id2"><path d="M 70.085938 324.851562 L 96 324.851562 L 96 366.789062 L 70.085938 366.789062 Z M 70.085938 324.851562 " clip-rule="nonzero"/></clipPath><clipPath id="id3"><path d="M 97 324.851562 L 124 324.851562 L 124 366.789062 L 97 366.789062 Z M 97 324.851562 " clip-rule="nonzero"/></clipPath></defs><g clip-path="url(#id1)"><path fill="#ffffff" d="M 0.886719 0 L 1229.113281 0 L 1229.113281 699.492188 L 0.886719 699.492188 Z M 0.886719 0 " fill-opacity="1" fill-rule="nonzero"/><path fill="#ffffff" d="M 0.886719 0 L 1229.113281 0 L 1229.113281 692 L 0.886719 692 Z M 0.886719 0 " fill-opacity="1" fill-rule="nonzero"/><path fill="#ffffff" d="M 0.886719 0 L 1229.113281 0 L 1229.113281 692 L 0.886719 692 Z M 0.886719 0 " fill-opacity="1" fill-rule="nonzero"/><path fill="#ffffff" d="M 0.886719 0 L 1229.113281 0 L 1229.113281 692 L 0.886719 692 Z M 0.886719 0 " fill-opacity="1" fill-rule="nonzero"/></g><g clip-path="url(#id2)"><path fill="#000000" d="M 87.746094 347.824219 C 86.238281 348.390625 84.589844 348.746094 82.867188 348.746094 C 75.792969 348.710938 70.085938 343.390625 70.085938 336.863281 C 70.085938 330.339844 75.792969 324.984375 82.867188 324.984375 C 89.9375 324.984375 95.644531 330.304688 95.644531 336.863281 C 97.441406 354.316406 76.546875 366.660156 76.546875 366.660156 L 74.898438 364.707031 C 74.898438 364.671875 88.71875 354.101562 87.746094 347.824219 Z M 87.746094 347.824219 " fill-opacity="1" fill-rule="nonzero"/></g><g clip-path="url(#id3)"><path fill="#000000" d="M 115.066406 347.824219 C 113.558594 348.390625 111.90625 348.746094 110.183594 348.746094 C 103.113281 348.746094 97.402344 343.425781 97.402344 336.863281 C 97.402344 330.304688 103.113281 324.984375 110.183594 324.984375 C 117.253906 324.984375 122.960938 330.304688 122.960938 336.863281 C 124.757812 354.316406 103.867188 366.660156 103.867188 366.660156 L 102.214844 364.707031 C 102.214844 364.671875 116.035156 354.101562 115.066406 347.824219 Z M 115.066406 347.824219 " fill-opacity="1" fill-rule="nonzero"/></g></svg>