<svg xmlns="http://www.w3.org/2000/svg" xmlns:xlink="http://www.w3.org/1999/xlink" width="1366" zoomAndPan="magnify" viewBox="0 0 1024.5 576" height="768" preserveAspectRatio="xMidYMid meet" version="1.0"><defs><clipPath id="f3e0cf338a"><path d="M 0 0.140625 L 1024 0.140625 L 1024 575.859375 L 0 575.859375 Z M 0 0.140625 " clip-rule="nonzero"/></clipPath></defs><g clip-path="url(#f3e0cf338a)"><path fill="#ffffff" d="M 0 0.140625 L 1024.5 0.140625 L 1024.5 583.640625 L 0 583.640625 Z M 0 0.140625 " fill-opacity="1" fill-rule="nonzero"/><path fill="#ffffff" d="M 0 0.140625 L 1024.5 0.140625 L 1024.5 576.140625 L 0 576.140625 Z M 0 0.140625 " fill-opacity="1" fill-rule="nonzero"/><path fill="#eeeeee" d="M 0 0.140625 L 1024.5 0.140625 L 1024.5 576.140625 L 0 576.140625 Z M 0 0.140625 " fill-opacity="1" fill-rule="nonzero"/></g><path stroke-linecap="round" transform="matrix(0.525056, 0, 0, 0.524458, 529.020201, 84.089142)" fill="none" stroke-linejoin="round" d="M 99.467241 55.54973 C 99.467241 55.54973 99.467241 231.549797 99.467241 231.549797 " stroke="#253237" stroke-width="2" stroke-opacity="1" stroke-miterlimit="4"/><path stroke-linecap="round" transform="matrix(0.525056, 0, 0, 0.524458, 634.270342, 186.26201)" fill-opacity="1" fill="#ffffff" fill-rule="nonzero" stroke-linejoin="round" d="M 81.336473 -81.334483 C 81.336473 -81.334483 -81.339563 81.333374 -81.339563 81.333374 " stroke="#253237" stroke-width="2" stroke-opacity="1" stroke-miterlimit="4"/><path stroke-linecap="round" transform="matrix(0.525056, 0, 0, 0.524458, 529.020201, 84.089142)" fill="none" stroke-linejoin="round" d="M 352.490747 330.036843 C 352.490747 330.036843 102.785338 330.036843 102.785338 330.036843 " stroke="#253237" stroke-width="2" stroke-opacity="1" stroke-miterlimit="4"/><path stroke-linecap="round" transform="matrix(0.525056, 0, 0, 0.524458, 627.931316, 321.764174)" fill-opacity="1" fill="#ffffff" fill-rule="nonzero" stroke-linejoin="round" d="M 93.409516 93.410166 C 93.409516 93.410166 -93.408281 -93.41208 -93.408281 -93.41208 " stroke="#253237" stroke-width="2" stroke-opacity="1" stroke-miterlimit="4"/><path stroke-linecap="round" transform="matrix(0.525056, 0, 0, 0.524458, 529.020201, 84.089142)" fill="none" stroke-linejoin="round" d="M 99.467241 604.516507 C 99.467241 604.516507 99.467241 334.960078 99.467241 334.960078 " stroke="#253237" stroke-width="2" stroke-opacity="1" stroke-miterlimit="4"/><path stroke-linecap="round" transform="matrix(0.525056, 0, 0, 0.524458, 581.246503, 257.178743)" fill-opacity="1" fill="#ffffff" fill-rule="nonzero" stroke-linejoin="round" d="M 94.468274 0.0018017 C 94.468274 52.176176 52.173695 94.46684 -0.000778513 94.46684 C -52.175252 94.46684 -94.469831 52.176176 -94.469831 0.0018017 C -94.469831 -52.172573 -52.175252 -94.470685 -0.000778513 -94.470685 C 52.173695 -94.470685 94.468274 -52.172573 94.468274 0.0018017 Z M 94.468274 0.0018017 " stroke="#253237" stroke-width="2" stroke-opacity="1" stroke-miterlimit="4"/><path stroke-linecap="round" transform="matrix(0.525056, 0, 0, 0.524458, 613.936451, 214.028925)" fill-opacity="1" fill="#ffffff" fill-rule="nonzero" stroke-linejoin="round" d="M 0.00199778 0.22043 C 0.00199778 0.22043 -0.0054419 0.22043 -0.0054419 0.22043 C -0.0054419 0.22043 -0.0054419 -0.219012 -0.0054419 -0.219012 C -0.0054419 -0.0700484 -0.0054419 0.0714667 0.00199778 0.22043 Z M 0.00199778 0.22043 " stroke="#253237" stroke-width="2" stroke-opacity="1" stroke-miterlimit="4"/><path stroke-linecap="round" transform="matrix(0.525056, 0, 0, 0.524458, 627.304358, 214.028925)" fill-opacity="1" fill="#ffffff" fill-rule="nonzero" stroke-linejoin="round" d="M 0.00806651 -0.219012 C 0.00806651 -0.219012 0.00806651 0.22043 0.00806651 0.22043 C 0.00806651 0.22043 -0.00681285 0.22043 -0.00681285 0.22043 C 0.00806651 0.0714667 0.00806651 -0.0700484 0.00806651 -0.219012 Z M 0.00806651 -0.219012 " stroke="#253237" stroke-width="2" stroke-opacity="1" stroke-miterlimit="4"/><path stroke-linecap="round" transform="matrix(0.525056, 0, 0, 0.524458, 580.495645, 251.906356)" fill-opacity="1" fill="#ffffff" fill-rule="nonzero" stroke-linejoin="round" d="M 75.394569 -104.520259 C 75.394569 -104.520259 60.172984 84.029961 60.172984 84.029961 C 44.058638 96.863144 23.636717 104.519855 1.436713 104.519855 C -24.765839 104.519855 -48.468658 93.861535 -65.572482 76.641385 C -65.572482 76.641385 -75.392859 -104.520259 -75.392859 -104.520259 C -75.392859 -104.520259 75.394569 -104.520259 75.394569 -104.520259 Z M 75.394569 -104.520259 " stroke="#253237" stroke-width="2" stroke-opacity="1" stroke-miterlimit="4"/><path stroke-linecap="round" transform="matrix(0.525056, 0, 0, 0.524458, 580.49459, 236.014213)" fill-opacity="1" fill="#253237" fill-rule="nonzero" stroke-linejoin="round" d="M 35.64637 49.704276 C 35.64637 49.704276 -38.140373 49.704276 -38.140373 49.704276 C -38.140373 49.704276 -43.236553 -49.698893 -43.236553 -49.698893 C -43.236553 -49.698893 43.234844 -49.698893 43.234844 -49.698893 C 43.234844 -49.698893 35.64637 49.704276 35.64637 49.704276 Z M 35.64637 49.704276 " stroke="#253237" stroke-width="2" stroke-opacity="1" stroke-miterlimit="4"/><path stroke-linecap="round" transform="matrix(0.525056, 0, 0, 0.524458, 580.494062, 264.937045)" fill-opacity="1" fill="#ffffff" fill-rule="nonzero" stroke-linejoin="round" d="M 53.234778 5.445473 C 53.234778 5.445473 -53.234478 5.445473 -53.234478 5.445473 C -53.234478 5.445473 -53.234478 -5.44374 -53.234478 -5.44374 C -53.234478 -5.44374 53.234778 -5.44374 53.234778 -5.44374 C 53.234778 -5.44374 53.234778 5.445473 53.234778 5.445473 Z M 53.234778 5.445473 " stroke="#253237" stroke-width="2" stroke-opacity="1" stroke-miterlimit="4"/><path stroke-linecap="round" transform="matrix(0.525056, 0, 0, 0.524458, 580.494062, 192.272816)" fill-opacity="1" fill="#7aba59" fill-rule="nonzero" stroke-linejoin="round" d="M 89.160991 17.698018 C 89.160991 17.698018 -89.160691 17.698018 -89.160691 17.698018 C -89.160691 17.698018 -74.958342 -17.703095 -74.958342 -17.703095 C -74.958342 -17.703095 75.427343 -17.703095 75.427343 -17.703095 C 75.427343 -17.703095 89.160991 17.698018 89.160991 17.698018 Z M 89.160991 17.698018 " stroke="#253237" stroke-width="2" stroke-opacity="1" stroke-miterlimit="4"/><path stroke-linecap="round" transform="matrix(0.525056, 0, 0, 0.524458, 580.494062, 207.625805)" fill-opacity="1" fill="#ffffff" fill-rule="nonzero" stroke-linejoin="round" d="M 89.160991 11.57291 C 89.160991 11.57291 -89.160691 11.57291 -89.160691 11.57291 C -89.160691 11.57291 -89.160691 -11.575978 -89.160691 -11.575978 C -89.160691 -11.575978 89.160991 -11.575978 89.160991 -11.575978 C 89.160991 -11.575978 89.160991 11.57291 89.160991 11.57291 Z M 89.160991 11.57291 " stroke="#253237" stroke-width="2" stroke-opacity="1" stroke-miterlimit="4"/><path stroke-linecap="round" transform="matrix(0.525056, 0, 0, 0.524458, 620.620453, 210.968705)" fill-opacity="1" fill="#7aba59" fill-rule="nonzero" stroke-linejoin="round" d="M 12.737953 -17.942536 C 12.737953 -17.942536 12.737953 5.616 12.737953 5.616 C 12.737953 5.764963 12.737953 5.906478 12.723073 6.055441 C 12.492443 12.654513 7.076356 17.942708 0.417843 17.942708 C 0.417843 17.942708 -0.407961 17.942708 -0.407961 17.942708 C -7.066475 17.942708 -12.497441 12.654513 -12.728071 6.055441 C -12.735511 5.906478 -12.735511 5.764963 -12.735511 5.616 C -12.735511 5.616 -12.735511 -17.942536 -12.735511 -17.942536 C -12.735511 -17.942536 12.737953 -17.942536 12.737953 -17.942536 Z M 12.737953 -17.942536 " stroke="#253237" stroke-width="2" stroke-opacity="1" stroke-miterlimit="4"/><path stroke-linecap="round" transform="matrix(0.525056, 0, 0, 0.524458, 607.247196, 210.968705)" fill-opacity="1" fill="#ffffff" fill-rule="nonzero" stroke-linejoin="round" d="M 12.734632 -17.942536 C 12.734632 -17.942536 12.734632 5.616 12.734632 5.616 C 12.734632 5.764963 12.734632 5.906478 12.727193 6.055441 C 12.496563 12.654513 7.073036 17.942708 0.414523 17.942708 C 0.414523 17.942708 -0.403842 17.942708 -0.403842 17.942708 C -7.062355 17.942708 -12.493321 12.654513 -12.723951 6.055441 C -12.731391 5.906478 -12.731391 5.764963 -12.731391 5.616 C -12.731391 5.616 -12.731391 -17.942536 -12.731391 -17.942536 C -12.731391 -17.942536 12.734632 -17.942536 12.734632 -17.942536 Z M 12.734632 -17.942536 " stroke="#253237" stroke-width="2" stroke-opacity="1" stroke-miterlimit="4"/><path stroke-linecap="round" transform="matrix(0.525056, 0, 0, 0.524458, 593.874083, 210.968705)" fill-opacity="1" fill="#7aba59" fill-rule="nonzero" stroke-linejoin="round" d="M 12.738478 -17.942536 C 12.738478 -17.942536 12.738478 5.616 12.738478 5.616 C 12.738478 5.764963 12.738478 5.906478 12.723598 6.055441 C 12.492968 12.654513 7.076881 17.942708 0.418368 17.942708 C 0.418368 17.942708 -0.407436 17.942708 -0.407436 17.942708 C -7.06595 17.942708 -12.496916 12.654513 -12.727546 6.055441 C -12.734985 5.906478 -12.734985 5.764963 -12.734985 5.616 C -12.734985 5.616 -12.734985 -17.942536 -12.734985 -17.942536 C -12.734985 -17.942536 12.738478 -17.942536 12.738478 -17.942536 Z M 12.738478 -17.942536 " stroke="#253237" stroke-width="2" stroke-opacity="1" stroke-miterlimit="4"/><path stroke-linecap="round" transform="matrix(0.525056, 0, 0, 0.524458, 580.494062, 210.968705)" fill-opacity="1" fill="#ffffff" fill-rule="nonzero" stroke-linejoin="round" d="M 12.733162 -17.942536 C 12.733162 -17.942536 12.733162 5.616 12.733162 5.616 C 12.733162 5.764963 12.733162 5.906478 12.725722 6.055441 C 12.495092 12.654513 7.071566 17.942708 0.413052 17.942708 C 0.413052 17.942708 -0.405312 17.942708 -0.405312 17.942708 C -7.063826 17.942708 -12.494792 12.654513 -12.725422 6.055441 C -12.732862 5.906478 -12.732862 5.764963 -12.732862 5.616 C -12.732862 5.616 -12.732862 -17.942536 -12.732862 -17.942536 C -12.732862 -17.942536 12.733162 -17.942536 12.733162 -17.942536 Z M 12.733162 -17.942536 " stroke="#253237" stroke-width="2" stroke-opacity="1" stroke-miterlimit="4"/><path stroke-linecap="round" transform="matrix(0.525056, 0, 0, 0.524458, 567.120877, 210.968705)" fill-opacity="1" fill="#7aba59" fill-rule="nonzero" stroke-linejoin="round" d="M 12.737144 -17.942536 C 12.737144 -17.942536 12.737144 5.616 12.737144 5.616 C 12.737144 5.764963 12.737144 5.906478 12.722265 6.055441 C 12.491635 12.654513 7.075548 17.942708 0.417035 17.942708 C 0.417035 17.942708 -0.40133 17.942708 -0.40133 17.942708 C -7.067283 17.942708 -12.498249 12.654513 -12.721439 6.055441 C -12.736319 5.906478 -12.736319 5.764963 -12.736319 5.616 C -12.736319 5.616 -12.736319 -17.942536 -12.736319 -17.942536 C -12.736319 -17.942536 12.737144 -17.942536 12.737144 -17.942536 Z M 12.737144 -17.942536 " stroke="#253237" stroke-width="2" stroke-opacity="1" stroke-miterlimit="4"/><path stroke-linecap="round" transform="matrix(0.525056, 0, 0, 0.524458, 553.747692, 210.968705)" fill-opacity="1" fill="#ffffff" fill-rule="nonzero" stroke-linejoin="round" d="M 12.733687 -17.942536 C 12.733687 -17.942536 12.733687 5.616 12.733687 5.616 C 12.733687 5.764963 12.733687 5.906478 12.726247 6.055441 C 12.495617 12.654513 7.072091 17.942708 0.413578 17.942708 C 0.413578 17.942708 -0.404787 17.942708 -0.404787 17.942708 C -7.0633 17.942708 -12.494267 12.654513 -12.724897 6.055441 C -12.732336 5.906478 -12.732336 5.764963 -12.732336 5.616 C -12.732336 5.616 -12.732336 -17.942536 -12.732336 -17.942536 C -12.732336 -17.942536 12.733687 -17.942536 12.733687 -17.942536 Z M 12.733687 -17.942536 " stroke="#253237" stroke-width="2" stroke-opacity="1" stroke-miterlimit="4"/><path stroke-linecap="round" transform="matrix(0.525056, 0, 0, 0.524458, 540.36556, 210.968705)" fill-opacity="1" fill="#7aba59" fill-rule="nonzero" stroke-linejoin="round" d="M 12.732392 -17.942536 C 12.732392 -17.942536 12.732392 5.616 12.732392 5.616 C 12.732392 5.764963 12.732392 5.906478 12.724952 6.055441 C 12.494322 12.654513 7.078235 17.942708 0.412282 17.942708 C 0.412282 17.942708 -0.406082 17.942708 -0.406082 17.942708 C -7.064596 17.942708 -12.495562 12.654513 -12.726192 6.055441 C -12.733632 5.906478 -12.733632 5.764963 -12.733632 5.616 C -12.733632 5.616 -12.733632 -17.942536 -12.733632 -17.942536 C -12.733632 -17.942536 12.732392 -17.942536 12.732392 -17.942536 Z M 12.732392 -17.942536 " stroke="#253237" stroke-width="2" stroke-opacity="1" stroke-miterlimit="4"/><path stroke-linecap="round" transform="matrix(0.525056, 0, 0, 0.524458, 543.018209, 192.273356)" fill-opacity="1" fill="#7aba59" fill-rule="nonzero" stroke-linejoin="round" d="M -17.785756 17.704437 C -17.785756 17.704437 7.680267 17.704437 7.680267 17.704437 C 7.680267 17.704437 17.783352 -17.704125 17.783352 -17.704125 C 17.783352 -17.704125 -3.583408 -17.704125 -3.583408 -17.704125 C -3.583408 -17.704125 -17.785756 17.704437 -17.785756 17.704437 Z M -17.785756 17.704437 " stroke="#253237" stroke-width="2" stroke-opacity="1" stroke-miterlimit="4"/><path stroke-linecap="round" transform="matrix(0.525056, 0, 0, 0.524458, 555.205269, 192.273356)" fill-opacity="1" fill="#ffffff" fill-rule="nonzero" stroke-linejoin="round" d="M -15.508376 17.704437 C -15.508376 17.704437 9.957648 17.704437 9.957648 17.704437 C 9.957648 17.704437 15.507649 -17.704125 15.507649 -17.704125 C 15.507649 -17.704125 -5.42761 -17.704125 -5.42761 -17.704125 C -5.42761 -17.704125 -15.508376 17.704437 -15.508376 17.704437 Z M -15.508376 17.704437 " stroke="#253237" stroke-width="2" stroke-opacity="1" stroke-miterlimit="4"/><path stroke-linecap="round" transform="matrix(0.525056, 0, 0, 0.524458, 567.321467, 192.273356)" fill-opacity="1" fill="#7aba59" fill-rule="nonzero" stroke-linejoin="round" d="M -13.118354 17.704437 C -13.118354 17.704437 12.355109 17.704437 12.355109 17.704437 C 12.355109 17.704437 13.113956 -17.704125 13.113956 -17.704125 C 13.113956 -17.704125 -7.568353 -17.704125 -7.568353 -17.704125 C -7.568353 -17.704125 -13.118354 17.704437 -13.118354 17.704437 Z M -13.118354 17.704437 " stroke="#253237" stroke-width="2" stroke-opacity="1" stroke-miterlimit="4"/><path stroke-linecap="round" transform="matrix(0.525056, 0, 0, 0.524458, 580.494062, 192.273356)" fill-opacity="1" fill="#ffffff" fill-rule="nonzero" stroke-linejoin="round" d="M -12.732862 17.704437 C -12.732862 17.704437 12.733162 17.704437 12.733162 17.704437 C 12.733162 17.704437 11.260105 -17.704125 11.260105 -17.704125 C 11.260105 -17.704125 -11.974014 -17.704125 -11.974014 -17.704125 C -11.974014 -17.704125 -12.732862 17.704437 -12.732862 17.704437 Z M -12.732862 17.704437 " stroke="#253237" stroke-width="2" stroke-opacity="1" stroke-miterlimit="4"/><path stroke-linecap="round" transform="matrix(0.525056, 0, 0, 0.524458, 593.483914, 192.273356)" fill-opacity="1" fill="#7aba59" fill-rule="nonzero" stroke-linejoin="round" d="M -12.006764 17.704437 C -12.006764 17.704437 13.481578 17.704437 13.481578 17.704437 C 13.481578 17.704437 9.880773 -17.704125 9.880773 -17.704125 C 9.880773 -17.704125 -13.479821 -17.704125 -13.479821 -17.704125 C -13.479821 -17.704125 -12.006764 17.704437 -12.006764 17.704437 Z M -12.006764 17.704437 " stroke="#253237" stroke-width="2" stroke-opacity="1" stroke-miterlimit="4"/><path stroke-linecap="round" transform="matrix(0.525056, 0, 0, 0.524458, 606.303712, 192.273356)" fill-opacity="1" fill="#ffffff" fill-rule="nonzero" stroke-linejoin="round" d="M -10.934472 17.704437 C -10.934472 17.704437 14.531551 17.704437 14.531551 17.704437 C 14.531551 17.704437 7.679606 -17.704125 7.679606 -17.704125 C 7.679606 -17.704125 -14.535277 -17.704125 -14.535277 -17.704125 C -14.535277 -17.704125 -10.934472 17.704437 -10.934472 17.704437 Z M -10.934472 17.704437 " stroke="#253237" stroke-width="2" stroke-opacity="1" stroke-miterlimit="4"/><path stroke-linecap="round" transform="matrix(0.525056, 0, 0, 0.524458, 580.494062, 181.648874)" fill-opacity="1" fill="#7aba59" fill-rule="nonzero" stroke-linejoin="round" d="M 80.203617 4.594684 C 80.203617 4.594684 -80.203317 4.594684 -80.203317 4.594684 C -80.203317 4.594684 -80.203317 -4.596348 -80.203317 -4.596348 C -80.203317 -4.596348 80.203617 -4.596348 80.203617 -4.596348 C 80.203617 -4.596348 80.203617 4.594684 80.203617 4.594684 Z M 80.203617 4.594684 " stroke="#253237" stroke-width="2" stroke-opacity="1" stroke-miterlimit="4"/><path stroke-linecap="round" transform="matrix(0.525056, 0, 0, 0.524458, 581.246503, 281.950988)" fill="none" stroke-linejoin="round" d="M 94.468274 -47.232169 C 94.468274 4.942205 52.173695 47.232869 -0.000778513 47.232869 C -52.175252 47.232869 -94.469831 4.942205 -94.469831 -47.232169 " stroke="#253237" stroke-width="2" stroke-opacity="1" stroke-miterlimit="4"/><path stroke-linecap="round" transform="matrix(0.525056, 0, 0, 0.524458, 679.599434, 145.963685)" fill-opacity="1" fill="#253237" fill-rule="nonzero" stroke-linejoin="round" d="M 50.556677 0.00220953 C 50.556677 27.917921 27.917732 50.552885 -0.00338575 50.552885 C -27.917064 50.552885 -50.556009 27.917921 -50.556009 0.00220953 C -50.556009 -27.92095 -27.917064 -50.555914 -0.00338575 -50.555914 C 27.917732 -50.555914 50.556677 -27.92095 50.556677 0.00220953 Z M 50.556677 0.00220953 " stroke="#253237" stroke-width="2" stroke-opacity="1" stroke-miterlimit="4"/><path stroke-linecap="round" transform="matrix(0.525056, 0, 0, 0.524458, 676.97677, 143.604137)" fill-opacity="1" fill="#ffffff" fill-rule="nonzero" stroke-linejoin="round" d="M 50.552228 0.00254005 C 50.552228 27.918251 27.920723 50.553215 -0.000395273 50.553215 C -27.921513 50.553215 -50.553019 27.918251 -50.553019 0.00254005 C -50.553019 -27.920619 -27.921513 -50.555583 -0.000395273 -50.555583 C 27.920723 -50.555583 50.552228 -27.920619 50.552228 0.00254005 Z M 50.552228 0.00254005 " stroke="#253237" stroke-width="2" stroke-opacity="1" stroke-miterlimit="4"/><path stroke-linecap="round" transform="matrix(0.525056, 0, 0, 0.524458, 583.681698, 115.3778)" fill-opacity="1" fill="#253237" fill-rule="nonzero" stroke-linejoin="round" d="M 50.556234 0.00210962 C 50.556234 27.917821 27.917289 50.552785 0.0036107 50.552785 C -27.917507 50.552785 -50.556452 27.917821 -50.556452 0.00210962 C -50.556452 -27.92105 -27.917507 -50.556014 0.0036107 -50.556014 C 27.917289 -50.556014 50.556234 -27.92105 50.556234 0.00210962 Z M 50.556234 0.00210962 " stroke="#253237" stroke-width="2" stroke-opacity="1" stroke-miterlimit="4"/><path stroke-linecap="round" transform="matrix(0.525056, 0, 0, 0.524458, 581.246503, 113.22438)" fill-opacity="1" fill="#ffffff" fill-rule="nonzero" stroke-linejoin="round" d="M 50.551845 -0.00328767 C 50.551845 27.919872 27.920339 50.554836 -0.000778513 50.554836 C -27.921896 50.554836 -50.553402 27.919872 -50.553402 -0.00328767 C -50.553402 -27.918999 -27.921896 -50.553963 -0.000778513 -50.553963 C 27.920339 -50.553963 50.551845 -27.918999 50.551845 -0.00328767 Z M 50.551845 -0.00328767 " stroke="#253237" stroke-width="2" stroke-opacity="1" stroke-miterlimit="4"/><path stroke-linecap="round" transform="matrix(0.525056, 0, 0, 0.524458, 716.264674, 259.268699)" fill-opacity="1" fill="#253237" fill-rule="nonzero" stroke-linejoin="round" d="M 50.554434 0.00158782 C 50.554434 27.917299 27.922929 50.552263 0.00181082 50.552263 C -27.919307 50.552263 -50.550813 27.917299 -50.550813 0.00158782 C -50.550813 -27.921571 -27.919307 -50.556536 0.00181082 -50.556536 C 27.922929 -50.556536 50.554434 -27.921571 50.554434 0.00158782 Z M 50.554434 0.00158782 " stroke="#253237" stroke-width="2" stroke-opacity="1" stroke-miterlimit="4"/><path stroke-linecap="round" transform="matrix(0.525056, 0, 0, 0.524458, 714.09666, 257.178743)" fill-opacity="1" fill="#ffffff" fill-rule="nonzero" stroke-linejoin="round" d="M 50.55452 0.0018017 C 50.55452 27.917513 27.923014 50.552477 0.00189667 50.552477 C -27.919221 50.552477 -50.550727 27.917513 -50.550727 0.0018017 C -50.550727 -27.921357 -27.919221 -50.556322 0.00189667 -50.556322 C 27.923014 -50.556322 50.55452 -27.921357 50.55452 0.0018017 Z M 50.55452 0.0018017 " stroke="#253237" stroke-width="2" stroke-opacity="1" stroke-miterlimit="4"/><path stroke-linecap="round" transform="matrix(0.525056, 0, 0, 0.524458, 678.725756, 373.440668)" fill-opacity="1" fill="#253237" fill-rule="nonzero" stroke-linejoin="round" d="M 50.554159 0.00140741 C 50.554159 27.917118 27.922653 50.552083 0.00153529 50.552083 C -27.919583 50.552083 -50.551088 27.917118 -50.551088 0.00140741 C -50.551088 -27.921752 -27.919583 -50.556716 0.00153529 -50.556716 C 27.922653 -50.556716 50.554159 -27.921752 50.554159 0.00140741 Z M 50.554159 0.00140741 " stroke="#253237" stroke-width="2" stroke-opacity="1" stroke-miterlimit="4"/><path stroke-linecap="round" transform="matrix(0.525056, 0, 0, 0.524458, 676.97677, 370.753816)" fill-opacity="1" fill="#ffffff" fill-rule="nonzero" stroke-linejoin="round" d="M 50.552228 0.000171446 C 50.552228 27.923331 27.920723 50.550847 -0.000395273 50.550847 C -27.921513 50.550847 -50.553019 27.923331 -50.553019 0.000171446 C -50.553019 -27.922988 -27.921513 -50.550504 -0.000395273 -50.550504 C 27.920723 -50.550504 50.552228 -27.922988 50.552228 0.000171446 Z M 50.552228 0.000171446 " stroke="#253237" stroke-width="2" stroke-opacity="1" stroke-miterlimit="4"/><path stroke-linecap="round" transform="matrix(0.525056, 0, 0, 0.524458, 583.302011, 403.422864)" fill-opacity="1" fill="#253237" fill-rule="nonzero" stroke-linejoin="round" d="M 50.550281 -0.00188551 C 50.550281 27.921274 27.918775 50.556238 -0.00234261 50.556238 C -27.92346 50.556238 -50.554966 27.921274 -50.554966 -0.00188551 C -50.554966 -27.917597 -27.92346 -50.552561 -0.00234261 -50.552561 C 27.918775 -50.552561 50.550281 -27.917597 50.550281 -0.00188551 Z M 50.550281 -0.00188551 " stroke="#253237" stroke-width="2" stroke-opacity="1" stroke-miterlimit="4"/><path stroke-linecap="round" transform="matrix(0.525056, 0, 0, 0.524458, 581.246503, 401.133618)" fill-opacity="1" fill="#ffffff" fill-rule="nonzero" stroke-linejoin="round" d="M 50.551845 -0.00153591 C 50.551845 27.921623 27.920339 50.556587 -0.000778513 50.556587 C -27.921896 50.556587 -50.553402 27.921623 -50.553402 -0.00153591 C -50.553402 -27.917247 -27.921896 -50.552211 -0.000778513 -50.552211 C 27.920339 -50.552211 50.551845 -27.917247 50.551845 -0.00153591 Z M 50.551845 -0.00153591 " stroke="#253237" stroke-width="2" stroke-opacity="1" stroke-miterlimit="4"/><path stroke-linecap="round" transform="matrix(0.524651, 0.0205893, -0.0206128, 0.524054, 676.977106, 143.604547)" fill-opacity="1" fill="#ffffff" fill-rule="nonzero" stroke-linejoin="round" d="M 33.608846 7.991248 C 33.608846 7.991248 33.613822 -7.990126 33.613822 -7.990126 C 33.613822 -7.990126 25.125967 -7.992077 25.125967 -7.992077 C 24.675242 -9.420426 24.099894 -10.799156 23.415377 -12.113966 C 23.415377 -12.113966 29.418704 -18.119153 29.418704 -18.119153 C 29.418704 -18.119153 18.119479 -29.415127 18.119479 -29.415127 C 18.119479 -29.415127 12.11586 -23.417383 12.11586 -23.417383 C 10.801132 -24.096212 9.4233 -24.675662 7.990967 -25.126253 C 7.990967 -25.126253 7.992449 -33.616312 7.992449 -33.616312 C 7.992449 -33.616312 -7.992793 -33.614404 -7.992793 -33.614404 C -7.992793 -33.614404 -7.994567 -25.131787 -7.994567 -25.131787 C -9.420963 -24.673235 -10.80551 -24.097065 -12.111332 -23.412179 C -12.111332 -23.412179 -18.11738 -29.415131 -18.11738 -29.415131 C -18.11738 -29.415131 -29.422408 -18.118083 -29.422408 -18.118083 C -29.422408 -18.118083 -23.41636 -12.115131 -23.41636 -12.115131 C -24.101735 -10.798677 -24.672969 -9.419623 -25.130648 -7.992853 C -25.130648 -7.992853 -33.611069 -7.995096 -33.611069 -7.995096 C -33.611069 -7.995096 -33.608319 7.993428 -33.608319 7.993428 C -33.608319 7.993428 -25.127897 7.995671 -25.127897 7.995671 C -24.669738 9.423729 -24.101824 10.802751 -23.417599 12.110118 C -23.417599 12.110118 -29.420926 18.115305 -29.420926 18.115305 C -29.420926 18.115305 -18.121409 29.418722 -18.121409 29.418722 C -18.121409 29.418722 -12.118082 23.413535 -12.118082 23.413535 C -10.803062 24.099807 -9.425522 24.671813 -7.992897 25.129847 C -7.992897 25.129847 -7.994671 33.612464 -7.994671 33.612464 C -7.994671 33.612464 7.99057 33.610556 7.99057 33.610556 C 7.99057 33.610556 7.992344 25.127939 7.992344 25.127939 C 9.426466 24.676537 10.80358 24.100659 12.116836 23.415481 C 12.116836 23.415481 18.115449 29.418725 18.115449 29.418725 C 18.115449 29.418725 29.420185 18.114235 29.420185 18.114235 C 29.420185 18.114235 23.414138 12.111283 23.414138 12.111283 C 24.099805 10.802272 24.671039 9.423218 25.128717 7.996448 C 25.128717 7.996448 33.608846 7.991248 33.608846 7.991248 Z M 11.93633 0.628523 C 11.786962 3.459422 10.659193 6.023151 8.882703 7.993694 C 8.604475 8.302781 8.303653 8.605302 7.99452 8.885788 C 6.016561 10.655537 3.455031 11.784815 0.631594 11.933013 C 0.423444 11.941191 0.215293 11.949369 -0.000583549 11.950396 C -0.209319 11.943689 -0.417762 11.944425 -0.626789 11.930276 C -3.454196 11.787927 -6.015116 10.658647 -7.990721 8.887697 C -8.307209 8.601975 -8.601688 8.307934 -8.882175 7.990982 C -10.657233 6.018351 -11.785458 3.45381 -11.93374 0.627151 C -11.941927 0.418763 -11.950115 0.210375 -11.950868 0.00169519 C -11.951914 -0.214427 -11.944941 -0.415957 -11.931118 -0.632663 C -11.788892 -3.455828 -10.661123 -6.019557 -8.884633 -7.990099 C -8.599264 -8.306921 -8.305583 -8.601708 -7.989016 -8.882486 C -6.018783 -10.659385 -3.44982 -11.788955 -0.62609 -11.929711 C -0.418232 -11.945331 -0.209789 -11.946066 -0.00134661 -11.946802 C 0.21453 -11.94783 0.423265 -11.941123 0.632001 -11.934416 C 3.452266 -11.784333 6.020327 -10.662788 7.988791 -8.884103 C 8.304987 -8.605823 8.599757 -8.30434 8.887387 -7.995123 C 10.65501 -6.022199 11.790669 -3.45795 11.931518 -0.630999 C 11.939997 -0.415168 11.947892 -0.214223 11.948938 0.00189916 C 11.949691 0.210579 11.94301 0.419551 11.93633 0.628523 Z M 11.93633 0.628523 " stroke="#253237" stroke-width="2" stroke-opacity="1" stroke-miterlimit="4"/><path stroke-linecap="round" transform="matrix(0.525056, 0, 0, 0.524458, 582.181206, 112.666444)" fill-opacity="1" fill="#ffffff" fill-rule="nonzero" stroke-linejoin="round" d="M 26.266616 29.08798 C 26.266616 29.08798 -26.264962 29.08798 -26.264962 29.08798 C -26.264962 29.08798 -26.264962 -29.082165 -26.264962 -29.082165 C -26.264962 -29.082165 26.266616 -29.082165 26.266616 -29.082165 C 26.266616 -29.082165 26.266616 29.08798 26.266616 29.08798 Z M 26.266616 29.08798 " stroke="#253237" stroke-width="2" stroke-opacity="1" stroke-miterlimit="4"/><path stroke-linecap="round" transform="matrix(0.525056, 0, 0, 0.524458, 582.181206, 106.069285)" fill-opacity="1" fill="#7aba59" fill-rule="nonzero" stroke-linejoin="round" d="M -26.264962 -16.503167 C -26.264962 -16.503167 -26.264962 -9.055005 -26.264962 -9.055005 C -26.264962 -9.055005 -25.952495 -8.883698 -25.952495 -8.883698 C -21.600283 -6.530078 -18.624411 -2.210145 -18.029236 2.698194 C -16.355309 16.529431 -9.019784 12.902176 -9.183457 0.322231 C -10.001822 -4.951068 -3.54418 -6.127878 -3.179636 -1.942011 C -3.283791 6.608479 4.34932 6.697857 4.453475 -1.852633 C 4.453475 -5.032998 6.759776 -7.751577 9.899321 -8.235708 C 15.523719 -9.092246 20.962125 -12.086407 26.266616 -16.503167 C 26.266616 -16.503167 -26.264962 -16.503167 -26.264962 -16.503167 Z M -26.264962 -16.503167 " stroke="#253237" stroke-width="2" stroke-opacity="1" stroke-miterlimit="4"/><path stroke-linecap="round" transform="matrix(0.525056, 0, 0, 0.524458, 591.227407, 106.262285)" fill-opacity="1" fill="#253237" fill-rule="nonzero" stroke-linejoin="round" d="M 2.862668 -0.00107966 C 2.862668 1.577931 1.583043 2.866463 -0.00160837 2.866463 C -1.57882 2.866463 -2.865885 1.577931 -2.865885 -0.00107966 C -2.865885 -1.58009 -1.57882 -2.861174 -0.00160837 -2.861174 C 1.583043 -2.861174 2.862668 -1.58009 2.862668 -0.00107966 Z M 2.862668 -0.00107966 " stroke="#253237" stroke-width="1" stroke-opacity="1" stroke-miterlimit="4"/><path stroke-linecap="round" transform="matrix(0.525056, 0, 0, 0.524458, 577.087676, 114.906929)" fill="none" stroke-linejoin="round" d="M -16.564039 -21.265797 C -16.564039 -21.265797 -23.386225 3.678098 -23.386225 3.678098 C -26.927513 19.766127 16.423501 21.270656 20.924507 5.592275 C 20.924507 5.592275 26.928329 -16.484077 26.928329 -16.484077 " stroke="#253237" stroke-width="2" stroke-opacity="1" stroke-miterlimit="4"/><path stroke-linecap="round" transform="matrix(0.36783, 0, 0, 0.367411, 714.0969, 250.711391)" fill-opacity="1" fill="#ffffff" fill-rule="nonzero" stroke-linejoin="round" d="M 15.262578 -0.00123485 C 15.262578 8.429795 8.434104 15.255421 0.00205523 15.255421 C -8.429994 15.255421 -15.258467 8.429795 -15.258467 -0.00123485 C -15.258467 -8.432265 -8.429994 -15.257891 0.00205523 -15.257891 C 8.434104 -15.257891 15.262578 -8.432265 15.262578 -0.00123485 Z M 15.262578 -0.00123485 " stroke="#253237" stroke-width="2" stroke-opacity="1" stroke-miterlimit="4"/><path stroke-linecap="round" transform="matrix(0.36783, 0, 0, 0.367411, 714.0969, 263.00132)" fill-opacity="1" fill="#ffffff" fill-rule="nonzero" stroke-linejoin="round" d="M 25.914146 15.742127 C 25.914146 15.742127 -25.910036 15.742127 -25.910036 15.742127 C -25.910036 15.742127 -25.910036 10.171055 -25.910036 10.171055 C -25.910036 -4.139369 -14.313313 -15.73868 0.00205523 -15.73868 C 14.306804 -15.73868 25.914146 -4.139369 25.914146 10.171055 C 25.914146 10.171055 25.914146 15.742127 25.914146 15.742127 Z M 25.914146 15.742127 " stroke="#253237" stroke-width="2" stroke-opacity="1" stroke-miterlimit="4"/><path stroke-linecap="round" transform="matrix(0.36783, 0, 0, 0.367411, 714.082123, 246.383308)" fill-opacity="1" fill="#7aba59" fill-rule="nonzero" stroke-linejoin="round" d="M 16.184186 3.709154 C 16.184186 3.709154 16.184186 8.971903 16.184186 8.971903 C 16.184186 8.971903 -16.184688 8.971903 -16.184688 8.971903 C -16.184688 8.971903 -16.184688 3.709154 -16.184688 3.709154 C -16.184688 -1.46854 -11.565114 -5.646844 -5.86233 -5.646844 C -5.86233 -5.646844 -3.908304 -5.646844 -3.908304 -5.646844 C -3.908304 -5.646844 -3.908304 -8.974603 -3.908304 -8.974603 C -3.908304 -8.974603 3.62107 -8.974603 3.62107 -8.974603 C 3.62107 -8.974603 3.62107 -5.646844 3.62107 -5.646844 C 3.62107 -5.646844 5.861829 -5.646844 5.861829 -5.646844 C 11.564613 -5.646844 16.184186 -1.46854 16.184186 3.709154 Z M 16.184186 3.709154 " stroke="#253237" stroke-width="1" stroke-opacity="1" stroke-miterlimit="4"/><path stroke-linecap="round" transform="matrix(0.36783, 0, 0, 0.367411, 711.70486, 245.242123)" fill="none" stroke-linejoin="round" d="M 2.544014 -2.540829 C 2.544014 -2.540829 2.544014 2.541179 2.544014 2.541179 C 2.544014 2.541179 -2.553447 -2.083661 -2.553447 -2.083661 " stroke="#253237" stroke-width="1" stroke-opacity="1" stroke-miterlimit="4"/><path stroke-linecap="round" transform="matrix(0.36783, 0, 0, 0.367411, 716.351296, 245.242123)" fill="none" stroke-linejoin="round" d="M -2.548006 -2.540829 C -2.548006 -2.540829 -2.548006 2.541179 -2.548006 2.541179 C -2.548006 2.541179 2.549455 -2.083661 2.549455 -2.083661 " stroke="#253237" stroke-width="1" stroke-opacity="1" stroke-miterlimit="4"/><path stroke-linecap="round" transform="matrix(0.36783, 0, 0, 0.367411, 702.727625, 242.167246)" fill="none" stroke-linejoin="round" d="M 14.694788 17.735835 C 14.694788 17.735835 47.042423 17.735835 47.042423 17.735835 " stroke="#253237" stroke-width="0.25" stroke-opacity="1" stroke-miterlimit="4"/><path stroke-linecap="round" transform="matrix(0.36783, 0, 0, 0.367411, 714.045709, 249.332503)" fill-opacity="1" fill="#7aba59" fill-rule="nonzero" stroke-linejoin="round" d="M 17.50445 1.763596 C 17.50445 1.763596 -17.498112 1.763596 -17.498112 1.763596 C -17.498112 1.763596 -17.498112 -1.766167 -17.498112 -1.766167 C -17.498112 -1.766167 17.50445 -1.766167 17.50445 -1.766167 C 17.50445 -1.766167 17.50445 1.763596 17.50445 1.763596 Z M 17.50445 1.763596 " stroke="#253237" stroke-width="1" stroke-opacity="1" stroke-miterlimit="4"/><path stroke-linecap="round" transform="matrix(0.521173, 0.0636637, -0.0637363, 0.52058, 675.892955, 365.726465)" fill-opacity="1" fill="#7aba59" fill-rule="nonzero" stroke-linejoin="round" d="M -28.561417 28.555266 C -28.561417 28.555266 28.560037 -28.554724 28.560037 -28.554724 C 28.560037 -28.554724 28.558848 28.555714 28.558848 28.555714 C 28.558848 28.555714 -28.561417 28.555266 -28.561417 28.555266 Z M -28.561417 28.555266 " stroke="#253237" stroke-width="2" stroke-opacity="1" stroke-miterlimit="4"/><path stroke-linecap="round" transform="matrix(0.521173, 0.0636637, -0.0637363, 0.52058, 680.003421, 369.646584)" fill-opacity="1" fill="#ffffff" fill-rule="nonzero" stroke-linejoin="round" d="M -9.469237 9.468131 C -9.469237 9.468131 9.463641 -9.46783 9.463641 -9.46783 C 9.463641 -9.46783 9.462895 9.463974 9.462895 9.463974 C 9.462895 9.463974 -9.469237 9.468131 -9.469237 9.468131 Z M -9.469237 9.468131 " stroke="#253237" stroke-width="2" stroke-opacity="1" stroke-miterlimit="4"/><path stroke-linecap="round" transform="matrix(0.521173, 0.0636637, -0.0637363, 0.52058, 660.542319, 346.120429)" fill="none" stroke-linejoin="round" d="M 16.914429 62.118983 C 16.914429 62.118983 16.909645 59.628356 16.909645 59.628356 " stroke="#253237" stroke-width="2" stroke-opacity="1" stroke-miterlimit="4"/><path stroke-linecap="round" transform="matrix(0.521173, 0.0636637, -0.0637363, 0.52058, 660.542319, 346.120429)" fill="none" stroke-linejoin="round" d="M 23.089805 62.114139 C 23.089805 62.114139 23.09331 59.630001 23.09331 59.630001 " stroke="#253237" stroke-width="2" stroke-opacity="1" stroke-miterlimit="4"/><path stroke-linecap="round" transform="matrix(0.521173, 0.0636637, -0.0637363, 0.52058, 660.542319, 346.120429)" fill="none" stroke-linejoin="round" d="M 29.273469 62.115784 C 29.273469 62.115784 29.26959 59.632549 29.26959 59.632549 " stroke="#253237" stroke-width="2" stroke-opacity="1" stroke-miterlimit="4"/><path stroke-linecap="round" transform="matrix(0.521173, 0.0636637, -0.0637363, 0.52058, 660.542319, 346.120429)" fill="none" stroke-linejoin="round" d="M 35.449749 62.118332 C 35.449749 62.118332 35.453254 59.634195 35.453254 59.634195 " stroke="#253237" stroke-width="2" stroke-opacity="1" stroke-miterlimit="4"/><path stroke-linecap="round" transform="matrix(0.521173, 0.0636637, -0.0637363, 0.52058, 660.542319, 346.120429)" fill="none" stroke-linejoin="round" d="M 41.63251 62.112584 C 41.63251 62.112584 41.62863 59.62935 41.62863 59.62935 " stroke="#253237" stroke-width="2" stroke-opacity="1" stroke-miterlimit="4"/><path stroke-linecap="round" transform="matrix(0.521173, 0.0636637, -0.0637363, 0.52058, 660.542319, 346.120429)" fill="none" stroke-linejoin="round" d="M 47.808789 62.115132 C 47.808789 62.115132 47.812294 59.630995 47.812294 59.630995 " stroke="#253237" stroke-width="2" stroke-opacity="1" stroke-miterlimit="4"/><path stroke-linecap="round" transform="matrix(0.521173, 0.0636637, -0.0637363, 0.52058, 660.542319, 346.120429)" fill="none" stroke-linejoin="round" d="M 53.992454 62.116778 C 53.992454 62.116778 53.988574 59.633543 53.988574 59.633543 " stroke="#253237" stroke-width="2" stroke-opacity="1" stroke-miterlimit="4"/><path stroke-linecap="round" transform="matrix(0.525056, 0, 0, 0.524458, 581.084749, 399.602431)" fill-opacity="1" fill="#ffffff" fill-rule="nonzero" stroke-linejoin="round" d="M 28.950056 -2.362723 C 28.950056 5.904736 25.483166 13.360347 19.933165 18.633645 C 15.893418 22.819512 12.664597 27.027724 12.218217 31.310417 C 12.218217 31.310417 -12.24345 31.310417 -12.24345 31.310417 C -12.71215 26.84152 -16.18648 22.462001 -20.471736 18.104826 C -20.486615 18.089929 -20.501494 18.075033 -20.523814 18.052689 C -25.731589 12.816631 -28.945531 5.60681 -28.945531 -2.362723 C -28.945531 -18.353927 -15.985609 -31.306281 0.00226269 -31.306281 C 15.990134 -31.306281 28.950056 -18.353927 28.950056 -2.362723 Z M 28.950056 -2.362723 " stroke="#253237" stroke-width="2" stroke-opacity="1" stroke-miterlimit="4"/><path stroke-linecap="round" transform="matrix(0.525056, 0, 0, 0.524458, 581.105715, 406.179119)" fill="none" stroke-linejoin="round" d="M -4.129492 19.83554 C -3.452481 10.830712 -3.296248 1.773747 -3.668232 -7.245977 C -3.831904 -11.059436 -4.092293 -14.939928 -5.386798 -18.470357 C -5.862937 -19.751441 -6.807776 -21.17404 -8.057643 -20.92825 C -8.853688 -20.771839 -9.433983 -19.9153 -9.530699 -19.036417 C -9.627415 -18.157534 -9.329828 -17.286099 -8.905766 -16.533835 C -7.782374 -14.537727 -5.818299 -13.264092 -3.794706 -12.482035 C -1.696716 -11.677633 0.579826 -11.320121 2.781971 -11.737218 C 4.991556 -12.146867 7.104425 -13.360918 8.495645 -15.289992 C 9.135457 -16.183771 9.626476 -17.300995 9.455363 -18.410772 C 9.284251 -19.520548 8.212937 -20.473912 7.238339 -20.108953 C 6.844036 -19.959989 6.52413 -19.63227 6.263741 -19.274758 C 5.281703 -17.934089 4.991556 -16.153979 4.798124 -14.448349 C 3.436663 -2.643013 4.969237 9.348528 3.816086 21.176209 " stroke="#253237" stroke-width="2" stroke-opacity="1" stroke-miterlimit="4"/><path stroke-linecap="butt" transform="matrix(0.525056, 0, 0, 0.524458, 581.019621, 417.051692)" fill-opacity="1" fill="#7aba59" fill-rule="nonzero" stroke-linejoin="miter" d="M 12.721681 1.964578 C 12.721681 1.964578 -12.722024 1.964578 -12.722024 1.964578 C -12.722024 1.964578 -12.722024 -1.960603 -12.722024 -1.960603 C -12.722024 -1.960603 12.721681 -1.960603 12.721681 -1.960603 C 12.721681 -1.960603 12.721681 1.964578 12.721681 1.964578 Z M 12.721681 1.964578 " stroke="#253237" stroke-width="2" stroke-opacity="1" stroke-miterlimit="10"/><path stroke-linecap="butt" transform="matrix(0.525056, 0, 0, 0.524458, 581.019621, 420.979895)" fill-opacity="1" fill="#7aba59" fill-rule="nonzero" stroke-linejoin="miter" d="M 12.721681 1.959961 C 12.721681 1.959961 -12.722024 1.959961 -12.722024 1.959961 C -12.722024 1.959961 -12.722024 -1.957772 -12.722024 -1.957772 C -12.722024 -1.957772 12.721681 -1.957772 12.721681 -1.957772 C 12.721681 -1.957772 12.721681 1.959961 12.721681 1.959961 Z M 12.721681 1.959961 " stroke="#253237" stroke-width="2" stroke-opacity="1" stroke-miterlimit="10"/><path stroke-linecap="butt" transform="matrix(0.525056, 0, 0, 0.524458, 581.019621, 419.016837)" fill-opacity="1" fill="#7aba59" fill-rule="nonzero" stroke-linejoin="miter" d="M 13.510287 1.785248 C 13.510287 1.785248 -13.51063 1.785248 -13.51063 1.785248 C -13.51063 1.785248 -13.51063 -1.782421 -13.51063 -1.782421 C -13.51063 -1.782421 13.510287 -1.782421 13.510287 -1.782421 C 13.510287 -1.782421 13.510287 1.785248 13.510287 1.785248 Z M 13.510287 1.785248 " stroke="#253237" stroke-width="2" stroke-opacity="1" stroke-miterlimit="10"/><path stroke-linecap="butt" transform="matrix(0.525056, 0, 0, 0.524458, 581.020149, 423.035235)" fill-opacity="1" fill="#7aba59" fill-rule="nonzero" stroke-linejoin="miter" d="M 11.277378 1.958716 C 11.277378 1.958716 -11.279731 1.958716 -11.279731 1.958716 C -11.279731 1.958716 -11.279731 -1.959017 -11.279731 -1.959017 C -11.279731 -1.959017 11.277378 -1.959017 11.277378 -1.959017 C 11.277378 -1.959017 11.277378 1.958716 11.277378 1.958716 Z M 11.277378 1.958716 " stroke="#253237" stroke-width="2" stroke-opacity="1" stroke-miterlimit="10"/><path stroke-linecap="round" transform="matrix(0.525056, 0, 0, 0.524458, 464.747004, 367.158912)" fill-opacity="1" fill="#ffffff" fill-rule="nonzero" stroke-linejoin="round" d="M -54.274197 -26.714184 C -54.274197 -26.714184 -20.832837 115.069027 -20.832837 115.069027 C -10.201535 156.398878 56.934135 139.134038 46.310272 97.804188 C 32.204639 3.17529 13.940226 -80.512258 -7.29262 -156.40158 C -40.696782 -131.3981 -56.937602 -88.764821 -54.274197 -26.714184 Z M -54.274197 -26.714184 " stroke="#253237" stroke-width="2" stroke-opacity="1" stroke-miterlimit="4"/><path stroke-linecap="round" transform="matrix(0.525056, 0, 0, 0.524458, 390.830648, 354.193228)" fill-opacity="1" fill="#ffffff" fill-rule="nonzero" stroke-linejoin="round" d="M 135.918143 -130.733612 C 110.481878 -146.374753 85.58871 -159.982544 61.759416 -169.590673 C 61.759416 -169.590673 -50.103608 -178.699775 -50.103608 -178.699775 C -79.78049 -167.423258 -108.609249 -153.726088 -135.920313 -135.671744 C -135.920313 -135.671744 -78.716616 168.056853 -78.716616 168.056853 C -3.657688 178.052286 56.440045 178.700276 94.41217 165.524478 C 94.41217 165.524478 135.918143 -130.733612 135.918143 -130.733612 Z M 135.918143 -130.733612 " stroke="#253237" stroke-width="2" stroke-opacity="1" stroke-miterlimit="4"/><path stroke-linecap="round" transform="matrix(0.525056, 0, 0, 0.524458, 401.55756, 364.961428)" fill-opacity="1" fill="#ffffff" fill-rule="nonzero" stroke-linejoin="round" d="M -7.720418 -154.959945 C 5.187426 -38.552622 7.716918 64.947036 -0.608084 154.958074 " stroke="#253237" stroke-width="2" stroke-opacity="1" stroke-miterlimit="4"/><path stroke-linecap="butt" transform="matrix(0.525056, 0, 0, 0.524458, 391.779404, 255.478129)" fill-opacity="1" fill="#ffffff" fill-rule="nonzero" stroke-linejoin="miter" d="M -37.678462 -57.4879 C -37.678462 -57.4879 -34.077657 -5.536971 -34.077657 -5.536971 C -34.077657 -5.536971 17.55372 57.489376 17.55372 57.489376 C 17.55372 57.489376 37.678054 19.898503 37.678054 19.898503 C 37.678054 19.898503 37.678054 -30.212731 37.678054 -30.212731 C 37.678054 -30.212731 -37.678462 -57.4879 -37.678462 -57.4879 Z M -37.678462 -57.4879 " stroke="#253237" stroke-width="2" stroke-opacity="1" stroke-miterlimit="10"/><path stroke-linecap="round" transform="matrix(0.525056, 0, 0, 0.524458, 391.779404, 241.181932)" fill-opacity="1" fill="#253237" fill-rule="nonzero" stroke-linejoin="round" d="M 36.115721 2.99733 C 36.115721 2.99733 36.115721 20.753748 36.115721 20.753748 C -2.451579 21.498564 -21.675711 5.045574 -36.116129 -21.499675 C -11.684221 -4.190147 10.649697 3.406979 36.115721 2.99733 Z M 36.115721 2.99733 " stroke="#253237" stroke-width="2" stroke-opacity="1" stroke-miterlimit="4"/><path stroke-linecap="round" transform="matrix(0.525056, 0, 0, 0.524458, 378.902974, 268.171073)" fill-opacity="1" fill="#ffffff" fill-rule="nonzero" stroke-linejoin="round" d="M 42.077629 33.287366 C 42.077629 33.287366 15.376618 18.48042 15.376618 18.48042 C 15.376618 18.48042 0.445181 39.737474 0.445181 39.737474 C 0.445181 39.737474 -42.080028 -17.211172 -42.080028 -17.211172 C -42.080028 -17.211172 -21.070373 -39.734414 -21.070373 -39.734414 C -21.070373 -39.734414 -10.245639 -39.734414 -10.245639 -39.734414 C -10.245639 -39.734414 -9.553748 -29.738981 -9.553748 -29.738981 C -9.553748 -29.738981 42.077629 33.287366 42.077629 33.287366 Z M 42.077629 33.287366 " stroke="#253237" stroke-width="2" stroke-opacity="1" stroke-miterlimit="4"/><path stroke-linecap="round" transform="matrix(0.525056, 0, 0, 0.524458, 412.127463, 273.348)" fill-opacity="1" fill="#ffffff" fill-rule="nonzero" stroke-linejoin="round" d="M -21.200338 23.416365 C -21.200338 23.416365 -2.638337 11.640821 -2.638337 11.640821 C -2.638337 11.640821 17.910058 32.398849 17.910058 32.398849 C 17.910058 32.398849 21.198396 -15.440696 21.198396 -15.440696 C 21.198396 -15.440696 -1.076005 -32.40016 -1.076005 -32.40016 C -1.076005 -32.40016 -1.076005 -14.174508 -1.076005 -14.174508 C -1.076005 -14.174508 -21.200338 23.416365 -21.200338 23.416365 Z M -21.200338 23.416365 " stroke="#253237" stroke-width="2" stroke-opacity="1" stroke-miterlimit="4"/><path stroke-linecap="round" transform="matrix(0.525056, 0, 0, 0.524458, 394.485583, 453.181585)" fill-opacity="1" fill="#253237" fill-rule="nonzero" stroke-linejoin="round" d="M 87.451133 -23.21954 C 87.451133 -23.21954 87.451133 7.027446 87.451133 7.027446 C 34.294622 23.212302 -24.64252 21.223643 -87.448296 7.027446 C -87.448296 7.027446 -85.677652 -20.687165 -85.677652 -20.687165 C -18.467586 -10.431046 40.261245 -10.095878 87.451133 -23.21954 Z M 87.451133 -23.21954 " stroke="#253237" stroke-width="2" stroke-opacity="1" stroke-miterlimit="4"/><path stroke-linecap="round" transform="matrix(0.525056, 0, 0, 0.524458, 394.053429, 475.861244)" fill-opacity="1" fill="#253237" fill-rule="nonzero" stroke-linejoin="round" d="M 94.047387 36.2094 C 94.047387 36.2094 -94.042595 36.2094 -94.042595 36.2094 C -94.042595 36.2094 -90.984886 6.372063 -90.984886 6.372063 C -90.984886 6.372063 -86.625234 -36.209079 -86.625234 -36.209079 C -86.625234 -36.209079 88.274196 -36.209079 88.274196 -36.209079 C 88.274196 -36.209079 91.666689 6.372063 91.666689 6.372063 C 91.666689 6.372063 94.047387 36.2094 94.047387 36.2094 Z M 94.047387 36.2094 " stroke="#253237" stroke-width="2" stroke-opacity="1" stroke-miterlimit="4"/><path stroke-linecap="round" transform="matrix(0.525056, 0, 0, 0.524458, 308.462989, 365.143449)" fill-opacity="1" fill="#ffffff" fill-rule="nonzero" stroke-linejoin="round" d="M 58.196707 -23.04255 C 58.196707 -23.04255 13.677664 115.66457 13.677664 115.66457 C -0.175019 156.02616 -65.748356 133.517815 -51.888233 93.156225 C -30.372679 -0.06497 -5.561347 -82.046889 21.593483 -156.029481 C 52.921974 -128.471282 65.747982 -84.690986 58.196707 -23.04255 Z M 58.196707 -23.04255 " stroke="#253237" stroke-width="2" stroke-opacity="1" stroke-miterlimit="4"/><path stroke-linecap="butt" transform="matrix(0.525056, 0, 0, 0.524458, 524.089936, 309.803117)" fill-opacity="1" fill="#ffffff" fill-rule="nonzero" stroke-linejoin="miter" d="M -38.522837 29.281718 C -37.838386 12.895762 -33.813519 -3.728535 -28.241199 -20.464555 C -27.482352 -22.728797 -26.217606 -24.851523 -24.387445 -26.393292 C -21.426453 -28.910771 -18.316667 -29.029942 -15.095285 -27.160453 C -10.385968 -24.426978 -8.25078 -18.721685 -9.448568 -13.411146 C -9.448568 -13.411146 -13.696626 5.432704 -13.696626 5.432704 C -8.183823 0.360505 -3.675377 -5.337338 0.11142 -11.504417 C 4.99185 -19.451605 6.442587 -29.052286 4.567788 -38.183733 C 4.545469 -38.280559 4.53059 -38.369937 4.508271 -38.466763 C 2.745067 -47.024701 11.95539 -53.653565 19.506665 -49.244253 C 20.384547 -48.73033 21.25499 -48.171718 22.117992 -47.560969 C 33.143598 -39.755295 38.522486 -26.177296 36.870877 -12.778052 C 35.501976 -1.732428 31.536627 9.603674 23.598489 21.37177 C 23.598489 21.37177 -3.005806 53.652104 -3.005806 53.652104 C -3.005806 53.652104 -38.522837 29.281718 -38.522837 29.281718 Z M -38.522837 29.281718 " stroke="#253237" stroke-width="2" stroke-opacity="1" stroke-miterlimit="10"/><path fill="#ffffff" d="M 489.277344 432.554688 C 481.761719 453.074219 447.578125 440.582031 455.09375 420.0625 C 455.09375 420.0625 502.222656 320.804688 502.222656 320.804688 C 502.222656 320.804688 527.070312 335.46875 527.070312 335.46875 C 527.070312 335.46875 489.277344 432.554688 489.277344 432.554688 Z M 489.277344 432.554688 " fill-opacity="1" fill-rule="nonzero"/><path stroke-linecap="butt" transform="matrix(0.525056, 0, 0, 0.524458, 508.175455, 376.679908)" fill="none" stroke-linejoin="miter" d="M -11.337451 -106.538929 C -11.337451 -106.538929 35.986351 -78.578529 35.986351 -78.578529 C 35.986351 -78.578529 -35.99255 106.538088 -35.99255 106.538088 " stroke="#253237" stroke-width="2" stroke-opacity="1" stroke-miterlimit="10"/><path stroke-linecap="round" transform="matrix(0.525056, 0, 0, 0.524458, 471.276617, 437.6377)" fill="none" stroke-linejoin="round" d="M -34.2881 -24.759562 C -26.677307 14.603974 18.280677 24.755819 34.283428 -9.69193 " stroke="#253237" stroke-width="2" stroke-opacity="1" stroke-miterlimit="4"/><path stroke-linecap="round" transform="matrix(0.525056, 0, 0, 0.524458, 483.424312, 360.396039)" fill="none" stroke-linejoin="round" d="M -35.80438 75.491695 C -35.80438 75.491695 35.802537 -75.489996 35.802537 -75.489996 " stroke="#253237" stroke-width="2" stroke-opacity="1" stroke-miterlimit="4"/><path stroke-linecap="round" transform="matrix(0.525056, 0, 0, 0.524458, 401.249859, 326.25905)" fill-opacity="1" fill="#7aba59" fill-rule="nonzero" stroke-linejoin="round" d="M -9.09846 -95.949581 C -9.09846 -95.949581 -94.230715 73.101351 -94.230715 73.101351 C -94.230715 73.101351 19.202081 95.952312 19.202081 95.952312 C 19.202081 95.952312 94.223811 -91.607303 94.223811 -91.607303 C 94.223811 -91.607303 -9.09846 -95.949581 -9.09846 -95.949581 Z M -9.09846 -95.949581 " stroke="#253237" stroke-width="2" stroke-opacity="1" stroke-miterlimit="4"/><path stroke-linecap="round" transform="matrix(0.525056, 0, 0, 0.524458, 454.586116, 325.820572)" fill-opacity="1" fill="#7aba59" fill-rule="nonzero" stroke-linejoin="round" d="M -7.358182 -90.778693 C -7.358182 -90.778693 82.379234 -97.653347 82.379234 -97.653347 C 82.379234 -97.653347 6.29363 97.652356 6.29363 97.652356 C 6.29363 97.652356 -82.379912 96.788369 -82.379912 96.788369 C -82.379912 96.788369 -7.358182 -90.778693 -7.358182 -90.778693 Z M -7.358182 -90.778693 " stroke="#253237" stroke-width="2" stroke-opacity="1" stroke-miterlimit="4"/><path stroke-linecap="round" transform="matrix(0.525056, 0, 0, 0.524458, 498.649345, 321.038082)" fill-opacity="1" fill="#7aba59" fill-rule="nonzero" stroke-linejoin="round" d="M -1.541742 -88.526983 C -1.541742 -88.526983 77.62389 -106.767532 77.62389 -106.767532 C 77.62389 -106.767532 -4.867279 94.936142 -4.867279 94.936142 C -4.867279 94.936142 -77.627346 106.771272 -77.627346 106.771272 C -77.627346 106.771272 -1.541742 -88.526983 -1.541742 -88.526983 Z M -1.541742 -88.526983 " stroke="#253237" stroke-width="2" stroke-opacity="1" stroke-miterlimit="4"/><path stroke-linecap="butt" transform="matrix(0.525056, 0, 0, 0.524458, 396.44037, 346.739639)" fill-opacity="1" fill="#ffffff" fill-rule="nonzero" stroke-linejoin="miter" d="M -47.641735 6.395382 C -39.547363 -7.867848 -28.372965 -20.812753 -15.770147 -33.146909 C -14.059021 -34.822746 -11.961031 -36.126174 -9.632411 -36.66989 C -5.845615 -37.548773 -3.025976 -36.237897 -1.017262 -33.109669 C 1.928851 -28.521601 1.214641 -22.473693 -2.274568 -18.295274 C -2.274568 -18.295274 -14.661635 -3.473432 -14.661635 -3.473432 C -7.445146 -5.462091 -0.823831 -8.471149 5.358543 -12.225022 C 13.32644 -17.066328 19.010355 -24.939035 21.510088 -33.921518 C 21.539846 -34.018344 21.562165 -34.107722 21.584484 -34.1971 C 23.935423 -42.620971 35.15446 -44.304256 39.856338 -36.938024 C 40.399434 -36.081485 40.920212 -35.180258 41.411231 -34.241789 C 47.645682 -22.265145 46.232143 -7.726333 38.63623 3.438462 C 32.37202 12.636942 23.667595 20.904402 11.22845 27.749263 C 11.22845 27.749263 -27.182616 44.306527 -27.182616 44.306527 C -27.182616 44.306527 -47.641735 6.395382 -47.641735 6.395382 Z M -47.641735 6.395382 " stroke="#253237" stroke-width="2" stroke-opacity="1" stroke-miterlimit="10"/><path fill="#ffffff" d="M 309.324219 438.96875 C 293.253906 453.789062 268.558594 427.074219 284.628906 412.253906 C 284.628906 412.253906 371.957031 345.472656 371.957031 345.472656 C 371.957031 345.472656 387.355469 369.855469 387.355469 369.855469 C 387.355469 369.855469 309.324219 438.96875 309.324219 438.96875 Z M 309.324219 438.96875 " fill-opacity="1" fill-rule="nonzero"/><path stroke-linecap="butt" transform="matrix(0.525056, 0, 0, 0.524458, 348.338896, 392.21959)" fill="none" stroke-linejoin="miter" d="M 44.982108 -89.133757 C 44.982108 -89.133757 74.309325 -42.64233 74.309325 -42.64233 C 74.309325 -42.64233 -74.305716 89.138 -74.305716 89.138 " stroke="#253237" stroke-width="2" stroke-opacity="1" stroke-miterlimit="10"/><path stroke-linecap="round" transform="matrix(0.525056, 0, 0, 0.524458, 292.173646, 433.354471)" fill="none" stroke-linejoin="round" d="M -21.444529 -34.028749 C -32.663566 4.455904 2.682352 34.032555 32.664261 10.704912 " stroke="#253237" stroke-width="2" stroke-opacity="1" stroke-miterlimit="4"/><path stroke-linecap="round" transform="matrix(0.525056, 0, 0, 0.524458, 337.125804, 372.109248)" fill="none" stroke-linejoin="round" d="M -66.341156 50.789258 C -66.341156 50.789258 66.345531 -50.788775 66.345531 -50.788775 " stroke="#253237" stroke-width="2" stroke-opacity="1" stroke-miterlimit="4"/><path stroke-linecap="round" transform="matrix(0.525056, 0, 0, 0.524458, 523.388974, 295.88815)" fill-opacity="1" fill="#ffffff" fill-rule="nonzero" stroke-linejoin="round" d="M 20.841687 -22.712175 C 20.841687 -22.712175 8.543897 -27.881199 8.543897 -27.881199 C 0.501603 -28.722841 -7.704363 -23.911329 -12.874941 -18.600789 C -20.314621 -10.966423 -20.842838 -1.90201 -17.733052 7.914667 C -16.661738 11.288685 -14.712542 14.424361 -12.004498 17.053562 C -12.004498 17.053562 -0.420917 28.724832 -0.420917 28.724832 " stroke="#253237" stroke-width="2" stroke-opacity="1" stroke-miterlimit="4"/><path fill="#253237" d="M 372.671875 229.90625 C 372.671875 229.90625 391.441406 244.328125 391.441406 244.328125 C 391.441406 244.328125 411.984375 248 411.984375 248 C 411.984375 248 411.984375 233.707031 411.984375 233.707031 C 411.984375 233.707031 372.671875 229.90625 372.671875 229.90625 Z M 372.671875 229.90625 " fill-opacity="1" fill-rule="nonzero"/><path stroke-linecap="round" transform="matrix(0.525056, -0.000785256, 0.000786151, 0.524458, 437.620324, 174.514598)" fill-opacity="1" fill="#253237" fill-rule="nonzero" stroke-linejoin="round" d="M 6.884322 -30.577367 C 13.304407 -10.457696 9.189471 9.944128 -3.369849 30.57165 C -3.369849 30.57165 -13.304236 -27.449571 -13.304236 -27.449571 C -13.304236 -27.449571 6.884322 -30.577367 6.884322 -30.577367 Z M 6.884322 -30.577367 " stroke="#253237" stroke-width="2" stroke-opacity="1" stroke-miterlimit="4"/><path stroke-linecap="butt" transform="matrix(0.525056, -0.000785256, 0.000786151, 0.524458, 403.07704, 192.849418)" fill-opacity="1" fill="#ffffff" fill-rule="nonzero" stroke-linejoin="miter" d="M -62.538212 -13.399426 C -62.538212 -13.399426 -61.962403 24.378553 -61.962403 24.378553 C -61.962403 24.378553 -58.734554 69.750188 -58.734554 69.750188 C -28.74696 90.821271 2.982228 101.48242 37.856898 93.274617 C 45.321543 91.513129 51.31882 85.950878 53.665817 78.647737 C 64.025401 46.472258 65.19325 1.874366 57.436646 -54.780579 C 30.671616 -101.483437 -28.552565 -98.637533 -65.191221 -60.095975 C -65.191221 -60.095975 -62.538212 -13.399426 -62.538212 -13.399426 Z M -62.538212 -13.399426 " stroke="#253237" stroke-width="2" stroke-opacity="1" stroke-miterlimit="10"/><path stroke-linecap="butt" transform="matrix(0.525056, -0.000785256, 0.000786151, 0.524458, 363.143498, 192.985729)" fill-opacity="1" fill="#ffffff" fill-rule="nonzero" stroke-linejoin="miter" d="M 13.525283 -13.545447 C 6.185625 -25.696953 -14.196185 -17.720688 -7.992229 2.651897 C -1.381535 19.688311 6.289682 24.056977 14.195623 25.692515 C 14.195623 25.692515 13.525283 -13.545447 13.525283 -13.545447 Z M 13.525283 -13.545447 " stroke="#253237" stroke-width="2" stroke-opacity="1" stroke-miterlimit="10"/><path stroke-linecap="round" transform="matrix(0.525056, -0.000785256, 0.000786151, 0.524458, 369.854979, 171.405739)" fill-opacity="1" fill="#253237" fill-rule="nonzero" stroke-linejoin="round" d="M 17.93139 -35.321191 C 32.746828 -12.492713 20.798248 32.521031 1.348149 44.297259 C 1.348149 44.297259 0.673845 27.582556 0.673845 27.582556 C -4.243545 22.450852 -9.558316 19.374249 -16.358097 24.27986 C -30.838617 -3.605425 -32.745566 -26.854018 -18.941143 -44.299307 C -18.941143 -44.299307 17.93139 -35.321191 17.93139 -35.321191 Z M 17.93139 -35.321191 " stroke="#253237" stroke-width="2" stroke-opacity="1" stroke-miterlimit="4"/><path stroke-linecap="round" transform="matrix(0.525056, -0.000785256, 0.000786151, 0.524458, 405.55352, 144.400932)" fill-opacity="1" fill="#253237" fill-rule="nonzero" stroke-linejoin="round" d="M 64.731148 -37.20827 C 87.007464 -3.687945 75.489632 21.953755 53.574741 45.174128 C 35.04239 25.356593 2.259347 22.909197 -43.499851 36.262285 C -43.499851 36.262285 -87.008108 7.089694 -87.008108 7.089694 C -83.147498 -32.268103 -39.672948 -45.177721 -6.216181 -25.628319 C 29.925637 -10.595935 54.064672 -13.725265 64.731148 -37.20827 Z M 64.731148 -37.20827 " stroke="#253237" stroke-width="2" stroke-opacity="1" stroke-miterlimit="4"/><path stroke-linecap="round" transform="matrix(0.525056, -0.000785256, 0.000786151, 0.524458, 420.985667, 198.820341)" fill="none" stroke-linejoin="round" d="M -2.846186 -28.63508 C -1.828808 -7.517996 2.734672 10.386789 10.821911 25.094137 C 3.02837 27.890428 -4.1446 28.631953 -10.82412 27.750516 " stroke="#253237" stroke-width="2" stroke-opacity="1" stroke-miterlimit="4"/><path stroke-linecap="round" transform="matrix(0.525056, -0.000785256, 0.000786151, 0.524458, 398.502977, 183.57533)" fill="none" stroke-linejoin="round" d="M 10.437713 -3.673336 C 1.199704 -5.065079 -5.760772 -2.14837 -10.443692 5.061895 " stroke="#253237" stroke-width="2" stroke-opacity="1" stroke-miterlimit="4"/><path stroke-linecap="round" transform="matrix(0.525056, -0.000785256, 0.000786151, 0.524458, 428.320375, 182.466196)" fill="none" stroke-linejoin="round" d="M 8.261166 2.810303 C 4.055732 -0.815804 -1.030037 -2.804632 -8.25688 -0.864032 " stroke="#253237" stroke-width="2" stroke-opacity="1" stroke-miterlimit="4"/><path stroke-linecap="round" transform="matrix(0.525056, -0.000785256, 0.000786151, 0.524458, 401.773929, 193.622846)" fill-opacity="1" fill="#253237" fill-rule="nonzero" stroke-linejoin="round" d="M -4.241555 -0.00224297 C -4.241075 4.645416 -2.342161 8.417033 0.00134637 8.413093 C 2.344843 8.416602 4.240163 4.650666 4.239682 0.00300757 C 4.239201 -4.644651 2.340288 -8.416268 0.00421952 -8.412318 C -2.339277 -8.415827 -4.242036 -4.649902 -4.241555 -0.00224297 Z M -4.241555 -0.00224297 " stroke="#253237" stroke-width="2" stroke-opacity="1" stroke-miterlimit="4"/><path stroke-linecap="round" transform="matrix(0.525056, -0.000785256, 0.000786151, 0.524458, 428.333089, 190.964499)" fill-opacity="1" fill="#253237" fill-rule="nonzero" stroke-linejoin="round" d="M -3.349879 0.00308958 C -3.355533 3.779303 -1.849852 6.835307 0.00262598 6.838081 C 1.855104 6.840855 3.355073 3.774454 3.353287 -0.0017703 C 3.351502 -3.777995 1.853271 -6.841436 0.000781869 -6.836762 C -1.851696 -6.839535 -3.351654 -3.780583 -3.349879 0.00308958 Z M -3.349879 0.00308958 " stroke="#253237" stroke-width="2" stroke-opacity="1" stroke-miterlimit="4"/><path stroke-linecap="round" transform="matrix(0.525056, -0.000785256, 0.000786151, 0.524458, 404.37723, 223.453846)" fill="none" stroke-linejoin="round" d="M 15.377095 7.596438 C 3.611315 5.053892 -6.990966 0.569116 -15.378156 -7.59174 " stroke="#253237" stroke-width="2" stroke-opacity="1" stroke-miterlimit="4"/><path stroke-linecap="round" transform="matrix(0.525056, 0, 0, 0.524458, 514.432897, 487.025347)" fill-opacity="1" fill="#ffffff" fill-rule="nonzero" stroke-linejoin="round" d="M 435.832641 14.922476 C 435.832641 14.922476 -435.829988 14.922476 -435.829988 14.922476 C -435.829988 14.922476 -435.829988 -14.922309 -435.829988 -14.922309 C -435.829988 -14.922309 435.832641 -14.922309 435.832641 -14.922309 C 435.832641 -14.922309 435.832641 14.922476 435.832641 14.922476 Z M 435.832641 14.922476 " stroke="#253237" stroke-width="2" stroke-opacity="1" stroke-miterlimit="4"/></svg>