<svg xmlns="http://www.w3.org/2000/svg" xmlns:xlink="http://www.w3.org/1999/xlink" width="1366" zoomAndPan="magnify" viewBox="0 0 1024.5 576" height="768" preserveAspectRatio="xMidYMid meet" version="1.0"><defs><clipPath id="78d62382a7"><path d="M 0 0.140625 L 1024 0.140625 L 1024 575.859375 L 0 575.859375 Z M 0 0.140625 " clip-rule="nonzero"/></clipPath></defs><g clip-path="url(#78d62382a7)"><path fill="#ffffff" d="M 0 0.140625 L 1024.5 0.140625 L 1024.5 583.640625 L 0 583.640625 Z M 0 0.140625 " fill-opacity="1" fill-rule="nonzero"/><path fill="#ffffff" d="M 0 0.140625 L 1024.5 0.140625 L 1024.5 576.140625 L 0 576.140625 Z M 0 0.140625 " fill-opacity="1" fill-rule="nonzero"/><path fill="#eeeeee" d="M 0 0.140625 L 1024.5 0.140625 L 1024.5 576.140625 L 0 576.140625 Z M 0 0.140625 " fill-opacity="1" fill-rule="nonzero"/></g><path stroke-linecap="round" transform="matrix(0.426742, 0, 0, 0.426389, 517.259845, 138.046596)" fill-opacity="1" fill="#253237" fill-rule="nonzero" stroke-linejoin="round" d="M 137.59306 100.554411 C 137.59306 100.554411 -137.593434 100.554411 -137.593434 100.554411 C -137.593434 100.554411 -137.593434 -100.553104 -137.593434 -100.553104 C -137.593434 -100.553104 137.59306 -100.553104 137.59306 -100.553104 C 137.59306 -100.553104 137.59306 100.554411 137.59306 100.554411 Z M 137.59306 100.554411 " stroke="#253237" stroke-width="2" stroke-opacity="1" stroke-miterlimit="4"/><path stroke-linecap="round" transform="matrix(0.426742, 0, 0, 0.426389, 516.430258, 139.39866)" fill-opacity="1" fill="#253237" fill-rule="nonzero" stroke-linejoin="round" d="M -117.900484 -79.098659 C -117.900484 -79.098659 -117.900484 79.097614 -117.900484 79.097614 C -117.900484 79.097614 117.897809 79.097614 117.897809 79.097614 " stroke="#253237" stroke-width="2" stroke-opacity="1" stroke-miterlimit="4"/><path stroke-linecap="round" transform="matrix(0.426742, 0, 0, 0.426389, 452.947283, 89.08436)" fill="none" stroke-linejoin="round" d="M 30.861525 66.944871 C 30.861525 66.944871 266.659818 66.944871 266.659818 66.944871 " stroke="#253237" stroke-width="2" stroke-opacity="1" stroke-miterlimit="4"/><path stroke-linecap="round" transform="matrix(0.426742, 0, 0, 0.426389, 452.947283, 89.08436)" fill="none" stroke-linejoin="round" d="M 30.861525 110.057661 C 30.861525 110.057661 266.659818 110.057661 266.659818 110.057661 " stroke="#253237" stroke-width="2" stroke-opacity="1" stroke-miterlimit="4"/><path stroke-linecap="round" transform="matrix(0.426742, 0, 0, 0.426389, 452.947283, 89.08436)" fill="none" stroke-linejoin="round" d="M 30.861525 153.170451 C 30.861525 153.170451 266.659818 153.170451 266.659818 153.170451 " stroke="#253237" stroke-width="2" stroke-opacity="1" stroke-miterlimit="4"/><path stroke-linecap="round" transform="matrix(0.426742, 0, 0, 0.426389, 512.268674, 132.56068)" fill-opacity="1" fill="#ffffff" fill-rule="nonzero" stroke-linejoin="round" d="M 137.599834 100.548864 C 137.599834 100.548864 -137.595814 100.548864 -137.595814 100.548864 C -137.595814 100.548864 -137.595814 -100.54949 -137.595814 -100.54949 C -137.595814 -100.54949 137.599834 -100.54949 137.599834 -100.54949 C 137.599834 -100.54949 137.599834 100.548864 137.599834 100.548864 Z M 137.599834 100.548864 " stroke="#253237" stroke-width="2" stroke-opacity="1" stroke-miterlimit="4"/><path stroke-linecap="round" transform="matrix(0.426742, 0, 0, 0.426389, 511.43911, 133.912744)" fill="none" stroke-linejoin="round" d="M -117.902921 -79.095045 C -117.902921 -79.095045 -117.902921 79.101228 -117.902921 79.101228 C -117.902921 79.101228 117.895373 79.101228 117.895373 79.101228 " stroke="#253237" stroke-width="2" stroke-opacity="1" stroke-miterlimit="4"/><path stroke-linecap="round" transform="matrix(0.426742, 0, 0, 0.426389, 452.947283, 89.08436)" fill="none" stroke-linejoin="round" d="M 19.163147 54.082492 C 19.163147 54.082492 254.96144 54.082492 254.96144 54.082492 " stroke="#253237" stroke-width="2" stroke-opacity="1" stroke-miterlimit="4"/><path stroke-linecap="round" transform="matrix(0.426742, 0, 0, 0.426389, 452.947283, 89.08436)" fill="none" stroke-linejoin="round" d="M 19.163147 97.195282 C 19.163147 97.195282 254.96144 97.195282 254.96144 97.195282 " stroke="#253237" stroke-width="2" stroke-opacity="1" stroke-miterlimit="4"/><path stroke-linecap="round" transform="matrix(0.426742, 0, 0, 0.426389, 452.947283, 89.08436)" fill="none" stroke-linejoin="round" d="M 19.163147 140.298911 C 19.163147 140.298911 254.96144 140.298911 254.96144 140.298911 " stroke="#253237" stroke-width="2" stroke-opacity="1" stroke-miterlimit="4"/><path stroke-linecap="round" transform="matrix(0.426742, 0, 0, 0.426389, 511.656732, 137.706332)" fill-opacity="1" fill="#7aba59" fill-rule="nonzero" stroke-linejoin="round" d="M -102.412283 34.924282 C -102.412283 34.924282 -40.798995 -50.751624 -40.798995 -50.751624 C -40.798995 -50.751624 28.512522 6.927536 28.512522 6.927536 C 28.512522 6.927536 67.525423 -33.702558 67.525423 -33.702558 C 67.525423 -33.702558 56.092501 -43.120312 56.092501 -43.120312 C 56.092501 -43.120312 102.410023 -49.084278 102.410023 -49.084278 C 102.410023 -49.084278 83.434485 -4.075111 83.434485 -4.075111 C 83.434485 -4.075111 75.562337 -16.607686 75.562337 -16.607686 C 75.562337 -16.607686 29.00682 31.8003 29.00682 31.8003 C 29.00682 31.8003 -39.08726 -24.77035 -39.08726 -24.77035 C -39.08726 -24.77035 -92.196798 50.754903 -92.196798 50.754903 C -92.196798 50.754903 -102.412283 34.924282 -102.412283 34.924282 Z M -102.412283 34.924282 " stroke="#253237" stroke-width="2" stroke-opacity="1" stroke-miterlimit="4"/><path stroke-linecap="butt" transform="matrix(0.426742, 0.00040847, -0.000408808, 0.426389, 557.626983, 343.620108)" fill-opacity="1" fill="#d4d4d4" fill-rule="nonzero" stroke-linejoin="miter" d="M -26.142284 53.235861 C -61.186352 77.894856 -88.758122 38.701984 -53.704892 14.052141 C -53.704892 14.052141 71.145404 -77.890611 71.145404 -77.890611 C 71.145404 -77.890611 88.756926 -20.695514 88.756926 -20.695514 C 88.756926 -20.695514 -26.142284 53.235861 -26.142284 53.235861 Z M -26.142284 53.235861 " stroke="#253237" stroke-width="2" stroke-opacity="1" stroke-miterlimit="10"/><path stroke-linecap="round" transform="matrix(0.426742, 0.00040847, -0.000408808, 0.426389, 605.070115, 314.602004)" fill-opacity="1" fill="#7aba59" fill-rule="nonzero" stroke-linejoin="round" d="M 50.192754 -64.022086 C 11.560996 -57.902012 -28.596333 -39.00054 -69.979655 -9.919753 C -69.979655 -9.919753 -34.474982 64.02328 -34.474982 64.02328 C -34.474982 64.02328 13.756004 26.141138 13.756004 26.141138 C 48.910943 -7.001275 69.980204 -38.25214 50.192754 -64.022086 Z M 50.192754 -64.022086 " stroke="#253237" stroke-width="2" stroke-opacity="1" stroke-miterlimit="4"/><path stroke-linecap="butt" transform="matrix(0.426742, 0.00040847, -0.000408808, 0.426389, 550.467293, 245.517775)" fill-opacity="1" fill="#d4d4d4" fill-rule="nonzero" stroke-linejoin="miter" d="M 1.719144 80.612258 C 13.558254 55.517431 24.43587 30.047913 32.786172 3.637208 C 33.443261 1.575299 33.825661 -0.568798 33.851051 -2.730876 C 34.002986 -16.124761 31.610634 -29.067307 25.740472 -41.401879 C 25.740472 -41.401879 12.457964 -70.631846 12.457964 -70.631846 C 10.953596 -73.937614 8.461054 -76.802695 5.164272 -78.329465 C 0.264872 -80.615082 -2.918767 -78.697332 -4.423319 -72.640309 C -5.444588 -68.525932 -4.982736 -64.174783 -3.477737 -60.209406 C -3.477737 -60.209406 3.395817 -41.985115 3.395817 -41.985115 C 6.350807 -34.145921 7.47568 -25.663687 6.128864 -17.389793 C 5.16421 -11.507351 3.273818 -6.897434 -0.275563 -4.557916 C -0.275563 -4.557916 -2.519078 -15.017908 -2.519078 -15.017908 C -3.429397 -19.304498 -6.032765 -23.195533 -9.961562 -25.152275 C -13.753002 -27.054182 -17.166648 -26.354657 -20.073641 -22.311764 C -22.258451 -19.268138 -23.17021 -15.501993 -23.075084 -11.755135 C -23.075084 -11.755135 -22.818597 -2.007817 -22.818597 -2.007817 C -22.561689 8.17924 -24.126412 18.313075 -27.229352 28.026966 C -29.474403 35.074113 -30.831786 41.873057 -30.95375 48.331851 C -31.092818 56.045751 -32.861616 63.36728 -34.007675 70.990533 C -34.007675 70.990533 -33.647672 74.132494 -33.647672 74.132494 C -33.647672 74.132494 1.719144 80.612258 1.719144 80.612258 Z M 1.719144 80.612258 " stroke="#253237" stroke-width="2" stroke-opacity="1" stroke-miterlimit="10"/><path fill="#d4d4d4" d="M 548.917969 354.613281 C 548.945312 372.644531 526.160156 375.039062 526.128906 357.007812 C 526.128906 357.007812 536.175781 274.515625 536.175781 274.515625 C 536.175781 274.515625 553.664062 273.988281 553.664062 273.988281 C 553.664062 273.988281 548.917969 354.613281 548.917969 354.613281 Z M 548.917969 354.613281 " fill-opacity="1" fill-rule="nonzero"/><path stroke-linecap="round" transform="matrix(0.426742, 0.00040847, -0.000408808, 0.426389, 551.735986, 307.871168)" fill="none" stroke-linejoin="round" d="M -4.852107 79.688976 C -4.852107 79.688976 4.85371 -79.689323 4.85371 -79.689323 " stroke="#253237" stroke-width="2" stroke-opacity="1" stroke-miterlimit="4"/><path stroke-linecap="round" transform="matrix(0.426742, 0.00040847, -0.000408808, 0.426389, 535.726368, 323.792108)" fill="none" stroke-linejoin="round" d="M 22.414366 101.542098 C -0.712668 115.562634 -21.712131 105.010675 -22.415453 77.92155 C -22.415453 77.92155 0.942416 -115.567978 0.942416 -115.567978 " stroke="#253237" stroke-width="2" stroke-opacity="1" stroke-miterlimit="4"/><path stroke-linecap="round" transform="matrix(0.426742, 0.00040847, -0.000408808, 0.426389, 634.219679, 225.54531)" fill-opacity="1" fill="#253237" fill-rule="nonzero" stroke-linejoin="round" d="M 29.355236 -122.537769 C -34.708986 -167.934489 -115.811719 -92.807884 -104.350507 -15.507125 C -121.034008 26.504 -113.274911 70.9286 -93.184662 116.568995 C -38.233883 146.620201 88.656335 167.935954 121.037278 67.451893 C 114.091768 12.335342 106.946729 -40.847996 97.81554 -74.717529 C 90.396093 -108.579541 63.985652 -120.344761 29.355236 -122.537769 Z M 29.355236 -122.537769 " stroke="#253237" stroke-width="2" stroke-opacity="1" stroke-miterlimit="4"/><path stroke-linecap="round" transform="matrix(0.426742, 0.00040847, -0.000408808, 0.426389, 634.219679, 225.54531)" fill-opacity="1" fill="#253237" fill-rule="nonzero" stroke-linejoin="round" d="M 29.355236 -122.537769 C -34.708986 -167.934489 -115.811719 -92.807884 -104.350507 -15.507125 C -121.034008 26.504 -113.274911 70.9286 -93.184662 116.568995 C -38.233883 146.620201 88.656335 167.935954 121.037278 67.451893 C 114.091768 12.335342 106.946729 -40.847996 97.81554 -74.717529 C 90.396093 -108.579541 63.985652 -120.344761 29.355236 -122.537769 Z M 29.355236 -122.537769 " stroke="#253237" stroke-width="2" stroke-opacity="1" stroke-miterlimit="4"/><path stroke-linecap="round" transform="matrix(0.426742, 0, 0, 0.426389, 639.749004, 454.208836)" fill-opacity="1" fill="#253237" fill-rule="nonzero" stroke-linejoin="round" d="M 114.203401 63.959537 C 114.203401 66.222363 114.194247 68.512673 114.166786 70.802983 C 114.102711 79.982544 113.873869 89.34533 113.516877 98.863857 C 113.516877 98.863857 -114.043123 98.863857 -114.043123 98.863857 C -114.198735 86.98173 -114.107198 75.337796 -113.741052 63.959537 C -111.7364 1.250857 -101.511761 -53.52419 -78.234003 -95.757501 C -78.234003 -95.757501 79.977865 -98.863161 79.977865 -98.863161 C 105.452502 -61.970852 114.194247 -4.392466 114.203401 63.959537 Z M 114.203401 63.959537 " stroke="#253237" stroke-width="2" stroke-opacity="1" stroke-miterlimit="4"/><path stroke-linecap="round" transform="matrix(0.426742, 0.00040847, -0.000408808, 0.426389, 643.881707, 352.20576)" fill-opacity="1" fill="#7aba59" fill-rule="nonzero" stroke-linejoin="round" d="M -107.648692 -128.581888 C -85.628628 -141.950915 -62.697971 -150.749354 -38.323232 -152.28431 C -38.323232 -152.28431 -18.083768 -132.43296 -18.083768 -132.43296 C -18.083768 -132.43296 34.371555 -165.619431 34.371555 -165.619431 C 34.371555 -165.619431 121.742155 -128.581769 121.742155 -128.581769 C 91.804572 -38.351481 74.233035 51.298964 70.427983 140.294933 C 17.681357 165.612174 -35.017253 164.609115 -87.753242 143.698709 C -83.023689 92.904241 -81.318695 47.646062 -91.207646 25.412035 C -118.147261 5.90607 -121.743648 -31.266813 -101.685827 -86.363427 C -100.7813 -97.678429 -103.559904 -112.49866 -107.648692 -128.581888 Z M -107.648692 -128.581888 " stroke="#253237" stroke-width="2" stroke-opacity="1" stroke-miterlimit="4"/><path stroke-linecap="round" transform="matrix(0.426742, 0.00040847, -0.000408808, 0.426389, 643.115977, 270.920767)" fill-opacity="1" fill="#d4d4d4" fill-rule="nonzero" stroke-linejoin="round" d="M -36.35007 -22.975623 C -36.35007 -22.975623 -36.346244 38.349741 -36.346244 38.349741 C -36.346244 38.349741 -16.106781 58.20109 -16.106781 58.20109 C -16.106781 58.20109 36.348543 25.01462 36.348543 25.01462 C 36.348543 25.01462 35.847752 -58.205641 35.847752 -58.205641 C 35.847752 -58.205641 -36.35007 -22.975623 -36.35007 -22.975623 Z M -36.35007 -22.975623 " stroke="#253237" stroke-width="2" stroke-opacity="1" stroke-miterlimit="4"/><path stroke-linecap="round" transform="matrix(0.426742, 0.00040847, -0.000408808, 0.426389, 642.733004, 260.409901)" fill-opacity="1" fill="#253237" fill-rule="nonzero" stroke-linejoin="round" d="M -35.424185 6.722243 C -35.424185 6.722243 -35.42264 27.444975 -35.42264 27.444975 C -5.471375 27.938474 21.913619 5.934415 35.428593 -27.93849 C 14.942104 -9.440635 -12.440345 5.665004 -35.424185 6.722243 Z M -35.424185 6.722243 " stroke="#253237" stroke-width="2" stroke-opacity="1" stroke-miterlimit="4"/><path stroke-linecap="round" transform="matrix(0.426742, 0.00040847, -0.000408808, 0.426389, 643.115977, 270.920767)" fill-opacity="1" fill="#d4d4d4" fill-rule="nonzero" stroke-linejoin="round" d="M -36.35007 -22.975623 C -36.35007 -22.975623 -36.346244 38.349741 -36.346244 38.349741 C -36.346244 38.349741 -16.106781 58.20109 -16.106781 58.20109 C -16.106781 58.20109 36.348543 25.01462 36.348543 25.01462 C 36.348543 25.01462 35.847752 -58.205641 35.847752 -58.205641 C 35.847752 -58.205641 -36.35007 -22.975623 -36.35007 -22.975623 Z M -36.35007 -22.975623 " stroke="#253237" stroke-width="2" stroke-opacity="1" stroke-miterlimit="4"/><path stroke-linecap="round" transform="matrix(0.426742, 0.00040847, -0.000408808, 0.426389, 642.733004, 260.409901)" fill-opacity="1" fill="#253237" fill-rule="nonzero" stroke-linejoin="round" d="M -35.424185 6.722243 C -35.424185 6.722243 -35.42264 27.444975 -35.42264 27.444975 C -5.471375 27.938474 21.913619 5.934415 35.428593 -27.93849 C 14.942104 -9.440635 -12.440345 5.665004 -35.424185 6.722243 Z M -35.424185 6.722243 " stroke="#253237" stroke-width="2" stroke-opacity="1" stroke-miterlimit="4"/><path stroke-linecap="round" transform="matrix(0.426742, 0.00040847, -0.000408808, 0.426389, 626.784844, 292.390463)" fill-opacity="1" fill="#7aba59" fill-rule="nonzero" stroke-linejoin="round" d="M 1.875635 -20.779118 C -16.845375 -13.065738 -22.109456 -4.265901 -18.090641 5.661037 C -15.622489 11.732578 -10.40974 16.234916 -4.28432 17.923878 C 6.052905 20.781445 14.506294 15.982016 22.114317 7.812059 C 22.114317 7.812059 1.874853 -12.03929 1.874853 -12.03929 C 1.874853 -12.03929 1.875635 -20.779118 1.875635 -20.779118 Z M 1.875635 -20.779118 " stroke="#253237" stroke-width="2" stroke-opacity="1" stroke-miterlimit="4"/><path stroke-linecap="round" transform="matrix(0.426742, 0.00040847, -0.000408808, 0.426389, 651.818929, 291.419218)" fill-opacity="1" fill="#7aba59" fill-rule="nonzero" stroke-linejoin="round" d="M -36.546777 10.146096 C -36.546777 10.146096 15.908547 -23.040375 15.908547 -23.040375 C 15.908547 -23.040375 15.902096 -29.773883 15.902096 -29.773883 C 36.550859 -12.652977 35.852539 3.700513 14.978849 19.331269 C -8.856439 29.779599 -24.926206 24.47231 -36.546777 10.146096 Z M -36.546777 10.146096 " stroke="#253237" stroke-width="2" stroke-opacity="1" stroke-miterlimit="4"/><path stroke-linecap="round" transform="matrix(0.426742, 0.00040847, -0.000408808, 0.426389, 631.934291, 364.991474)" fill="none" stroke-linejoin="round" d="M -51.229373 -3.998519 C -36.890104 0.834042 -21.442409 -3.019318 -6.84596 -6.826056 C -4.274423 -7.49729 -1.629657 -8.168594 0.988614 -7.832137 C 4.677994 -7.359286 7.884064 -4.971273 11.135508 -2.995559 C 23.271159 4.358456 37.442924 6.332869 51.230104 8.170233 " stroke="#253237" stroke-width="2" stroke-opacity="1" stroke-miterlimit="4"/><path stroke-linecap="butt" transform="matrix(0.426742, 0.00040847, -0.000408808, 0.426389, 697.393061, 384.671068)" fill-opacity="1" fill="#d4d4d4" fill-rule="nonzero" stroke-linejoin="miter" d="M -15.217689 58.804175 C -9.950203 101.334785 37.606598 95.444353 32.329958 52.913752 C 32.329958 52.913752 16.602651 -101.33737 16.602651 -101.33737 C 16.602651 -101.33737 -37.599362 -75.972929 -37.599362 -75.972929 C -37.599362 -75.972929 -15.217689 58.804175 -15.217689 58.804175 Z M -15.217689 58.804175 " stroke="#253237" stroke-width="2" stroke-opacity="1" stroke-miterlimit="10"/><path stroke-linecap="round" transform="matrix(0.426742, 0.00040847, -0.000408808, 0.426389, 695.492205, 329.137585)" fill-opacity="1" fill="#7aba59" fill-rule="nonzero" stroke-linejoin="round" d="M 0.85324 -74.364666 C 22.258412 -41.624563 35.233207 0.825374 41.478309 51.004686 C 41.478309 51.004686 -37.156763 74.358737 -37.156763 74.358737 C -37.156763 74.358737 -41.480975 13.184092 -41.480975 13.184092 C -40.529494 -35.114898 -31.520734 -71.713537 0.85324 -74.364666 Z M 0.85324 -74.364666 " stroke="#253237" stroke-width="2" stroke-opacity="1" stroke-miterlimit="4"/><path stroke-linecap="round" transform="matrix(0.426742, 0.00040847, -0.000408808, 0.426389, 698.502616, 483.403738)" fill-opacity="1" fill="#d4d4d4" fill-rule="nonzero" stroke-linejoin="round" d="M 24.705853 -31.70652 C 24.705853 -31.70652 27.157673 -4.463329 27.157673 -4.463329 C 27.157673 -4.463329 29.112018 0.353613 29.112018 0.353613 C 29.20022 6.427433 28.866932 12.061917 28.130541 17.339499 C 28.130541 17.339499 -3.358073 17.33302 -3.358073 17.33302 C -3.339994 17.09481 -3.331069 16.856609 -3.331297 16.618417 C -3.173859 8.968627 -4.038235 14.420396 -5.647453 6.772299 C -5.647453 6.772299 -11.617392 14.500946 -11.617392 14.500946 C -11.918489 15.518133 -12.366114 16.46217 -12.923653 17.333022 C -12.923653 17.333022 -27.734279 17.338049 -27.734279 17.338049 C -27.862781 16.971722 -27.972985 16.596217 -28.07407 16.184058 C -28.680537 13.756909 -27.477976 7.782626 -26.967724 5.326924 C -25.564423 -1.316322 -25.417517 8.705938 -23.666062 2.392163 C -23.036671 0.0829263 -22.379793 -2.198853 -21.686283 -4.462344 C -19.0856 -12.929825 -16.000835 -22.50628 -12.401535 -30.067755 " stroke="#253237" stroke-width="2" stroke-opacity="1" stroke-miterlimit="4"/><path fill="#d4d4d4" d="M 690.8125 410.488281 C 689.289062 396.929688 709.816406 394.625 711.339844 408.183594 C 711.339844 408.183594 709.0625 470.429688 709.0625 470.429688 C 709.0625 470.429688 693.195312 471.214844 693.195312 471.214844 C 693.195312 471.214844 690.8125 410.488281 690.8125 410.488281 Z M 690.8125 410.488281 " fill-opacity="1" fill-rule="nonzero"/><path stroke-linecap="round" transform="matrix(0.426742, 0.00040847, -0.000408808, 0.426389, 691.833631, 439.252448)" fill="none" stroke-linejoin="round" d="M -3.270187 -74.959907 C -3.270187 -74.959907 3.262689 74.957593 3.262689 74.957593 " stroke="#253237" stroke-width="2" stroke-opacity="1" stroke-miterlimit="4"/><path stroke-linecap="round" transform="matrix(0.426742, 0.00040847, -0.000408808, 0.426389, 710.201777, 439.307165)" fill="none" stroke-linejoin="round" d="M 2.596946 -72.99593 C 2.596946 -72.99593 -2.599786 72.993472 -2.599786 72.993472 " stroke="#253237" stroke-width="2" stroke-opacity="1" stroke-miterlimit="4"/><path stroke-linecap="round" transform="matrix(0.426742, 0.00040847, -0.000408808, 0.426389, 710.970338, 405.096551)" fill="none" stroke-linejoin="round" d="M -0.871965 -8.140918 C -0.871965 -8.140918 0.873671 8.13694 0.873671 8.13694 " stroke="#253237" stroke-width="2" stroke-opacity="1" stroke-miterlimit="4"/><path stroke-linecap="round" transform="matrix(0.426742, 0.00040847, -0.000408808, 0.426389, 624.972001, 225.6861)" fill-opacity="1" fill="#d4d4d4" fill-rule="nonzero" stroke-linejoin="round" d="M -59.86184 -46.11204 C -81.241535 91.070586 9.43651 121.655564 78.251428 52.330636 C 78.251428 52.330636 81.248229 -10.848174 81.248229 -10.848174 C 81.248229 -10.848174 81.244534 -52.925764 81.244534 -52.925764 C 53.589538 -121.663569 -44.466933 -105.070232 -59.86184 -46.11204 Z M -59.86184 -46.11204 " stroke="#253237" stroke-width="2" stroke-opacity="1" stroke-miterlimit="4"/><path stroke-linecap="round" transform="matrix(0.426742, 0.00040847, -0.000408808, 0.426389, 665.254196, 228.044653)" fill-opacity="1" fill="#d4d4d4" fill-rule="nonzero" stroke-linejoin="round" d="M -13.151792 -16.289204 C 3.241854 -26.437244 12.818246 -24.705782 14.58126 -9.399032 C 15.135104 -4.571587 14.627195 0.330165 13.423414 5.031036 C 8.170541 25.529771 -3.197441 26.438464 -15.134687 25.533775 C -15.134687 25.533775 -13.151792 -16.289204 -13.151792 -16.289204 Z M -13.151792 -16.289204 " stroke="#253237" stroke-width="2" stroke-opacity="1" stroke-miterlimit="4"/><path stroke-linecap="round" transform="matrix(0.426742, 0.00040847, -0.000408808, 0.426389, 617.58092, 226.526264)" fill="none" stroke-linejoin="round" d="M 2.136163 -27.877179 C 0.630663 -3.699213 -3.088337 12.684654 -8.552333 23.01461 C -5.216234 27.363005 1.283354 27.869808 8.550971 27.459751 " stroke="#253237" stroke-width="2" stroke-opacity="1" stroke-miterlimit="4"/><path stroke-linecap="round" transform="matrix(0.426742, 0.00040847, -0.000408808, 0.426389, 635.879141, 212.747972)" fill="none" stroke-linejoin="round" d="M -13.340811 -3.518703 C -2.302414 -4.482047 6.177119 -1.10051 13.340632 4.480986 " stroke="#253237" stroke-width="2" stroke-opacity="1" stroke-miterlimit="4"/><path stroke-linecap="round" transform="matrix(0.426742, 0.00040847, -0.000408808, 0.426389, 609.702134, 212.517387)" fill="none" stroke-linejoin="round" d="M -9.94445 3.404216 C -3.303784 -1.704958 3.32184 -3.406135 9.941575 -1.699324 " stroke="#253237" stroke-width="2" stroke-opacity="1" stroke-miterlimit="4"/><path stroke-linecap="round" transform="matrix(0.426742, 0.00040847, -0.000408808, 0.426389, 632.759176, 224.351723)" fill-opacity="1" fill="#253237" fill-rule="nonzero" stroke-linejoin="round" d="M 4.271562 -0.00446741 C 4.276108 4.741053 2.357526 8.590613 -0.00411697 8.592875 C -2.36576 8.595138 -4.273407 4.749243 -4.277953 0.00372282 C -4.273346 -4.741806 -2.363917 -8.591358 -0.00227388 -8.59362 C 2.35937 -8.595882 4.276179 -4.740835 4.271562 -0.00446741 Z M 4.271562 -0.00446741 " stroke="#253237" stroke-width="2" stroke-opacity="1" stroke-miterlimit="4"/><path stroke-linecap="round" transform="matrix(0.426742, 0.00040847, -0.000408808, 0.426389, 635.495113, 221.570009)" fill-opacity="1" fill="#253237" fill-rule="nonzero" stroke-linejoin="round" d="M -6.407243 -2.063592 C -1.509818 -1.839252 2.727492 -2.713629 6.405568 -4.485273 C 5.475599 -0.618337 1.981499 2.096738 -2.254353 4.491881 C -2.254353 4.491881 -6.407243 -2.063592 -6.407243 -2.063592 Z M -6.407243 -2.063592 " stroke="#253237" stroke-width="2" stroke-opacity="1" stroke-miterlimit="4"/><path stroke-linecap="round" transform="matrix(0.426742, 0.00040847, -0.000408808, 0.426389, 609.759298, 224.128444)" fill-opacity="1" fill="#253237" fill-rule="nonzero" stroke-linejoin="round" d="M -4.278246 -0.00397945 C -4.2737 4.741541 -2.366053 8.587436 -0.00440119 8.594334 C 2.366396 8.592063 4.275824 4.742512 4.280432 -0.00301721 C 4.275886 -4.748537 2.359085 -8.594424 -0.00255811 -8.592161 C -2.364202 -8.589899 -4.273639 -4.749508 -4.278246 -0.00397945 Z M -4.278246 -0.00397945 " stroke="#253237" stroke-width="2" stroke-opacity="1" stroke-miterlimit="4"/><path stroke-linecap="round" transform="matrix(0.426742, 0.00040847, -0.000408808, 0.426389, 607.028711, 221.341943)" fill-opacity="1" fill="#253237" fill-rule="nonzero" stroke-linejoin="round" d="M 6.402386 -2.063175 C 1.50539 -1.838614 -2.724442 -2.714041 -6.405914 -4.487796 C -5.477691 -0.62264 -1.987533 2.104067 2.252901 4.49109 C 2.252901 4.49109 6.402386 -2.063175 6.402386 -2.063175 Z M 6.402386 -2.063175 " stroke="#253237" stroke-width="2" stroke-opacity="1" stroke-miterlimit="4"/><path stroke-linecap="round" transform="matrix(0.426742, 0.00040847, -0.000408808, 0.426389, 629.745311, 195.63239)" fill-opacity="1" fill="#253237" fill-rule="nonzero" stroke-linejoin="round" d="M 19.940167 -17.387831 C 19.776867 22.362963 38.584989 48.252944 70.126094 64.832064 C 70.126094 64.832064 79.109457 -17.389546 79.109457 -17.389546 C -4.005509 -64.838458 -42.431533 -35.064249 -79.106321 -2.277668 C -79.106321 -2.277668 -70.979788 24.382928 -70.979788 24.382928 C -37.71876 20.842309 -6.625298 9.68161 19.940167 -17.387831 Z M 19.940167 -17.387831 " stroke="#253237" stroke-width="2" stroke-opacity="1" stroke-miterlimit="4"/><path stroke-linecap="round" transform="matrix(0.426742, 0.00040847, -0.000408808, 0.426389, 624.972001, 225.6861)" fill-opacity="1" fill="#d4d4d4" fill-rule="nonzero" stroke-linejoin="round" d="M -59.86184 -46.11204 C -81.241535 91.070586 9.43651 121.655564 78.251428 52.330636 C 78.251428 52.330636 81.248229 -10.848174 81.248229 -10.848174 C 81.248229 -10.848174 81.244534 -52.925764 81.244534 -52.925764 C 53.589538 -121.663569 -44.466933 -105.070232 -59.86184 -46.11204 Z M -59.86184 -46.11204 " stroke="#253237" stroke-width="2" stroke-opacity="1" stroke-miterlimit="4"/><path stroke-linecap="round" transform="matrix(0.426742, 0.00040847, -0.000408808, 0.426389, 665.254196, 228.044653)" fill-opacity="1" fill="#d4d4d4" fill-rule="nonzero" stroke-linejoin="round" d="M -13.151792 -16.289204 C 3.241854 -26.437244 12.818246 -24.705782 14.58126 -9.399032 C 15.135104 -4.571587 14.627195 0.330165 13.423414 5.031036 C 8.170541 25.529771 -3.197441 26.438464 -15.134687 25.533775 C -15.134687 25.533775 -13.151792 -16.289204 -13.151792 -16.289204 Z M -13.151792 -16.289204 " stroke="#253237" stroke-width="2" stroke-opacity="1" stroke-miterlimit="4"/><path stroke-linecap="round" transform="matrix(0.426742, 0.00040847, -0.000408808, 0.426389, 629.745311, 195.63239)" fill-opacity="1" fill="#253237" fill-rule="nonzero" stroke-linejoin="round" d="M 19.940167 -17.387831 C 19.776867 22.362963 38.584989 48.252944 70.126094 64.832064 C 70.126094 64.832064 79.109457 -17.389546 79.109457 -17.389546 C -4.005509 -64.838458 -42.431533 -35.064249 -79.106321 -2.277668 C -79.106321 -2.277668 -70.979788 24.382928 -70.979788 24.382928 C -37.71876 20.842309 -6.625298 9.68161 19.940167 -17.387831 Z M 19.940167 -17.387831 " stroke="#253237" stroke-width="2" stroke-opacity="1" stroke-miterlimit="4"/><path stroke-linecap="round" transform="matrix(0.426742, 0.00040847, -0.000408808, 0.426389, 617.58092, 226.526264)" fill="none" stroke-linejoin="round" d="M 2.136163 -27.877179 C 0.630663 -3.699213 -3.088337 12.684654 -8.552333 23.01461 C -5.216234 27.363005 1.283354 27.869808 8.550971 27.459751 " stroke="#253237" stroke-width="2" stroke-opacity="1" stroke-miterlimit="4"/><path stroke-linecap="round" transform="matrix(0.426742, 0.00040847, -0.000408808, 0.426389, 637.075269, 211.008588)" fill="none" stroke-linejoin="round" d="M -13.34272 -3.516116 C -2.304323 -4.479459 6.17521 -1.097922 13.338723 4.483574 " stroke="#253237" stroke-width="2" stroke-opacity="1" stroke-miterlimit="4"/><path stroke-linecap="round" transform="matrix(0.426742, 0.00040847, -0.000408808, 0.426389, 607.948398, 209.698559)" fill="none" stroke-linejoin="round" d="M -9.944843 3.409897 C -3.304186 -1.708439 3.321438 -3.409616 9.941173 -1.702805 " stroke="#253237" stroke-width="2" stroke-opacity="1" stroke-miterlimit="4"/><path stroke-linecap="round" transform="matrix(0.426742, 0.00040847, -0.000408808, 0.426389, 632.761599, 221.883788)" fill-opacity="1" fill="#253237" fill-rule="nonzero" stroke-linejoin="round" d="M 4.275045 0.00277825 C 4.279591 4.748298 2.361001 8.588698 -0.000642619 8.59096 C -2.362286 8.593222 -4.279086 4.747336 -4.274479 0.00180724 C -4.279025 -4.743713 -2.360443 -8.593273 0.00120047 -8.595536 C 2.362853 -8.588637 4.279653 -4.742751 4.275045 0.00277825 Z M 4.275045 0.00277825 " stroke="#253237" stroke-width="2" stroke-opacity="1" stroke-miterlimit="4"/><path stroke-linecap="round" transform="matrix(0.426742, 0.00040847, -0.000408808, 0.426389, 635.497511, 219.102074)" fill-opacity="1" fill="#253237" fill-rule="nonzero" stroke-linejoin="round" d="M -6.403713 -2.065507 C -1.506287 -1.841168 2.721877 -2.706375 6.409099 -4.487189 C 5.479129 -0.620253 1.985039 2.103984 -2.250822 4.489965 C -2.250822 4.489965 -6.403713 -2.065507 -6.403713 -2.065507 Z M -6.403713 -2.065507 " stroke="#253237" stroke-width="2" stroke-opacity="1" stroke-miterlimit="4"/><path stroke-linecap="round" transform="matrix(0.426742, 0.00040847, -0.000408808, 0.426389, 609.762296, 220.988955)" fill-opacity="1" fill="#253237" fill-rule="nonzero" stroke-linejoin="round" d="M -4.276113 0.00251614 C -4.271567 4.748036 -2.36392 8.593931 -0.00227667 8.591669 C 2.359367 8.589406 4.277957 4.749007 4.273411 0.00348714 C 4.278019 -4.742042 2.361219 -8.587928 -0.000433581 -8.594827 C -2.362077 -8.592564 -4.271505 -4.743013 -4.276113 0.00251614 Z M -4.276113 0.00251614 " stroke="#253237" stroke-width="2" stroke-opacity="1" stroke-miterlimit="4"/><path stroke-linecap="round" transform="matrix(0.426742, 0.00040847, -0.000408808, 0.426389, 607.031685, 218.202015)" fill-opacity="1" fill="#253237" fill-rule="nonzero" stroke-linejoin="round" d="M 6.404568 -2.064811 C 1.507572 -1.84025 -2.722251 -2.706516 -6.403732 -4.489432 C -5.475509 -0.624276 -1.985351 2.102431 2.255083 4.489454 C 2.255083 4.489454 6.404568 -2.064811 6.404568 -2.064811 Z M 6.404568 -2.064811 " stroke="#253237" stroke-width="2" stroke-opacity="1" stroke-miterlimit="4"/><path stroke-linecap="round" transform="matrix(0.426742, 0.00040847, -0.000408808, 0.426389, 631.34034, 246.083836)" fill-opacity="1" fill="#253237" fill-rule="nonzero" stroke-linejoin="round" d="M 20.906012 -9.341246 C 21.962272 -5.595309 15.291714 6.531407 3.752077 9.803865 C -7.796705 13.085492 -19.84031 6.262742 -20.896562 2.525966 C -21.961975 -1.219962 -11.865518 -1.257118 -0.316737 -4.538746 C 11.2229 -7.811203 19.840598 -13.087174 20.906012 -9.341246 Z M 20.906012 -9.341246 " stroke="#253237" stroke-width="2" stroke-opacity="1" stroke-miterlimit="4"/><path stroke-linecap="round" transform="matrix(0.426742, -0.00040847, 0.000408808, 0.426389, 457.098241, 337.7305)" fill-opacity="1" fill="#d4d4d4" fill-rule="nonzero" stroke-linejoin="round" d="M -69.210361 26.711941 C -69.210361 26.711941 90.188828 86.898274 90.188828 86.898274 C 137.23183 103.58932 160.30819 27.179168 113.265187 10.488121 C 12.25484 -37.650208 28.968469 -27.089605 -56.206438 -65.254492 C -53.772478 -16.523503 -131.153472 -11.238304 -69.210361 26.711941 Z M -69.210361 26.711941 " stroke="#253237" stroke-width="2" stroke-opacity="1" stroke-miterlimit="4"/><path stroke-linecap="round" transform="matrix(0.426742, 0, 0, 0.426389, 370.060482, 469.620594)" fill-opacity="1" fill="#253237" fill-rule="nonzero" stroke-linejoin="round" d="M 102.287732 -27.152739 C 102.287732 -27.152739 102.287732 8.227965 102.287732 8.227965 C 40.106916 27.155085 -28.820147 24.818969 -102.287426 8.227965 C -102.287426 8.227965 -100.209545 -24.193659 -100.209545 -24.193659 C -21.597909 -12.201598 47.091159 -11.807664 102.287732 -27.152739 Z M 102.287732 -27.152739 " stroke="#253237" stroke-width="2" stroke-opacity="1" stroke-miterlimit="4"/><path stroke-linecap="round" transform="matrix(0.426742, 0, 0, 0.426389, 369.796325, 484.745044)" fill-opacity="1" fill="#253237" fill-rule="nonzero" stroke-linejoin="round" d="M 107.236421 27.247987 C 107.236421 27.247987 -107.242997 27.247987 -107.242997 27.247987 C -107.242997 27.247987 -103.673069 -7.656333 -103.673069 -7.656333 C -103.673069 -7.656333 -101.659264 -27.252223 -101.659264 -27.252223 C -101.659264 -27.252223 102.897586 -27.252223 102.897586 -27.252223 C 102.897586 -27.252223 104.462862 -7.656333 104.462862 -7.656333 C 104.462862 -7.656333 107.236421 27.247987 107.236421 27.247987 Z M 107.236421 27.247987 " stroke="#253237" stroke-width="2" stroke-opacity="1" stroke-miterlimit="4"/><path stroke-linecap="round" transform="matrix(0.426742, -0.00040847, 0.000408808, 0.426389, 366.507187, 375.449045)" fill-opacity="1" fill="#d4d4d4" fill-rule="nonzero" stroke-linejoin="round" d="M 158.973196 -152.913365 C 129.222995 -171.200224 100.102133 -187.122879 72.230837 -198.362942 C 72.230837 -198.362942 -58.601448 -209.014546 -58.601448 -209.014546 C -93.315625 -195.828126 -127.034774 -179.800767 -158.97383 -158.687213 C -158.97383 -158.687213 -92.071331 196.567471 -92.071331 196.567471 C -4.646924 208.469226 66.000173 209.398061 110.410214 193.985586 C 110.410214 193.985586 158.973196 -152.913365 158.973196 -152.913365 Z M 158.973196 -152.913365 " stroke="#253237" stroke-width="2" stroke-opacity="1" stroke-miterlimit="4"/><path stroke-linecap="butt" transform="matrix(0.426742, -0.00040847, 0.000408808, 0.426389, 367.319339, 281.576992)" fill-opacity="1" fill="#ffffff" fill-rule="nonzero" stroke-linejoin="miter" d="M -44.072281 -67.237287 C -44.072281 -67.237287 -39.855728 -6.475878 -39.855728 -6.475878 C -39.855728 -6.475878 20.533614 67.238376 20.533614 67.238376 C 20.533614 67.238376 44.073185 23.277794 44.073185 23.277794 C 44.073185 23.277794 44.074423 -35.345006 44.074423 -35.345006 C 44.074423 -35.345006 -44.072281 -67.237287 -44.072281 -67.237287 Z M -44.072281 -67.237287 " stroke="#253237" stroke-width="2" stroke-opacity="1" stroke-miterlimit="10"/><path stroke-linecap="round" transform="matrix(0.426742, -0.00040847, 0.000408808, 0.426389, 367.306309, 267.982904)" fill-opacity="1" fill="#253237" fill-rule="nonzero" stroke-linejoin="round" d="M 42.246159 3.506872 C 42.246159 3.506872 42.24457 24.27541 42.24457 24.27541 C -2.865527 25.148321 -25.355957 5.906485 -42.24218 -25.147986 C -13.665535 -4.892584 12.459677 3.982205 42.246159 3.506872 Z M 42.246159 3.506872 " stroke="#253237" stroke-width="2" stroke-opacity="1" stroke-miterlimit="4"/><path stroke-linecap="round" transform="matrix(0.426742, -0.00040847, 0.000408808, 0.426389, 355.09026, 293.658925)" fill-opacity="1" fill="#d4d4d4" fill-rule="nonzero" stroke-linejoin="round" d="M 49.217603 38.930356 C 49.217603 38.930356 17.98358 21.613167 17.98358 21.613167 C 17.98358 21.613167 0.522028 46.478378 0.522028 46.478378 C 0.522028 46.478378 -49.219259 -20.125711 -49.219259 -20.125711 C -49.219259 -20.125711 -24.643885 -46.477389 -24.643885 -46.477389 C -24.643885 -46.477389 -11.98436 -46.483584 -11.98436 -46.483584 C -11.98436 -46.483584 -11.171738 -34.783897 -11.171738 -34.783897 C -11.171738 -34.783897 49.217603 38.930356 49.217603 38.930356 Z M 49.217603 38.930356 " stroke="#253237" stroke-width="2" stroke-opacity="1" stroke-miterlimit="4"/><path stroke-linecap="round" transform="matrix(0.426742, -0.00040847, 0.000408808, 0.426389, 386.678963, 298.55181)" fill-opacity="1" fill="#d4d4d4" fill-rule="nonzero" stroke-linejoin="round" d="M -24.794354 27.384277 C -24.794354 27.384277 -3.086979 13.6174 -3.086979 13.6174 C -3.086979 13.6174 20.9456 37.890236 20.9456 37.890236 C 20.9456 37.890236 24.797973 -18.062952 24.797973 -18.062952 C 24.797973 -18.062952 -1.261821 -37.894526 -1.261821 -37.894526 C -1.261821 -37.894526 -1.254782 -16.576305 -1.254782 -16.576305 C -1.254782 -16.576305 -24.794354 27.384277 -24.794354 27.384277 Z M -24.794354 27.384277 " stroke="#253237" stroke-width="2" stroke-opacity="1" stroke-miterlimit="4"/><path stroke-linecap="round" transform="matrix(0.426742, -0.00040847, 0.000408808, 0.426389, 374.364526, 313.743029)" fill-opacity="1" fill="#7aba59" fill-rule="nonzero" stroke-linejoin="round" d="M 20.491667 -18.616313 C 22.334097 -2.160954 20.526702 11.698277 14.978033 22.869679 C 14.978033 22.869679 -11.219759 22.872066 -11.219759 22.872066 C -18.778714 11.257529 -21.545971 -4.878073 -22.334256 -22.871511 C -22.334256 -22.871511 4.096643 -8.215685 4.096643 -8.215685 C 4.096643 -8.215685 20.491667 -18.616313 20.491667 -18.616313 Z M 20.491667 -18.616313 " stroke="#253237" stroke-width="2" stroke-opacity="1" stroke-miterlimit="4"/><path stroke-linecap="round" transform="matrix(0.426742, -0.00040847, 0.000408808, 0.426389, 376.373164, 387.578475)" fill-opacity="1" fill="#7aba59" fill-rule="nonzero" stroke-linejoin="round" d="M 10.437006 -150.299353 C 10.437006 -150.299353 30.200506 -26.850979 30.200506 -26.850979 C 24.737537 28.633443 14.162308 88.831007 2.221964 150.300678 C -11.381642 94.284961 -23.792895 35.787689 -30.196453 -35.282215 C -30.196453 -35.282215 -15.760786 -150.296966 -15.760786 -150.296966 C -15.760786 -150.296966 10.437006 -150.299353 10.437006 -150.299353 Z M 10.437006 -150.299353 " stroke="#253237" stroke-width="2" stroke-opacity="1" stroke-miterlimit="4"/><path stroke-linecap="round" transform="matrix(0.426742, -0.00040847, 0.000408808, 0.426389, 298.954788, 402.126354)" fill-opacity="1" fill="#d4d4d4" fill-rule="nonzero" stroke-linejoin="round" d="M 56.459801 -90.059085 C 56.459801 -90.059085 9.108735 186.162028 9.108735 186.162028 C 9.108735 186.162028 5.76428 199.23192 5.76428 199.23192 C 5.76428 199.23192 -54.897942 200.15406 -54.897942 200.15406 C -53.779204 188.520352 -54.611915 197.790733 -53.50233 186.157016 C -36.998893 14.811756 -20.371228 -152.438308 -0.387102 -221.073527 C 33.660832 -207.656332 56.851503 -145.401785 56.459801 -90.059085 Z M 56.459801 -90.059085 " stroke="#253237" stroke-width="2" stroke-opacity="1" stroke-miterlimit="4"/><path stroke-linecap="round" transform="matrix(0.426742, -0.00040847, 0.000408808, 0.426389, 410.901685, 204.638586)" fill-opacity="1" fill="#253237" fill-rule="nonzero" stroke-linejoin="round" d="M 8.054413 -35.76216 C 15.565344 -12.238051 10.745957 11.631534 -3.941326 35.757342 C -3.941326 35.757342 -15.565549 -32.101967 -15.565549 -32.101967 C -15.565549 -32.101967 8.054413 -35.76216 8.054413 -35.76216 Z M 8.054413 -35.76216 " stroke="#253237" stroke-width="2" stroke-opacity="1" stroke-miterlimit="4"/><path stroke-linecap="butt" transform="matrix(0.426742, -0.00040847, 0.000408808, 0.426389, 378.055009, 222.055618)" fill-opacity="1" fill="#ffffff" fill-rule="nonzero" stroke-linejoin="miter" d="M -73.14183 -15.67385 C -73.14183 -15.67385 -72.479326 28.511465 -72.479326 28.511465 C -72.479326 28.511465 -68.70393 81.577007 -68.70393 81.577007 C -33.623238 106.226876 3.492084 118.69424 44.271704 109.095677 C 53.006267 107.042764 60.024208 100.535843 62.769339 91.991032 C 74.879083 54.34992 76.256326 2.196277 67.184455 -64.075692 C 35.876325 -118.697537 -33.401805 -115.365083 -76.247518 -70.296162 C -76.247518 -70.296162 -73.14183 -15.67385 -73.14183 -15.67385 Z M -73.14183 -15.67385 " stroke="#253237" stroke-width="2" stroke-opacity="1" stroke-miterlimit="10"/><path stroke-linecap="butt" transform="matrix(0.426742, -0.00040847, 0.000408808, 0.426389, 340.09301, 222.164871)" fill-opacity="1" fill="#ffffff" fill-rule="nonzero" stroke-linejoin="miter" d="M 15.816139 -15.844857 C 7.234459 -30.053007 -16.601461 -20.731372 -9.347131 3.103973 C -1.622208 23.018757 7.352632 28.139329 16.605153 30.053731 C 16.605153 30.053731 15.816139 -15.844857 15.816139 -15.844857 Z M 15.816139 -15.844857 " stroke="#253237" stroke-width="2" stroke-opacity="1" stroke-miterlimit="10"/><path stroke-linecap="round" transform="matrix(0.426742, -0.00040847, 0.000408808, 0.426389, 346.483817, 201.646872)" fill-opacity="1" fill="#253237" fill-rule="nonzero" stroke-linejoin="round" d="M 20.975315 -41.311767 C 38.305083 -14.608461 24.331926 38.036983 1.581025 51.812022 C 1.581025 51.812022 0.794232 32.261173 0.794232 32.261173 C -4.966832 26.264201 -11.178716 22.657881 -19.129593 28.394364 C -36.069246 -4.21757 -38.30416 -31.401122 -22.155846 -51.815226 C -22.155846 -51.815226 20.975315 -41.311767 20.975315 -41.311767 Z M 20.975315 -41.311767 " stroke="#253237" stroke-width="2" stroke-opacity="1" stroke-miterlimit="4"/><path stroke-linecap="round" transform="matrix(0.426742, -0.00040847, 0.000408808, 0.426389, 380.434307, 175.985843)" fill-opacity="1" fill="#253237" fill-rule="nonzero" stroke-linejoin="round" d="M 75.713369 -43.52011 C 101.763755 -4.312514 88.297444 25.67766 62.668619 52.843681 C 40.987485 29.663286 2.645529 26.795731 -50.881755 42.41018 C -50.881755 42.41018 -101.761755 8.290772 -101.761755 8.290772 C -97.25067 -37.740158 -46.405898 -52.844147 -7.268434 -29.967673 C 35.004662 -12.392556 63.228914 -16.048338 75.713369 -43.52011 Z M 75.713369 -43.52011 " stroke="#253237" stroke-width="2" stroke-opacity="1" stroke-miterlimit="4"/><path stroke-linecap="round" transform="matrix(0.426742, -0.00040847, 0.000408808, 0.426389, 395.075511, 227.74313)" fill="none" stroke-linejoin="round" d="M -3.33034 -33.489747 C -2.136564 -8.789889 3.198271 12.148664 12.655842 29.344218 C 3.535658 32.615206 -4.849934 33.486652 -12.65702 32.453114 " stroke="#253237" stroke-width="2" stroke-opacity="1" stroke-miterlimit="4"/><path stroke-linecap="round" transform="matrix(0.426742, -0.00040847, 0.000408808, 0.426389, 373.706661, 208.887766)" fill="none" stroke-linejoin="round" d="M 12.215973 -4.296539 C 1.407049 -5.919272 -6.733817 -2.519088 -12.215795 5.922327 " stroke="#253237" stroke-width="2" stroke-opacity="1" stroke-miterlimit="4"/><path stroke-linecap="round" transform="matrix(0.426742, -0.00040847, 0.000408808, 0.426389, 402.053374, 208.827796)" fill="none" stroke-linejoin="round" d="M 9.657053 3.280588 C 4.745594 -0.956612 -1.202062 -3.280104 -9.662227 -1.007059 " stroke="#253237" stroke-width="2" stroke-opacity="1" stroke-miterlimit="4"/><path stroke-linecap="round" transform="matrix(0.426742, -0.00040847, 0.000408808, 0.426389, 376.815184, 222.79061)" fill-opacity="1" fill="#253237" fill-rule="nonzero" stroke-linejoin="round" d="M -4.958423 0.00078164 C -4.954474 5.433403 -2.74351 9.84208 0.00258706 9.84471 C 2.73953 9.847332 4.958945 5.433739 4.954996 0.00111721 C 4.9602 -5.431496 2.740083 -9.840181 0.00313988 -9.842803 C -2.742957 -9.845433 -4.962372 -5.43184 -4.958423 0.00078164 Z M -4.958423 0.00078164 " stroke="#253237" stroke-width="2" stroke-opacity="1" stroke-miterlimit="4"/><path stroke-linecap="round" transform="matrix(0.426742, -0.00040847, 0.000408808, 0.426389, 402.064384, 220.27591)" fill-opacity="1" fill="#253237" fill-rule="nonzero" stroke-linejoin="round" d="M -3.922183 -0.000395488 C -3.926414 4.41532 -2.163189 7.999056 -0.00292642 8.001125 C 2.16649 8.003203 3.918279 4.413674 3.922509 -0.00204171 C 3.917586 -4.417766 2.163515 -8.001493 0.00325201 -8.003562 C -2.166173 -7.996479 -3.917953 -4.416111 -3.922183 -0.000395488 Z M -3.922183 -0.000395488 " stroke="#253237" stroke-width="2" stroke-opacity="1" stroke-miterlimit="4"/><path stroke-linecap="round" transform="matrix(0.426742, -0.00040847, 0.000408808, 0.426389, 378.028421, 248.622256)" fill-opacity="1" fill="#253237" fill-rule="nonzero" stroke-linejoin="round" d="M -18.517077 -13.011108 C -20.552366 -9.696687 -17.416418 3.782507 -7.179479 10.058604 C 3.048306 16.334693 16.48906 13.022038 18.524349 9.707617 C 20.550484 6.393188 10.841105 3.617191 0.613311 -2.649737 C -9.614475 -8.925826 -16.48178 -16.33469 -18.517077 -13.011108 Z M -18.517077 -13.011108 " stroke="#253237" stroke-width="2" stroke-opacity="1" stroke-miterlimit="4"/><path stroke-linecap="butt" transform="matrix(0.420329, 0.0736393, -0.0737003, 0.419982, 486.286067, 226.918196)" fill-opacity="1" fill="#ffffff" fill-rule="nonzero" stroke-linejoin="miter" d="M 4.458121 88.563178 C -11.528426 62.421538 -26.489997 35.765344 -38.812733 7.781465 C -39.772026 5.596513 -40.448027 3.278181 -40.731588 0.918942 C -42.497675 -13.764605 -41.414797 -28.259414 -36.43043 -42.498907 C -36.43043 -42.498907 -25.342653 -76.150139 -25.342653 -76.150139 C -24.087042 -79.960483 -21.687466 -83.394747 -18.251443 -85.476076 C -13.152058 -88.565235 -9.420071 -86.838544 -7.050107 -80.371352 C -5.442816 -75.974771 -5.43311 -71.149254 -6.607226 -66.609119 C -6.607226 -66.609119 -11.980736 -45.790694 -11.980736 -45.790694 C -14.295441 -36.837217 -14.517103 -27.39504 -12.052439 -18.479688 C -10.29748 -12.127885 -7.66612 -7.296998 -3.497066 -5.144687 C -3.497066 -5.144687 -2.28689 -16.899419 -2.28689 -16.899419 C -1.783306 -21.712625 0.611 -26.289988 4.677499 -28.909711 C 8.61825 -31.451579 12.446982 -31.081194 16.119441 -26.990912 C 18.869673 -23.920154 20.320351 -19.886755 20.661093 -15.770351 C 20.661093 -15.770351 21.558129 -5.036166 21.558129 -5.036166 C 22.481759 6.167707 25.404757 17.114022 29.957914 27.393165 C 33.275571 34.866114 35.569962 42.174346 36.474743 49.242579 C 37.547888 57.695043 39.542258 65.995281 41.710623 74.227807 C 41.710623 74.227807 42.497854 77.233513 42.497854 77.233513 C 42.497854 77.233513 4.458121 88.563178 4.458121 88.563178 Z M 4.458121 88.563178 " stroke="#253237" stroke-width="2" stroke-opacity="1" stroke-miterlimit="10"/><path fill="#d4d4d4" d="M 484.285156 360.527344 C 485.070312 381.289062 518.015625 382.46875 518.351562 355.328125 C 518.351562 355.328125 505.316406 255.636719 505.316406 255.636719 C 505.316406 255.636719 478.546875 261.636719 478.546875 261.636719 C 478.546875 261.636719 484.285156 360.527344 484.285156 360.527344 Z M 484.285156 360.527344 " fill-opacity="1" fill-rule="nonzero"/><path stroke-linecap="butt" transform="matrix(0.420329, 0.0736393, -0.0737003, 0.419982, 484.913769, 298.62815)" fill="none" stroke-linejoin="miter" d="M 29.678581 -107.568828 C 29.678581 -107.568828 -29.678616 -82.874837 -29.678616 -82.874837 C -29.678616 -82.874837 15.209756 107.57038 15.209756 107.57038 " stroke="#253237" stroke-width="2" stroke-opacity="1" stroke-miterlimit="10"/><path stroke-linecap="round" transform="matrix(0.420329, 0.0736393, -0.0737003, 0.419982, 511.367649, 321.724759)" fill="none" stroke-linejoin="round" d="M -40.735357 -150.216807 C -40.735357 -150.216807 27.29338 66.994505 27.29338 66.994505 C 40.735271 103.004236 8.70951 150.222986 -34.712453 121.58127 " stroke="#253237" stroke-width="2" stroke-opacity="1" stroke-miterlimit="4"/><path stroke-linecap="round" transform="matrix(0.426742, 0, 0, 0.426389, 512.270497, 488.920686)" fill-opacity="1" fill="#ffffff" fill-rule="nonzero" stroke-linejoin="round" d="M 575.232069 17.454949 C 575.232069 17.454949 -575.22744 17.454949 -575.22744 17.454949 C -575.22744 17.454949 -575.22744 -17.458532 -575.22744 -17.458532 C -575.22744 -17.458532 575.232069 -17.458532 575.232069 -17.458532 C 575.232069 -17.458532 575.232069 17.454949 575.232069 17.454949 Z M 575.232069 17.454949 " stroke="#253237" stroke-width="2" stroke-opacity="1" stroke-miterlimit="4"/></svg>