<svg xmlns="http://www.w3.org/2000/svg" xmlns:xlink="http://www.w3.org/1999/xlink" width="1366" zoomAndPan="magnify" viewBox="0 0 1024.5 576" height="768" preserveAspectRatio="xMidYMid meet" version="1.0"><defs><clipPath id="4d1473d909"><path d="M 0 0.140625 L 1024 0.140625 L 1024 575.859375 L 0 575.859375 Z M 0 0.140625 " clip-rule="nonzero"/></clipPath></defs><g clip-path="url(#4d1473d909)"><path fill="#ffffff" d="M 0 0.140625 L 1024.5 0.140625 L 1024.5 583.640625 L 0 583.640625 Z M 0 0.140625 " fill-opacity="1" fill-rule="nonzero"/><path fill="#ffffff" d="M 0 0.140625 L 1024.5 0.140625 L 1024.5 576.140625 L 0 576.140625 Z M 0 0.140625 " fill-opacity="1" fill-rule="nonzero"/><path fill="#eeeeee" d="M 0 0.140625 L 1024.5 0.140625 L 1024.5 576.140625 L 0 576.140625 Z M 0 0.140625 " fill-opacity="1" fill-rule="nonzero"/></g><path fill="#7aba59" d="M 729.695312 290.296875 C 729.695312 319.105469 714.269531 345.136719 689.445312 363.726562 C 675.894531 373.871094 663.710938 385.703125 652.691406 398.550781 C 628.984375 426.203125 588.335938 444.4375 542.175781 444.4375 C 486.195312 444.4375 438.324219 417.621094 418.9375 379.714844 C 409.984375 362.214844 395.671875 347.972656 377.90625 339.566406 C 338.316406 320.832031 311.703125 285.929688 311.703125 245.960938 C 311.703125 186.207031 371.207031 137.761719 444.613281 137.761719 C 485.308594 137.761719 521.734375 152.652344 546.113281 176.105469 C 555.707031 185.335938 568.875 189.828125 582.136719 188.664062 C 587.089844 188.230469 592.128906 188.007812 597.238281 188.007812 C 670.390625 188.007812 729.695312 233.800781 729.695312 290.296875 Z M 729.695312 290.296875 " fill-opacity="1" fill-rule="nonzero"/><path stroke-linecap="round" transform="matrix(0.471528, 0, 0, 0.471528, 452.425394, 339.279841)" fill-opacity="1" fill="#d4d4d4" fill-rule="nonzero" stroke-linejoin="round" d="M -1.308089 -206.200091 C -30.418917 -194.7347 -50.243109 -141.508442 -49.91174 -94.188849 C -49.91174 -94.188849 1.583111 206.197781 1.583111 206.197781 C 1.583111 206.197781 50.244751 205.858127 50.244751 205.858127 C 34.065626 38.8478 18.259291 -138.990032 -1.308089 -206.200091 Z M -1.308089 -206.200091 " stroke="#231f1f" stroke-width="2" stroke-opacity="1" stroke-miterlimit="4"/><path stroke-linecap="round" transform="matrix(0.471528, 0, 0, 0.471528, 388.193869, 303.696965)" fill-opacity="1" fill="#d4d4d4" fill-rule="nonzero" stroke-linejoin="round" d="M 135.922626 -130.737134 C 110.481718 -146.3695 85.587569 -159.988794 61.762088 -169.590231 C 61.762088 -169.590231 -50.108322 -178.702898 -50.108322 -178.702898 C -79.782478 -167.428044 -108.611642 -153.725907 -135.916505 -135.674543 C -135.916505 -135.674543 -78.713811 168.058922 -78.713811 168.058922 C -3.658575 178.049718 56.443604 178.704173 94.410287 165.523944 C 94.410287 165.523944 135.922626 -130.737134 135.922626 -130.737134 Z M 135.922626 -130.737134 " stroke="#231f1f" stroke-width="2" stroke-opacity="1" stroke-miterlimit="4"/><path stroke-linecap="butt" transform="matrix(0.471528, 0, 0, 0.471528, 389.045905, 214.944592)" fill-opacity="1" fill="#ffffff" fill-rule="nonzero" stroke-linejoin="miter" d="M -37.674677 -57.482829 C -37.674677 -57.482829 -34.079316 -5.540629 -34.079316 -5.540629 C -34.079316 -5.540629 17.556368 57.485887 17.556368 57.485887 C 17.556368 57.485887 37.678792 19.900279 37.678792 19.900279 C 37.678792 19.900279 37.678792 -30.219388 37.678792 -30.219388 C 37.678792 -30.219388 -37.674677 -57.482829 -37.674677 -57.482829 Z M -37.674677 -57.482829 " stroke="#231f1f" stroke-width="2" stroke-opacity="1" stroke-miterlimit="10"/><path stroke-linecap="round" transform="matrix(0.471528, 0, 0, 0.471528, 389.045905, 202.091221)" fill-opacity="1" fill="#231f1f" fill-rule="nonzero" stroke-linejoin="round" d="M 36.113071 2.995975 C 36.113071 2.995975 36.113071 20.75739 36.113071 20.75739 C -2.450078 21.502972 -21.677805 5.050467 -36.117239 -21.50053 C -11.678724 -4.186464 10.655594 3.401902 36.113071 2.995975 Z M 36.113071 2.995975 " stroke="#231f1f" stroke-width="2" stroke-opacity="1" stroke-miterlimit="4"/><path stroke-linecap="round" transform="matrix(0.471528, 0, 0, 0.471528, 377.482651, 226.35651)" fill-opacity="1" fill="#d4d4d4" fill-rule="nonzero" stroke-linejoin="round" d="M 42.079324 33.283877 C 42.079324 33.283877 15.37921 18.479936 15.37921 18.479936 C 15.37921 18.479936 0.442721 39.737302 0.442721 39.737302 C 0.442721 39.737302 -42.080295 -17.208581 -42.080295 -17.208581 C -42.080295 -17.208581 -21.071456 -39.74172 -21.071456 -39.74172 C -21.071456 -39.74172 -10.243952 -39.74172 -10.243952 -39.74172 C -10.243952 -39.74172 -9.556359 -29.74264 -9.556359 -29.74264 C -9.556359 -29.74264 42.079324 33.283877 42.079324 33.283877 Z M 42.079324 33.283877 " stroke="#231f1f" stroke-width="2" stroke-opacity="1" stroke-miterlimit="4"/><path stroke-linecap="round" transform="matrix(0.471528, 0, 0, 0.471528, 407.31949, 231.010949)" fill-opacity="1" fill="#d4d4d4" fill-rule="nonzero" stroke-linejoin="round" d="M -21.197631 23.412901 C -21.197631 23.412901 -2.640928 11.640993 -2.640928 11.640993 C -2.640928 11.640993 17.903993 32.401304 17.903993 32.401304 C 17.903993 32.401304 21.201122 -15.440196 21.201122 -15.440196 C 21.201122 -15.440196 -1.075206 -32.39804 -1.075206 -32.39804 C -1.075206 -32.39804 -1.075206 -14.172707 -1.075206 -14.172707 C -1.075206 -14.172707 -21.197631 23.412901 -21.197631 23.412901 Z M -21.197631 23.412901 " stroke="#231f1f" stroke-width="2" stroke-opacity="1" stroke-miterlimit="4"/><path stroke-linecap="round" transform="matrix(0.471528, 0, 0, 0.471528, 395.672289, 245.362372)" fill-opacity="1" fill="#7aba59" fill-rule="nonzero" stroke-linejoin="round" d="M 17.520295 -15.9121 C 19.094301 -1.845457 17.553432 10.00101 12.806561 19.552741 C 12.806561 19.552741 -9.59403 19.552741 -9.59403 19.552741 C -16.064024 9.619935 -18.425033 -4.165045 -19.096056 -19.548883 C -19.096056 -19.548883 3.503357 -7.023108 3.503357 -7.023108 C 3.503357 -7.023108 17.520295 -15.9121 17.520295 -15.9121 Z M 17.520295 -15.9121 " stroke="#231f1f" stroke-width="2" stroke-opacity="1" stroke-miterlimit="4"/><path stroke-linecap="round" transform="matrix(0.471528, 0, 0, 0.471528, 397.503241, 315.173923)" fill-opacity="1" fill="#7aba59" fill-rule="nonzero" stroke-linejoin="round" d="M 8.92354 -128.501228 C 8.92354 -128.501228 25.815111 -22.951695 25.815111 -22.951695 C 21.151082 24.483877 12.112974 75.953875 1.898503 128.500825 C -9.732574 80.609619 -20.344688 30.597648 -25.820572 -30.167271 C -25.820572 -30.167271 -13.477051 -128.501228 -13.477051 -128.501228 C -13.477051 -128.501228 8.92354 -128.501228 8.92354 -128.501228 Z M 8.92354 -128.501228 " stroke="#231f1f" stroke-width="2" stroke-opacity="1" stroke-miterlimit="4"/><path stroke-linecap="round" transform="matrix(0.471528, 0, 0, 0.471528, 391.476154, 392.694993)" fill-opacity="1" fill="#231f1f" fill-rule="nonzero" stroke-linejoin="round" d="M 87.44933 -23.220053 C 87.44933 -23.220053 87.44933 7.034 87.44933 7.034 C 34.289346 23.213125 -24.644754 21.216623 -87.447596 7.034 C -87.447596 7.034 -85.674768 -20.685075 -85.674768 -20.685075 C -18.464709 -10.437467 40.254001 -10.089529 87.44933 -23.220053 Z M 87.44933 -23.220053 " stroke="#231f1f" stroke-width="2" stroke-opacity="1" stroke-miterlimit="4"/><path stroke-linecap="round" transform="matrix(0.471528, 0, 0, 0.471528, 390.879198, 422.236665)" fill-opacity="1" fill="#231f1f" fill-rule="nonzero" stroke-linejoin="round" d="M 88.715334 -55.616976 C 88.715334 -55.616976 97.571189 55.623831 97.571189 55.623831 C 97.571189 55.623831 -97.572426 55.623831 -97.572426 55.623831 C -97.572426 55.623831 -86.181592 -55.616976 -86.181592 -55.616976 C -86.181592 -55.616976 88.715334 -55.616976 88.715334 -55.616976 Z M 88.715334 -55.616976 " stroke="#231f1f" stroke-width="2" stroke-opacity="1" stroke-miterlimit="4"/><path stroke-linecap="round" transform="matrix(0.471528, 0, 0, 0.471528, 314.223429, 313.542005)" fill-opacity="1" fill="#d4d4d4" fill-rule="nonzero" stroke-linejoin="round" d="M 58.195164 -23.036433 C 58.195164 -23.036433 13.683929 115.666638 13.683929 115.666638 C -0.175608 156.027467 -65.745387 133.51918 -51.88585 93.158351 C -30.371672 -0.0642291 -5.560366 -82.045092 21.595381 -156.031661 C 52.918101 -128.469987 65.742109 -84.687766 58.195164 -23.036433 Z M 58.195164 -23.036433 " stroke="#231f1f" stroke-width="2" stroke-opacity="1" stroke-miterlimit="4"/><path fill="#231f1f" d="M 371.625 189.902344 C 371.625 189.902344 373.394531 193.675781 373.394531 193.675781 C 373.394531 193.675781 385.535156 202.046875 385.535156 202.046875 C 385.535156 202.046875 406.871094 206.054688 406.871094 206.054688 C 406.871094 206.054688 407.109375 196.152344 407.109375 196.152344 C 407.109375 196.152344 371.625 189.902344 371.625 189.902344 Z M 371.625 189.902344 " fill-opacity="1" fill-rule="nonzero"/><path stroke-linecap="round" transform="matrix(0.471528, 0, 0, 0.471528, 430.287631, 142.240697)" fill-opacity="1" fill="#231f1f" fill-rule="nonzero" stroke-linejoin="round" d="M 6.887241 -30.573978 C 13.307529 -10.459838 9.19026 9.944251 -3.368651 30.572015 C -3.368651 30.572015 -13.301458 -27.450819 -13.301458 -27.450819 C -13.301458 -27.450819 6.887241 -30.573978 6.887241 -30.573978 Z M 6.887241 -30.573978 " stroke="#231f1f" stroke-width="2" stroke-opacity="1" stroke-miterlimit="4"/><path stroke-linecap="butt" transform="matrix(0.471528, 0, 0, 0.471528, 399.241308, 158.678621)" fill-opacity="1" fill="#ffffff" fill-rule="nonzero" stroke-linejoin="miter" d="M -62.53588 -13.401643 C -62.53588 -13.401643 -61.964267 24.374502 -61.964267 24.374502 C -61.964267 24.374502 -58.741697 69.747298 -58.741697 69.747298 C -28.744455 90.822411 2.984193 101.484231 37.85257 93.274547 C 45.324956 91.510003 51.314464 85.951276 53.667188 78.652859 C 64.022491 46.468577 65.19057 1.8745 57.436519 -54.781434 C 30.670131 -101.479709 -28.553918 -98.629929 -65.195122 -60.099918 C -65.195122 -60.099918 -62.53588 -13.401643 -62.53588 -13.401643 Z M -62.53588 -13.401643 " stroke="#231f1f" stroke-width="2" stroke-opacity="1" stroke-miterlimit="10"/><path stroke-linecap="butt" transform="matrix(0.471528, 0, 0, 0.471528, 363.378783, 158.747465)" fill-opacity="1" fill="#ffffff" fill-rule="nonzero" stroke-linejoin="miter" d="M 13.520145 -13.547645 C 6.180307 -25.692345 -14.19893 -17.722903 -7.994032 2.656333 C -1.383207 19.688735 6.288002 24.062815 14.191169 25.694811 C 14.191169 25.694811 13.520145 -13.547645 13.520145 -13.547645 Z M 13.520145 -13.547645 " stroke="#231f1f" stroke-width="2" stroke-opacity="1" stroke-miterlimit="10"/><path stroke-linecap="round" transform="matrix(0.471528, 0, 0, 0.471528, 369.435095, 139.354474)" fill-opacity="1" fill="#231f1f" fill-rule="nonzero" stroke-linejoin="round" d="M 17.932201 -35.3219 C 32.744427 -12.490528 20.798549 32.517761 1.347148 44.297954 C 1.347148 44.297954 0.676124 27.580353 0.676124 27.580353 C -4.244716 22.452407 -9.554915 19.378953 -16.356278 24.27494 C -30.837134 -3.60982 -32.742509 -26.84712 -18.940962 -44.302019 C -18.940962 -44.302019 17.932201 -35.3219 17.932201 -35.3219 Z M 17.932201 -35.3219 " stroke="#231f1f" stroke-width="2" stroke-opacity="1" stroke-miterlimit="4"/><path stroke-linecap="round" transform="matrix(0.471528, 0, 0, 0.471528, 401.531031, 115.123128)" fill-opacity="1" fill="#231f1f" fill-rule="nonzero" stroke-linejoin="round" d="M 64.733535 -37.208847 C 87.009863 -3.690802 75.486482 21.957212 53.574661 45.177944 C 35.04281 25.362036 2.262063 22.9099 -43.500092 36.264099 C -43.500092 36.264099 -87.008934 7.086997 -87.008934 7.086997 C -83.148477 -32.271439 -39.672772 -45.178288 -6.221001 -25.627476 C 29.923148 -10.591576 54.063431 -13.72302 64.733535 -37.208847 Z M 64.733535 -37.208847 " stroke="#231f1f" stroke-width="2" stroke-opacity="1" stroke-miterlimit="4"/><path stroke-linecap="round" transform="matrix(0.471528, 0, 0, 0.471528, 415.315699, 164.071009)" fill="none" stroke-linejoin="round" d="M -2.848279 -28.63182 C -1.829317 -7.515286 2.7353 10.386962 10.820721 25.091492 C 3.025249 27.891566 -4.148905 28.628864 -10.81772 27.750734 " stroke="#231f1f" stroke-width="2" stroke-opacity="1" stroke-miterlimit="4"/><path stroke-linecap="round" transform="matrix(0.471528, 0, 0, 0.471528, 395.146082, 149.937916)" fill="none" stroke-linejoin="round" d="M 10.443142 -3.670802 C 1.206211 -5.062555 -5.760837 -2.154786 -10.441434 5.060789 " stroke="#231f1f" stroke-width="2" stroke-opacity="1" stroke-miterlimit="4"/><path stroke-linecap="round" transform="matrix(0.471528, 0, 0, 0.471528, 421.925073, 149.377272)" fill="none" stroke-linejoin="round" d="M 8.260892 2.811825 C 4.060781 -0.816673 -1.034028 -2.804892 -8.257887 -0.858095 " stroke="#231f1f" stroke-width="2" stroke-opacity="1" stroke-miterlimit="4"/><path stroke-linecap="round" transform="matrix(0.471528, 0, 0, 0.471528, 398.070005, 159.372238)" fill-opacity="1" fill="#231f1f" fill-rule="nonzero" stroke-linejoin="round" d="M -4.24088 -0.00242676 C -4.24088 4.645033 -2.343788 8.414364 0.000652248 8.414364 C 2.345093 8.414364 4.242184 4.645033 4.242184 -0.00242676 C 4.242184 -4.649887 2.345093 -8.419217 0.000652248 -8.419217 C -2.343788 -8.419217 -4.24088 -4.649887 -4.24088 -0.00242676 Z M -4.24088 -0.00242676 " stroke="#231f1f" stroke-width="2" stroke-opacity="1" stroke-miterlimit="4"/><path stroke-linecap="round" transform="matrix(0.471528, 0, 0, 0.471528, 421.925073, 157.017902)" fill-opacity="1" fill="#231f1f" fill-rule="nonzero" stroke-linejoin="round" d="M -3.353616 0.00345452 C -3.353616 3.781069 -1.854168 6.837955 0.00150234 6.837955 C 1.848888 6.837955 3.356621 3.781069 3.356621 0.00345452 C 3.356621 -3.77416 1.848888 -6.83933 0.00150234 -6.83933 C -1.854168 -6.83933 -3.353616 -3.77416 -3.353616 0.00345452 Z M -3.353616 0.00345452 " stroke="#231f1f" stroke-width="2" stroke-opacity="1" stroke-miterlimit="4"/><path stroke-linecap="round" transform="matrix(0.471528, 0, 0, 0.471528, 400.367781, 186.196049)" fill="none" stroke-linejoin="round" d="M 15.374295 7.595088 C 3.610671 5.051826 -6.993159 0.570051 -15.376813 -7.589928 " stroke="#231f1f" stroke-width="2" stroke-opacity="1" stroke-miterlimit="4"/><path stroke-linecap="round" transform="matrix(0.471528, 0, 0, 0.471528, 615.10149, 205.843666)" fill-opacity="1" fill="#231f1f" fill-rule="nonzero" stroke-linejoin="round" d="M 24.513226 -102.359922 C -28.994696 -140.2769 -96.74323 -77.523763 -87.17493 -12.948094 C -101.100742 22.143957 -94.622464 59.249079 -77.846873 97.373163 C -31.943886 122.474417 74.06128 140.277254 101.101048 56.349594 C 95.302078 10.305775 89.337423 -34.122617 81.707636 -62.413305 C 75.511023 -90.695709 53.450085 -100.529105 24.513226 -102.359922 Z M 24.513226 -102.359922 " stroke="#231f1f" stroke-width="2" stroke-opacity="1" stroke-miterlimit="4"/><path stroke-linecap="round" transform="matrix(0.471528, 0, 0, 0.471528, 615.10149, 205.843666)" fill-opacity="1" fill="#231f1f" fill-rule="nonzero" stroke-linejoin="round" d="M 24.513226 -102.359922 C -28.994696 -140.2769 -96.74323 -77.523763 -87.17493 -12.948094 C -101.100742 22.143957 -94.622464 59.249079 -77.846873 97.373163 C -31.943886 122.474417 74.06128 140.277254 101.101048 56.349594 C 95.302078 10.305775 89.337423 -34.122617 81.707636 -62.413305 C 75.511023 -90.695709 53.450085 -100.529105 24.513226 -102.359922 Z M 24.513226 -102.359922 " stroke="#231f1f" stroke-width="2" stroke-opacity="1" stroke-miterlimit="4"/><path stroke-linecap="butt" transform="matrix(0.471528, 0, 0, 0.471528, 564.317078, 350.633315)" fill-opacity="1" fill="#d4d4d4" fill-rule="nonzero" stroke-linejoin="miter" d="M 4.704026 51.170699 C -6.363722 85.210651 -44.421531 72.842278 -33.362068 38.802325 C -33.362068 38.802325 3.983297 -85.212784 3.983297 -85.212784 C 3.983297 -85.212784 44.426969 -55.820292 44.426969 -55.820292 C 44.426969 -55.820292 4.704026 51.170699 4.704026 51.170699 Z M 4.704026 51.170699 " stroke="#231f1f" stroke-width="2" stroke-opacity="1" stroke-miterlimit="10"/><path stroke-linecap="round" transform="matrix(0.471528, 0, 0, 0.471528, 575.770887, 302.214944)" fill-opacity="1" fill="#7aba59" fill-rule="nonzero" stroke-linejoin="round" d="M 12.730005 -64.00427 C -10.01024 -40.543296 -27.374012 -7.787401 -40.454831 32.38289 C -40.454831 32.38289 20.33494 64.003844 20.33494 64.003844 C 20.33494 64.003844 33.581443 14.513779 33.581443 14.513779 C 40.457365 -25.250584 38.86679 -56.697568 12.730005 -64.00427 Z M 12.730005 -64.00427 " stroke="#231f1f" stroke-width="2" stroke-opacity="1" stroke-miterlimit="4"/><path fill="#231f1f" d="M 589.554688 379.324219 C 589.554688 379.324219 651.871094 378.097656 651.871094 378.097656 C 667.273438 429.910156 657.136719 443.585938 657.03125 454.6875 C 633.28125 461.265625 609.359375 461.078125 585.5 453.515625 C 570.019531 413.171875 584.757812 394.074219 589.554688 379.324219 Z M 589.554688 379.324219 " fill-opacity="1" fill-rule="nonzero"/><path stroke-linecap="round" transform="matrix(0.471528, 0, 0, 0.471528, 621.258229, 467.71885)" fill="none" stroke-linejoin="round" d="M -67.235796 -187.464334 C -67.235796 -187.464334 64.922724 -190.065586 64.922724 -190.065586 C 102.085835 -67.185418 71.0862 -49.183759 75.617681 -26.882579 C 25.249487 -12.931914 -25.234687 -14.083424 -75.834839 -30.121718 C -90.415106 -66.680079 -103.910137 -98.185053 -67.235796 -187.464334 Z M -67.235796 -187.464334 " stroke="#231f1f" stroke-width="2" stroke-opacity="1" stroke-miterlimit="4"/><path stroke-linecap="round" transform="matrix(0.471528, 0, 0, 0.471528, 624.130851, 322.838142)" fill-opacity="1" fill="#7aba59" fill-rule="nonzero" stroke-linejoin="round" d="M -89.921292 -107.409878 C -71.530274 -118.577036 -52.377106 -125.916875 -32.014438 -127.200933 C -32.014438 -127.200933 -15.106299 -110.624164 -15.106299 -110.624164 C -15.106299 -110.624164 28.709059 -138.343239 28.709059 -138.343239 C 28.709059 -138.343239 101.693235 -107.409878 101.693235 -107.409878 C 76.691391 -32.031556 62.011714 42.849712 58.830565 117.192503 C 14.774963 138.342174 -29.280638 137.256938 -73.327955 119.793755 C -69.384655 77.361866 -67.926629 39.80111 -76.186018 21.227839 C -98.694305 4.932734 -101.693201 -26.116607 -84.934178 -72.135573 C -84.180312 -81.587894 -86.4999 -93.972836 -89.921292 -107.409878 Z M -89.921292 -107.409878 " stroke="#231f1f" stroke-width="2" stroke-opacity="1" stroke-miterlimit="4"/><path stroke-linecap="round" transform="matrix(0.471528, 0, 0, 0.471528, 623.352263, 247.751625)" fill-opacity="1" fill="#d4d4d4" fill-rule="nonzero" stroke-linejoin="round" d="M -30.363235 -19.198035 C -30.363235 -19.198035 -30.363235 32.040004 -30.363235 32.040004 C -30.363235 32.040004 -13.455096 48.616773 -13.455096 48.616773 C -13.455096 48.616773 30.360262 20.897698 30.360262 20.897698 C 30.360262 20.897698 29.94605 -48.61538 29.94605 -48.61538 C 29.94605 -48.61538 -30.363235 -19.198035 -30.363235 -19.198035 Z M -30.363235 -19.198035 " stroke="#231f1f" stroke-width="2" stroke-opacity="1" stroke-miterlimit="4"/><path stroke-linecap="round" transform="matrix(0.471528, 0, 0, 0.471528, 622.989632, 238.0424)" fill-opacity="1" fill="#231f1f" fill-rule="nonzero" stroke-linejoin="round" d="M -29.594179 5.609639 C -29.594179 5.609639 -29.594179 22.93199 -29.594179 22.93199 C -4.567483 23.337918 18.30531 4.955184 29.588449 -23.343788 C 12.481488 -7.885392 -10.391305 4.73151 -29.594179 5.609639 Z M -29.594179 5.609639 " stroke="#231f1f" stroke-width="2" stroke-opacity="1" stroke-miterlimit="4"/><path stroke-linecap="round" transform="matrix(0.471528, 0, 0, 0.471528, 606.621485, 228.101181)" fill="none" stroke-linejoin="round" d="M -13.810663 -0.786195 C -2.701494 6.354822 6.510584 4.490868 13.809002 -6.353205 " stroke="#231f1f" stroke-width="2" stroke-opacity="1" stroke-miterlimit="4"/><path stroke-linecap="round" transform="matrix(0.471528, 0, 0, 0.471528, 623.352263, 247.751625)" fill-opacity="1" fill="#d4d4d4" fill-rule="nonzero" stroke-linejoin="round" d="M -30.363235 -19.198035 C -30.363235 -19.198035 -30.363235 32.040004 -30.363235 32.040004 C -30.363235 32.040004 -13.455096 48.616773 -13.455096 48.616773 C -13.455096 48.616773 30.360262 20.897698 30.360262 20.897698 C 30.360262 20.897698 29.94605 -48.61538 29.94605 -48.61538 C 29.94605 -48.61538 -30.363235 -19.198035 -30.363235 -19.198035 Z M -30.363235 -19.198035 " stroke="#231f1f" stroke-width="2" stroke-opacity="1" stroke-miterlimit="4"/><path stroke-linecap="round" transform="matrix(0.471528, 0, 0, 0.471528, 622.989632, 238.0424)" fill-opacity="1" fill="#231f1f" fill-rule="nonzero" stroke-linejoin="round" d="M -29.594179 5.609639 C -29.594179 5.609639 -29.594179 22.93199 -29.594179 22.93199 C -4.567483 23.337918 18.30531 4.955184 29.588449 -23.343788 C 12.481488 -7.885392 -10.391305 4.73151 -29.594179 5.609639 Z M -29.594179 5.609639 " stroke="#231f1f" stroke-width="2" stroke-opacity="1" stroke-miterlimit="4"/><path stroke-linecap="round" transform="matrix(0.471528, 0, 0, 0.471528, 608.297859, 267.598686)" fill-opacity="1" fill="#7aba59" fill-rule="nonzero" stroke-linejoin="round" d="M 1.563635 -17.357671 C -14.077015 -10.91253 -18.475948 -3.564407 -15.112545 4.728119 C -13.049769 9.798076 -8.700542 13.559122 -3.58088 14.967443 C 5.059585 17.353305 12.11776 13.352016 18.471773 6.5258 C 18.471773 6.5258 1.563635 -10.050969 1.563635 -10.050969 C 1.563635 -10.050969 1.563635 -17.357671 1.563635 -17.357671 Z M 1.563635 -17.357671 " stroke="#231f1f" stroke-width="2" stroke-opacity="1" stroke-miterlimit="4"/><path stroke-linecap="round" transform="matrix(0.471528, 0, 0, 0.471528, 631.403166, 266.679653)" fill-opacity="1" fill="#7aba59" fill-rule="nonzero" stroke-linejoin="round" d="M -30.529177 8.474852 C -30.529177 8.474852 13.286181 -19.244223 13.286181 -19.244223 C 13.286181 -19.244223 13.286181 -24.869223 13.286181 -24.869223 C 30.52569 -10.570621 29.945793 3.098379 12.515747 16.146061 C -7.399572 24.869368 -20.820045 20.437299 -30.529177 8.474852 Z M -30.529177 8.474852 " stroke="#231f1f" stroke-width="2" stroke-opacity="1" stroke-miterlimit="4"/><path stroke-linecap="round" transform="matrix(0.471528, 0, 0, 0.471528, 613.114972, 334.65984)" fill="none" stroke-linejoin="round" d="M -42.791698 -3.33788 C -30.812683 0.696546 -17.914118 -2.526024 -5.719713 -5.698889 C -3.56581 -6.262218 -1.362201 -6.825546 0.824839 -6.543882 C 3.914861 -6.146238 6.582387 -4.149736 9.299619 -2.501171 C 19.439531 3.645736 31.277714 5.294301 42.792811 6.826886 " stroke="#231f1f" stroke-width="2" stroke-opacity="1" stroke-miterlimit="4"/><path stroke-linecap="butt" transform="matrix(0.471528, 0, 0, 0.471528, 673.550234, 352.781601)" fill-opacity="1" fill="#d4d4d4" fill-rule="nonzero" stroke-linejoin="miter" d="M -12.715153 49.124813 C -8.307936 84.647645 31.415007 79.726805 27.00779 44.195689 C 27.00779 44.195689 13.868981 -84.649134 13.868981 -84.649134 C 13.868981 -84.649134 -31.412688 -63.466326 -31.412688 -63.466326 C -31.412688 -63.466326 -12.715153 49.124813 -12.715153 49.124813 Z M -12.715153 49.124813 " stroke="#231f1f" stroke-width="2" stroke-opacity="1" stroke-miterlimit="10"/><path stroke-linecap="round" transform="matrix(0.471528, 0, 0, 0.471528, 671.746555, 301.483613)" fill-opacity="1" fill="#7aba59" fill-rule="nonzero" stroke-linejoin="round" d="M 0.711467 -62.121919 C 18.597146 -34.775634 29.432936 0.689208 34.643724 42.607474 C 34.643724 42.607474 -31.03375 62.116865 -31.03375 62.116865 C -31.03375 62.116865 -34.64568 11.019658 -34.64568 11.019658 C -33.850392 -29.332887 -26.3283 -59.910026 0.711467 -62.121919 Z M 0.711467 -62.121919 " stroke="#231f1f" stroke-width="2" stroke-opacity="1" stroke-miterlimit="4"/><path fill="#231f1f" d="M 637.566406 222.4375 C 637.566406 222.4375 608.804688 232.105469 608.804688 232.105469 C 608.804688 232.105469 609.394531 240.828125 609.394531 240.828125 C 609.394531 240.828125 608.214844 245.191406 609.394531 244.484375 C 610.574219 243.777344 631.203125 234.933594 635.917969 229.394531 C 640.632812 223.855469 637.566406 222.4375 637.566406 222.4375 Z M 637.566406 222.4375 " fill-opacity="1" fill-rule="nonzero"/><path stroke-linecap="round" transform="matrix(0.471528, 0, 0, 0.471528, 606.565449, 205.98229)" fill-opacity="1" fill="#d4d4d4" fill-rule="nonzero" stroke-linejoin="round" d="M -50.009941 -38.517305 C -67.870768 76.070336 7.880345 101.627224 65.364703 43.712085 C 65.364703 43.712085 67.866545 -9.066824 67.866545 -9.066824 C 67.866545 -9.066824 67.866545 -44.20858 67.866545 -44.20858 C 44.770077 -101.626664 -37.144512 -87.767127 -50.009941 -38.517305 Z M -50.009941 -38.517305 " stroke="#231f1f" stroke-width="2" stroke-opacity="1" stroke-miterlimit="4"/><path stroke-linecap="round" transform="matrix(0.471528, 0, 0, 0.471528, 643.747709, 208.12538)" fill-opacity="1" fill="#d4d4d4" fill-rule="nonzero" stroke-linejoin="round" d="M -10.98833 -13.611816 C 2.705522 -22.086596 10.699816 -20.636854 12.174412 -7.845983 C 12.646613 -3.819842 12.215833 0.272574 11.213439 4.199305 C 6.822791 21.331118 -2.670951 22.084984 -12.645179 21.331118 C -12.645179 21.331118 -10.98833 -13.611816 -10.98833 -13.611816 Z M -10.98833 -13.611816 " stroke="#231f1f" stroke-width="2" stroke-opacity="1" stroke-miterlimit="4"/><path stroke-linecap="round" transform="matrix(0.471528, 0, 0, 0.471528, 599.744306, 206.764546)" fill="none" stroke-linejoin="round" d="M 1.784903 -23.284717 C 0.533983 -3.096018 -2.580892 10.597835 -7.14551 19.221731 C -4.362004 22.850229 1.072459 23.28101 7.144808 22.933072 " stroke="#231f1f" stroke-width="2" stroke-opacity="1" stroke-miterlimit="4"/><path stroke-linecap="round" transform="matrix(0.471528, 0, 0, 0.471528, 616.621269, 194.020576)" fill="none" stroke-linejoin="round" d="M -11.142677 -2.943122 C -1.922315 -3.746694 5.160712 -0.921767 11.141935 3.742261 " stroke="#231f1f" stroke-width="2" stroke-opacity="1" stroke-miterlimit="4"/><path stroke-linecap="round" transform="matrix(0.471528, 0, 0, 0.471528, 592.459734, 193.830546)" fill="none" stroke-linejoin="round" d="M -8.306542 2.844645 C -2.764384 -1.430024 2.76949 -2.846629 8.303364 -1.42174 " stroke="#231f1f" stroke-width="2" stroke-opacity="1" stroke-miterlimit="4"/><path stroke-linecap="round" transform="matrix(0.471528, 0, 0, 0.471528, 613.751501, 204.742158)" fill-opacity="1" fill="#231f1f" fill-rule="nonzero" stroke-linejoin="round" d="M 3.575609 0.0000632549 C 3.575609 3.959931 1.97675 7.174217 -0.00318395 7.174217 C -1.974834 7.174217 -3.573692 3.959931 -3.573692 0.0000632549 C -3.573692 -3.968089 -1.974834 -7.174091 -0.00318395 -7.174091 C 1.97675 -7.174091 3.575609 -3.968089 3.575609 0.0000632549 Z M 3.575609 0.0000632549 " stroke="#231f1f" stroke-width="2" stroke-opacity="1" stroke-miterlimit="4"/><path stroke-linecap="round" transform="matrix(0.471528, 0, 0, 0.471528, 616.274686, 202.170459)" fill-opacity="1" fill="#231f1f" fill-rule="nonzero" stroke-linejoin="round" d="M -5.345984 -1.72012 C -1.261852 -1.537867 2.275519 -2.26688 5.348973 -3.749759 C 4.570254 -0.518905 1.662485 1.750978 -1.88317 3.74748 C -1.88317 3.74748 -5.345984 -1.72012 -5.345984 -1.72012 Z M -5.345984 -1.72012 " stroke="#231f1f" stroke-width="2" stroke-opacity="1" stroke-miterlimit="4"/><path stroke-linecap="round" transform="matrix(0.471528, 0, 0, 0.471528, 592.522871, 204.55639)" fill-opacity="1" fill="#231f1f" fill-rule="nonzero" stroke-linejoin="round" d="M -3.569306 -0.00361049 C -3.569306 3.964542 -1.970448 7.178828 0.00120207 7.178828 C 1.972852 7.178828 3.571711 3.964542 3.571711 -0.00361049 C 3.571711 -3.963478 1.972852 -7.177764 0.00120207 -7.177764 C -1.970448 -7.177764 -3.569306 -3.963478 -3.569306 -0.00361049 Z M -3.569306 -0.00361049 " stroke="#231f1f" stroke-width="2" stroke-opacity="1" stroke-miterlimit="4"/><path stroke-linecap="round" transform="matrix(0.471528, 0, 0, 0.471528, 590.000238, 201.984677)" fill-opacity="1" fill="#231f1f" fill-rule="nonzero" stroke-linejoin="round" d="M 5.351116 -1.723763 C 1.2587 -1.54151 -2.278671 -2.262239 -5.352125 -3.753403 C -4.573406 -0.522548 -1.657353 1.755619 1.880018 3.752121 C 1.880018 3.752121 5.351116 -1.723763 5.351116 -1.723763 Z M 5.351116 -1.723763 " stroke="#231f1f" stroke-width="2" stroke-opacity="1" stroke-miterlimit="4"/><path stroke-linecap="round" transform="matrix(0.471528, 0, 0, 0.471528, 610.944535, 178.215432)" fill-opacity="1" fill="#231f1f" fill-rule="nonzero" stroke-linejoin="round" d="M 16.652975 -14.523525 C 16.520428 18.679719 32.227351 40.309876 58.579526 54.161129 C 58.579526 54.161129 66.08505 -14.523525 66.08505 -14.523525 C -3.345186 -54.155341 -35.446625 -29.294329 -66.081754 -1.906624 C -66.081754 -1.906624 -59.296959 20.369704 -59.296959 20.369704 C -31.51161 17.41223 -5.532226 8.084173 16.652975 -14.523525 Z M 16.652975 -14.523525 " stroke="#231f1f" stroke-width="2" stroke-opacity="1" stroke-miterlimit="4"/><path stroke-linecap="round" transform="matrix(0.471528, 0, 0, 0.471528, 606.565449, 205.98229)" fill-opacity="1" fill="#d4d4d4" fill-rule="nonzero" stroke-linejoin="round" d="M -50.009941 -38.517305 C -67.870768 76.070336 7.880345 101.627224 65.364703 43.712085 C 65.364703 43.712085 67.866545 -9.066824 67.866545 -9.066824 C 67.866545 -9.066824 67.866545 -44.20858 67.866545 -44.20858 C 44.770077 -101.626664 -37.144512 -87.767127 -50.009941 -38.517305 Z M -50.009941 -38.517305 " stroke="#231f1f" stroke-width="2" stroke-opacity="1" stroke-miterlimit="4"/><path stroke-linecap="round" transform="matrix(0.471528, 0, 0, 0.471528, 643.747709, 208.12538)" fill-opacity="1" fill="#d4d4d4" fill-rule="nonzero" stroke-linejoin="round" d="M -10.98833 -13.611816 C 2.705522 -22.086596 10.699816 -20.636854 12.174412 -7.845983 C 12.646613 -3.819842 12.215833 0.272574 11.213439 4.199305 C 6.822791 21.331118 -2.670951 22.084984 -12.645179 21.331118 C -12.645179 21.331118 -10.98833 -13.611816 -10.98833 -13.611816 Z M -10.98833 -13.611816 " stroke="#231f1f" stroke-width="2" stroke-opacity="1" stroke-miterlimit="4"/><path stroke-linecap="round" transform="matrix(0.471528, 0, 0, 0.471528, 599.744306, 206.764546)" fill="none" stroke-linejoin="round" d="M 1.784903 -23.284717 C 0.533983 -3.096018 -2.580892 10.597835 -7.14551 19.221731 C -4.362004 22.850229 1.072459 23.28101 7.144808 22.933072 " stroke="#231f1f" stroke-width="2" stroke-opacity="1" stroke-miterlimit="4"/><path stroke-linecap="round" transform="matrix(0.471528, 0, 0, 0.471528, 610.944535, 178.215432)" fill-opacity="1" fill="#231f1f" fill-rule="nonzero" stroke-linejoin="round" d="M 16.652975 -14.523525 C 16.520428 18.679719 32.227351 40.309876 58.579526 54.161129 C 58.579526 54.161129 66.08505 -14.523525 66.08505 -14.523525 C -3.345186 -54.155341 -35.446625 -29.294329 -66.081754 -1.906624 C -66.081754 -1.906624 -59.296959 20.369704 -59.296959 20.369704 C -31.51161 17.41223 -5.532226 8.084173 16.652975 -14.523525 Z M 16.652975 -14.523525 " stroke="#231f1f" stroke-width="2" stroke-opacity="1" stroke-miterlimit="4"/><path stroke-linecap="round" transform="matrix(0.471528, 0, 0, 0.471528, 617.723699, 192.412668)" fill="none" stroke-linejoin="round" d="M -11.144517 -2.937948 C -1.924155 -3.741519 5.158873 -0.924877 11.14838 3.739152 " stroke="#231f1f" stroke-width="2" stroke-opacity="1" stroke-miterlimit="4"/><path stroke-linecap="round" transform="matrix(0.471528, 0, 0, 0.471528, 590.838605, 191.228188)" fill="none" stroke-linejoin="round" d="M -8.306468 2.846332 C -2.764309 -1.428337 2.769565 -2.844943 8.303439 -1.420053 " stroke="#231f1f" stroke-width="2" stroke-opacity="1" stroke-miterlimit="4"/><path stroke-linecap="round" transform="matrix(0.471528, 0, 0, 0.471528, 613.752029, 202.462334)" fill-opacity="1" fill="#231f1f" fill-rule="nonzero" stroke-linejoin="round" d="M 3.57449 -0.00296254 C 3.57449 3.96519 1.975631 7.179476 0.00398107 7.179476 C -1.975953 7.179476 -3.574812 3.96519 -3.574812 -0.00296254 C -3.574812 -3.96283 -1.975953 -7.177116 0.00398107 -7.177116 C 1.975631 -7.177116 3.57449 -3.96283 3.57449 -0.00296254 Z M 3.57449 -0.00296254 " stroke="#231f1f" stroke-width="2" stroke-opacity="1" stroke-miterlimit="4"/><path stroke-linecap="round" transform="matrix(0.471528, 0, 0, 0.471528, 616.274686, 199.890619)" fill-opacity="1" fill="#231f1f" fill-rule="nonzero" stroke-linejoin="round" d="M -5.345984 -1.72311 C -1.261852 -1.540857 2.275519 -2.261586 5.348973 -3.75275 C 4.570254 -0.521895 1.662485 1.756272 -1.88317 3.752774 C -1.88317 3.752774 -5.345984 -1.72311 -5.345984 -1.72311 Z M -5.345984 -1.72311 " stroke="#231f1f" stroke-width="2" stroke-opacity="1" stroke-miterlimit="4"/><path stroke-linecap="round" transform="matrix(0.471528, 0, 0, 0.471528, 592.523326, 201.656023)" fill-opacity="1" fill="#231f1f" fill-rule="nonzero" stroke-linejoin="round" d="M -3.570273 0.000481057 C -3.570273 3.960349 -1.971414 7.174635 0.000235472 7.174635 C 1.971885 7.174635 3.570744 3.960349 3.570744 0.000481057 C 3.570744 -3.967671 1.971885 -7.173673 0.000235472 -7.173673 C -1.971414 -7.173673 -3.570273 -3.967671 -3.570273 0.000481057 Z M -3.570273 0.000481057 " stroke="#231f1f" stroke-width="2" stroke-opacity="1" stroke-miterlimit="4"/><path stroke-linecap="round" transform="matrix(0.471528, 0, 0, 0.471528, 590.000238, 199.08431)" fill-opacity="1" fill="#231f1f" fill-rule="nonzero" stroke-linejoin="round" d="M 5.351116 -1.719672 C 1.2587 -1.537418 -2.278671 -2.266432 -5.352125 -3.749311 C -4.573406 -0.518457 -1.657353 1.751426 1.880018 3.747928 C 1.880018 3.747928 5.351116 -1.719672 5.351116 -1.719672 Z M 5.351116 -1.719672 " stroke="#231f1f" stroke-width="2" stroke-opacity="1" stroke-miterlimit="4"/><path stroke-linecap="round" transform="matrix(0.471528, 0, 0, 0.471528, 612.461435, 224.818415)" fill-opacity="1" fill="#231f1f" fill-rule="nonzero" stroke-linejoin="round" d="M 17.462128 -7.799732 C 18.348542 -4.676572 12.773247 5.455056 3.130389 8.19714 C -6.51247 10.93094 -16.56954 5.231382 -17.455954 2.108222 C -18.350652 -1.023221 -9.909009 -1.056358 -0.266151 -3.790158 C 9.376707 -6.523958 16.575714 -10.931175 17.462128 -7.799732 Z M 17.462128 -7.799732 " stroke="#231f1f" stroke-width="2" stroke-opacity="1" stroke-miterlimit="4"/><path stroke-linecap="round" transform="matrix(0.471528, 0, 0, 0.471528, 512.376789, 69.782916)" fill-opacity="1" fill="#ffffff" fill-rule="nonzero" stroke-linejoin="round" d="M 71.497503 -5.835639 C 71.497503 14.576734 62.93988 32.984321 49.237743 46.015434 C 39.246947 56.354169 31.28579 66.742609 30.183986 77.329871 C 30.183986 77.329871 -30.241278 77.329871 -30.241278 77.329871 C -31.401072 66.29526 -39.983548 55.476039 -50.554241 44.723093 C -50.603946 44.673387 -50.645368 44.631966 -50.686789 44.590545 C -63.543933 31.667126 -71.496806 13.839437 -71.496806 -5.835639 C -71.496806 -45.326623 -39.486493 -77.328651 -0.00379355 -77.328651 C 39.48719 -77.328651 71.497503 -45.326623 71.497503 -5.835639 Z M 71.497503 -5.835639 " stroke="#231f1f" stroke-width="2" stroke-opacity="1" stroke-miterlimit="4"/><path stroke-linecap="round" transform="matrix(0.471528, 0, 0, 0.471528, 512.423062, 84.386124)" fill="none" stroke-linejoin="round" d="M -10.192136 48.994271 C -8.518719 26.742796 -8.145928 4.383626 -9.065479 -17.892702 C -9.454838 -27.311886 -10.117578 -36.896754 -13.315295 -45.620062 C -14.475089 -48.784642 -16.811246 -52.297161 -19.901268 -51.692411 C -21.864634 -51.303052 -23.297807 -49.182286 -23.53805 -47.020099 C -23.778294 -44.849627 -23.032712 -42.68744 -21.988897 -40.840054 C -19.213676 -35.91093 -14.383963 -32.754633 -9.371996 -30.832689 C -4.194344 -28.836187 1.430656 -27.966341 6.873403 -28.977019 C 12.316151 -29.995981 17.560076 -33.003161 20.981468 -37.7666 C 22.563759 -39.961924 23.773258 -42.728861 23.350762 -45.470945 C 22.919981 -48.204745 20.285592 -50.565754 17.866593 -49.662772 C 16.897337 -49.289981 16.118618 -48.48641 15.472447 -47.60828 C 13.045164 -44.286299 12.332719 -39.89565 11.843949 -35.687255 C 8.480547 -6.526722 12.283014 23.072876 9.416666 52.299684 " stroke="#231f1f" stroke-width="2" stroke-opacity="1" stroke-miterlimit="4"/><path stroke-linecap="butt" transform="matrix(0.471528, 0, 0, 0.471528, 512.232499, 108.527871)" fill-opacity="1" fill="#7aba59" fill-rule="nonzero" stroke-linejoin="miter" d="M 31.417825 4.845163 C 31.417825 4.845163 -31.418153 4.845163 -31.418153 4.845163 C -31.418153 4.845163 -31.418153 -4.839116 -31.418153 -4.839116 C -31.418153 -4.839116 31.417825 -4.839116 31.417825 -4.839116 C 31.417825 -4.839116 31.417825 4.845163 31.417825 4.845163 Z M 31.417825 4.845163 " stroke="#231f1f" stroke-width="2" stroke-opacity="1" stroke-miterlimit="10"/><path stroke-linecap="butt" transform="matrix(0.471528, 0, 0, 0.471528, 512.232499, 117.249726)" fill-opacity="1" fill="#7aba59" fill-rule="nonzero" stroke-linejoin="miter" d="M 31.417825 4.838578 C 31.417825 4.838578 -31.418153 4.838578 -31.418153 4.838578 C -31.418153 4.838578 -31.418153 -4.845701 -31.418153 -4.845701 C -31.418153 -4.845701 31.417825 -4.845701 31.417825 -4.845701 C 31.417825 -4.845701 31.417825 4.838578 31.417825 4.838578 Z M 31.417825 4.838578 " stroke="#231f1f" stroke-width="2" stroke-opacity="1" stroke-miterlimit="10"/><path stroke-linecap="butt" transform="matrix(0.471528, 0, 0, 0.471528, 512.232499, 112.891401)" fill-opacity="1" fill="#7aba59" fill-rule="nonzero" stroke-linejoin="miter" d="M 33.364622 4.413855 C 33.364622 4.413855 -33.36495 4.413855 -33.36495 4.413855 C -33.36495 4.413855 -33.36495 -4.408864 -33.36495 -4.408864 C -33.36495 -4.408864 33.364622 -4.408864 33.364622 -4.408864 C 33.364622 -4.408864 33.364622 4.413855 33.364622 4.413855 Z M 33.364622 4.413855 " stroke="#231f1f" stroke-width="2" stroke-opacity="1" stroke-miterlimit="10"/><path stroke-linecap="butt" transform="matrix(0.471528, 0, 0, 0.471528, 512.232499, 121.81365)" fill-opacity="1" fill="#7aba59" fill-rule="nonzero" stroke-linejoin="miter" d="M 27.863885 4.835559 C 27.863885 4.835559 -27.864213 4.835559 -27.864213 4.835559 C -27.864213 4.835559 -27.864213 -4.840436 -27.864213 -4.840436 C -27.864213 -4.840436 27.863885 -4.840436 27.863885 -4.840436 C 27.863885 -4.840436 27.863885 4.835559 27.863885 4.835559 Z M 27.863885 4.835559 " stroke="#231f1f" stroke-width="2" stroke-opacity="1" stroke-miterlimit="10"/><path stroke-linecap="butt" transform="matrix(0.471528, 0, 0, 0.471528, 401.616827, 303.779046)" fill-opacity="1" fill="#ffffff" fill-rule="nonzero" stroke-linejoin="miter" d="M -49.00053 0.269771 C -39.27483 -12.943596 -26.657928 -24.483546 -12.682411 -35.244777 C -10.78532 -36.711088 -8.556859 -37.754902 -6.179281 -38.019998 C -2.31054 -38.442494 0.332133 -36.810499 1.955845 -33.463665 C 4.341707 -28.567677 2.925101 -22.644444 -1.043051 -18.899966 C -1.043051 -18.899966 -15.093126 -5.645179 -15.093126 -5.645179 C -7.687013 -6.771835 -0.753102 -8.983728 5.824586 -11.97434 C 14.315935 -15.843081 20.885339 -22.992382 24.42271 -31.624563 C 24.464132 -31.707405 24.497269 -31.798532 24.530406 -31.881374 C 27.852387 -39.975079 39.193515 -40.323017 42.995982 -32.452987 C 43.435047 -31.533436 43.849259 -30.580748 44.22205 -29.594923 C 49.002058 -16.961454 45.887183 -2.695988 37.023043 7.49363 C 29.724626 15.893852 20.10662 23.07629 6.951243 28.411342 C 6.951243 28.411342 -33.152775 40.324083 -33.152775 40.324083 C -33.152775 40.324083 -49.00053 0.269771 -49.00053 0.269771 Z M -49.00053 0.269771 " stroke="#231f1f" stroke-width="2" stroke-opacity="1" stroke-miterlimit="10"/><path fill="#d4d4d4" d="M 313.710938 376.675781 C 297.808594 388.207031 278.621094 361.746094 294.523438 350.214844 C 294.523438 350.214844 379.476562 299.832031 379.476562 299.832031 C 379.476562 299.832031 390.625 323.234375 390.625 323.234375 C 390.625 323.234375 313.710938 376.675781 313.710938 376.675781 Z M 313.710938 376.675781 " fill-opacity="1" fill-rule="nonzero"/><path stroke-linecap="butt" transform="matrix(0.471528, 0, 0, 0.471528, 352.167742, 338.255714)" fill="none" stroke-linejoin="miter" d="M 57.91562 -81.487643 C 57.91562 -81.487643 81.558848 -31.856746 81.558848 -31.856746 C 81.558848 -31.856746 -81.557886 81.479974 -81.557886 81.479974 " stroke="#231f1f" stroke-width="2" stroke-opacity="1" stroke-miterlimit="10"/><path stroke-linecap="round" transform="matrix(0.471528, 0, 0, 0.471528, 298.591332, 369.329394)" fill="none" stroke-linejoin="round" d="M -16.389387 -35.219006 C -32.063174 1.687294 -0.450505 35.213623 32.065147 15.588253 " stroke="#231f1f" stroke-width="2" stroke-opacity="1" stroke-miterlimit="4"/><path stroke-linecap="round" transform="matrix(0.471528, 0, 0, 0.471528, 345.590872, 319.929326)" fill="none" stroke-linejoin="round" d="M -71.867984 42.614909 C -71.867984 42.614909 71.863622 -42.621661 71.863622 -42.621661 " stroke="#231f1f" stroke-width="2" stroke-opacity="1" stroke-miterlimit="4"/><path stroke-linecap="round" transform="matrix(0.471528, 0, 0, 0.471528, 514.223359, 311.842619)" fill-opacity="1" fill="#d4d4d4" fill-rule="nonzero" stroke-linejoin="round" d="M 31.925979 26.818492 C 29.83835 13.016944 25.182606 -1.157395 19.325646 -15.505703 C 18.538643 -17.444216 17.387133 -19.258465 15.829696 -20.658502 C 13.31957 -22.9201 10.941993 -23.176911 8.655542 -21.76859 C 5.333561 -19.730666 4.066072 -15.513987 5.23415 -11.794362 C 5.23415 -11.794362 10.676897 5.544557 10.676897 5.544557 C 5.979732 1.004792 1.986727 -4.015459 -1.492655 -9.375363 C -5.982714 -16.30099 -8.00407 -24.427832 -7.432457 -32.007914 C -7.333046 -33.349961 -7.233635 -34.658871 -7.134224 -35.942929 C -6.728296 -41.369108 -12.146191 -45.511229 -17.18301 -43.456737 C -19.204365 -42.628313 -21.12631 -41.39396 -22.948843 -39.761965 C -29.244867 -34.120396 -31.920677 -25.463362 -30.628336 -17.104562 C -28.954919 -6.285341 -24.763092 4.997797 -16.338017 17.059654 C -16.338017 17.059654 7.073252 45.516027 7.073252 45.516027 " stroke="#231f1f" stroke-width="2" stroke-opacity="1" stroke-miterlimit="4"/><path fill="#d4d4d4" d="M 562.558594 369.695312 C 570.75 379.273438 556.257812 391.664062 548.070312 382.085938 C 548.070312 382.085938 517.558594 333.304688 517.558594 333.304688 C 517.558594 333.304688 529.277344 324.488281 529.277344 324.488281 C 529.277344 324.488281 562.558594 369.695312 562.558594 369.695312 Z M 562.558594 369.695312 " fill-opacity="1" fill-rule="nonzero"/><path stroke-linecap="round" transform="matrix(0.471528, 0, 0, 0.471528, 540.876942, 340.24649)" fill="none" stroke-linejoin="round" d="M 24.608365 33.417793 C 24.608365 33.417793 -24.608319 -33.419475 -24.608319 -33.419475 " stroke="#231f1f" stroke-width="2" stroke-opacity="1" stroke-miterlimit="4"/><path stroke-linecap="round" transform="matrix(0.471528, 0, 0, 0.471528, 541.445609, 360.696655)" fill="none" stroke-linejoin="round" d="M 50.657514 36.017038 C 43.889288 53.372526 25.572828 58.094544 14.049447 45.361663 C 14.049447 45.361663 -50.658771 -58.091956 -50.658771 -58.091956 " stroke="#231f1f" stroke-width="2" stroke-opacity="1" stroke-miterlimit="4"/><path stroke-linecap="round" transform="matrix(0.471528, 0, 0, 0.471528, 730.794119, 324.320162)" fill-opacity="1" fill="#d4d4d4" fill-rule="nonzero" stroke-linejoin="round" d="M -36.303989 19.791374 C -31.63996 6.635997 -24.382964 -6.395117 -15.908184 -19.36824 C -14.764959 -21.1245 -13.290363 -22.681937 -11.492683 -23.767173 C -8.601482 -25.515148 -6.21562 -25.308042 -4.235686 -23.502077 C -1.369339 -20.867688 -0.92199 -16.47704 -2.769376 -13.055648 C -2.769376 -13.055648 -11.401556 2.93294 -11.401556 2.93294 C -5.933956 -0.629284 -1.062822 -4.796258 3.369248 -9.402297 C 9.09366 -15.350383 12.622747 -22.947033 13.500877 -30.502262 C 13.649993 -31.836025 13.807394 -33.136651 13.95651 -34.412424 C 14.586112 -39.822035 20.691599 -42.862352 25.239648 -39.888309 C 27.070466 -38.687094 28.727314 -37.113088 30.201909 -35.166291 C 35.313287 -28.431201 36.299112 -19.42623 33.449332 -11.465073 C 29.746276 -1.159475 23.491673 9.121269 12.929264 19.368877 C 12.929264 19.368877 -15.452551 42.862989 -15.452551 42.862989 " stroke="#231f1f" stroke-width="2" stroke-opacity="1" stroke-miterlimit="4"/><path fill="#d4d4d4" d="M 672.417969 371.726562 C 662.558594 379.574219 674.4375 394.488281 684.296875 386.640625 C 684.296875 386.640625 723.507812 344.53125 723.507812 344.53125 C 723.507812 344.53125 713.675781 333.65625 713.675781 333.65625 C 713.675781 333.65625 672.417969 371.726562 672.417969 371.726562 Z M 672.417969 371.726562 " fill-opacity="1" fill-rule="nonzero"/><path stroke-linecap="round" transform="matrix(0.471528, 0, 0, 0.471528, 699.295597, 346.924265)" fill="none" stroke-linejoin="round" d="M -30.499869 28.144788 C -30.499869 28.144788 30.497008 -28.138355 30.497008 -28.138355 " stroke="#231f1f" stroke-width="2" stroke-opacity="1" stroke-miterlimit="4"/><path stroke-linecap="round" transform="matrix(0.471528, 0, 0, 0.471528, 695.845409, 368.017563)" fill="none" stroke-linejoin="round" d="M -58.664238 23.374022 C -55.30912 41.698766 -38.227012 49.80904 -24.491738 39.495158 C -24.491738 39.495158 58.665488 -49.808976 58.665488 -49.808976 " stroke="#231f1f" stroke-width="2" stroke-opacity="1" stroke-miterlimit="4"/><path stroke-linecap="round" transform="matrix(0.471528, 0, 0, 0.471528, 510.074369, 429.026191)" fill-opacity="1" fill="#d4d4d4" fill-rule="nonzero" stroke-linejoin="round" d="M 513.531586 50.693724 C 513.531586 50.693724 -513.532222 50.693724 -513.532222 50.693724 C -513.532222 50.693724 -415.861003 -50.688835 -415.861003 -50.688835 C -415.861003 -50.688835 440.481137 -50.688835 440.481137 -50.688835 C 440.481137 -50.688835 513.531586 50.693724 513.531586 50.693724 Z M 513.531586 50.693724 " stroke="#231f1f" stroke-width="2" stroke-opacity="1" stroke-miterlimit="4"/><path stroke-linecap="round" transform="matrix(0.471528, 0, 0, 0.471528, 385.48069, 431.281522)" fill-opacity="1" fill="#ffffff" fill-rule="nonzero" stroke-linejoin="round" d="M -88.84897 33.790847 C -88.84897 33.790847 -32.168183 -35.747084 -32.168183 -35.747084 C -32.168183 -35.747084 88.84803 -35.747084 88.84803 -35.747084 C 88.84803 -35.747084 50.549977 35.745928 50.549977 35.745928 C 50.549977 35.745928 -88.84897 33.790847 -88.84897 33.790847 Z M -88.84897 33.790847 " stroke="#231f1f" stroke-width="2" stroke-opacity="1" stroke-miterlimit="4"/><path stroke-linecap="round" transform="matrix(0.471528, 0, 0, 0.471528, 265.571647, 402.766352)" fill="none" stroke-linejoin="round" d="M 194.212949 78.856161 C 194.212949 78.856161 292.513769 78.856161 292.513769 78.856161 " stroke="#231f1f" stroke-width="2" stroke-opacity="1" stroke-miterlimit="4"/><path stroke-linecap="round" transform="matrix(0.471528, 0, 0, 0.471528, 265.571647, 402.766352)" fill="none" stroke-linejoin="round" d="M 208.511551 63.024974 C 208.511551 63.024974 306.812372 63.024974 306.812372 63.024974 " stroke="#231f1f" stroke-width="2" stroke-opacity="1" stroke-miterlimit="4"/><path stroke-linecap="round" transform="matrix(0.471528, 0, 0, 0.471528, 265.571647, 402.766352)" fill="none" stroke-linejoin="round" d="M 199.274621 70.687898 C 199.274621 70.687898 302.877357 70.687898 302.877357 70.687898 " stroke="#231f1f" stroke-width="2" stroke-opacity="1" stroke-miterlimit="4"/><path stroke-linecap="round" transform="matrix(0.471528, 0, 0, 0.471528, 392.804469, 422.733679)" fill-opacity="1" fill="#7aba59" fill-rule="nonzero" stroke-linejoin="round" d="M -42.721376 -9.699371 C -42.721376 -9.699371 -57.401053 9.702325 -57.401053 9.702325 C -57.401053 9.702325 44.470276 9.702325 44.470276 9.702325 C 44.470276 9.702325 57.401978 -9.699371 57.401978 -9.699371 C 57.401978 -9.699371 -42.721376 -9.699371 -42.721376 -9.699371 Z M -42.721376 -9.699371 " stroke="#231f1f" stroke-width="2" stroke-opacity="1" stroke-miterlimit="4"/><path stroke-linecap="round" transform="matrix(0.471528, 0, 0, 0.471528, 367.823381, 427.308414)" fill-opacity="1" fill="#ffffff" fill-rule="nonzero" stroke-linejoin="round" d="M -88.855009 33.791807 C -88.855009 33.791807 -32.165938 -35.746124 -32.165938 -35.746124 C -32.165938 -35.746124 88.850276 -35.746124 88.850276 -35.746124 C 88.850276 -35.746124 50.552223 35.746888 50.552223 35.746888 C 50.552223 35.746888 -88.855009 33.791807 -88.855009 33.791807 Z M -88.855009 33.791807 " stroke="#231f1f" stroke-width="2" stroke-opacity="1" stroke-miterlimit="4"/><path stroke-linecap="round" transform="matrix(0.471528, 0, 0, 0.471528, 265.571647, 402.766352)" fill="none" stroke-linejoin="round" d="M 156.768173 70.431087 C 156.768173 70.431087 255.068994 70.431087 255.068994 70.431087 " stroke="#231f1f" stroke-width="2" stroke-opacity="1" stroke-miterlimit="4"/><path stroke-linecap="round" transform="matrix(0.471528, 0, 0, 0.471528, 265.571647, 402.766352)" fill="none" stroke-linejoin="round" d="M 171.066775 54.599899 C 171.066775 54.599899 269.359312 54.599899 269.359312 54.599899 " stroke="#231f1f" stroke-width="2" stroke-opacity="1" stroke-miterlimit="4"/><path stroke-linecap="round" transform="matrix(0.471528, 0, 0, 0.471528, 265.571647, 402.766352)" fill="none" stroke-linejoin="round" d="M 161.829845 62.262824 C 161.829845 62.262824 265.424297 62.262824 265.424297 62.262824 " stroke="#231f1f" stroke-width="2" stroke-opacity="1" stroke-miterlimit="4"/><path stroke-linecap="round" transform="matrix(0.471528, 0, 0, 0.471528, 265.571647, 402.766352)" fill="none" stroke-linejoin="round" d="M 175.614824 43.88009 C 175.614824 43.88009 273.915645 43.88009 273.915645 43.88009 " stroke="#231f1f" stroke-width="2" stroke-opacity="1" stroke-miterlimit="4"/><path stroke-linecap="round" transform="matrix(0.471528, 0, 0, 0.471528, 265.571647, 402.766352)" fill="none" stroke-linejoin="round" d="M 189.913427 28.048902 C 189.913427 28.048902 288.214248 28.048902 288.214248 28.048902 " stroke="#231f1f" stroke-width="2" stroke-opacity="1" stroke-miterlimit="4"/><path stroke-linecap="round" transform="matrix(0.471528, 0, 0, 0.471528, 265.571647, 402.766352)" fill="none" stroke-linejoin="round" d="M 180.684781 35.711827 C 180.684781 35.711827 284.279232 35.711827 284.279232 35.711827 " stroke="#231f1f" stroke-width="2" stroke-opacity="1" stroke-miterlimit="4"/><path stroke-linecap="round" transform="matrix(0.471528, 0, 0, 0.471528, 570.781202, 429.29498)" fill-opacity="1" fill="#ffffff" fill-rule="nonzero" stroke-linejoin="round" d="M -252.255081 -31.534092 C -252.255081 -31.534092 245.105982 -31.534092 245.105982 -31.534092 C 245.105982 -31.534092 282.890411 31.533845 282.890411 31.533845 C 282.890411 31.533845 -282.89021 31.533845 -282.89021 31.533845 C -282.89021 31.533845 -252.255081 -31.534092 -252.255081 -31.534092 Z M -252.255081 -31.534092 " stroke="#231f1f" stroke-width="2" stroke-opacity="1" stroke-miterlimit="4"/><path fill="#ffffff" d="M 455.449219 418.160156 C 455.449219 418.160156 445.09375 439.949219 445.09375 439.949219 C 445.09375 439.949219 534.183594 439.949219 534.183594 439.949219 C 534.183594 439.949219 537.3125 418.160156 537.3125 418.160156 C 537.3125 418.160156 455.449219 418.160156 455.449219 418.160156 Z M 455.449219 418.160156 " fill-opacity="1" fill-rule="nonzero"/><path stroke-linecap="round" transform="matrix(0.471528, 0, 0, 0.471528, 456.254669, 419.436296)" fill="none" stroke-linejoin="round" d="M 4.28962 -2.706394 C 4.28962 -2.706394 -1.708172 -2.706394 -1.708172 -2.706394 C -1.708172 -2.706394 -4.284571 2.711501 -4.284571 2.711501 " stroke="#231f1f" stroke-width="2" stroke-opacity="1" stroke-miterlimit="4"/><path fill="#231f1f" d="M 452.019531 426.476562 L 450.035156 430.644531 L 449.328125 432.132812 C 449.273438 432.25 449.183594 432.332031 449.0625 432.375 C 448.9375 432.417969 448.820312 432.414062 448.703125 432.355469 C 448.585938 432.300781 448.503906 432.210938 448.460938 432.089844 C 448.417969 431.964844 448.421875 431.847656 448.476562 431.726562 L 449.183594 430.242188 L 451.164062 426.070312 C 451.222656 425.953125 451.3125 425.875 451.433594 425.828125 C 451.554688 425.785156 451.675781 425.792969 451.792969 425.847656 C 451.910156 425.902344 451.992188 425.992188 452.035156 426.117188 C 452.078125 426.238281 452.074219 426.359375 452.019531 426.476562 Z M 452.019531 426.476562 " fill-opacity="1" fill-rule="nonzero"/><path stroke-linecap="round" transform="matrix(0.471528, 0, 0, 0.471528, 446.508634, 438.671787)" fill="none" stroke-linejoin="round" d="M -0.424239 -2.708762 C -0.424239 -2.708762 -3.000638 2.709133 -3.000638 2.709133 C -3.000638 2.709133 2.997154 2.709133 2.997154 2.709133 " stroke="#231f1f" stroke-width="2" stroke-opacity="1" stroke-miterlimit="4"/><path fill="#231f1f" d="M 453.484375 439.476562 L 458.90625 439.476562 C 459.039062 439.476562 459.148438 439.523438 459.242188 439.617188 C 459.332031 439.707031 459.378906 439.820312 459.378906 439.949219 C 459.378906 440.078125 459.332031 440.191406 459.242188 440.28125 C 459.148438 440.375 459.039062 440.421875 458.90625 440.421875 L 453.484375 440.421875 C 453.355469 440.421875 453.242188 440.375 453.152344 440.28125 C 453.058594 440.191406 453.011719 440.078125 453.011719 439.949219 C 453.011719 439.820312 453.058594 439.707031 453.152344 439.617188 C 453.242188 439.523438 453.355469 439.476562 453.484375 439.476562 Z M 464.554688 439.476562 L 470.128906 439.476562 C 470.261719 439.476562 470.371094 439.523438 470.464844 439.617188 C 470.554688 439.707031 470.601562 439.820312 470.601562 439.949219 C 470.601562 440.078125 470.554688 440.191406 470.464844 440.28125 C 470.371094 440.375 470.261719 440.421875 470.128906 440.421875 L 464.554688 440.421875 C 464.425781 440.421875 464.316406 440.375 464.222656 440.28125 C 464.128906 440.191406 464.085938 440.078125 464.085938 439.949219 C 464.085938 439.820312 464.128906 439.707031 464.222656 439.617188 C 464.316406 439.523438 464.425781 439.476562 464.554688 439.476562 Z M 475.683594 439.476562 L 481.191406 439.476562 C 481.320312 439.476562 481.433594 439.523438 481.523438 439.617188 C 481.617188 439.707031 481.664062 439.820312 481.664062 439.949219 C 481.664062 440.078125 481.617188 440.191406 481.523438 440.28125 C 481.433594 440.375 481.320312 440.421875 481.191406 440.421875 L 475.683594 440.421875 C 475.554688 440.421875 475.445312 440.375 475.351562 440.28125 C 475.261719 440.191406 475.214844 440.078125 475.214844 439.949219 C 475.214844 439.820312 475.261719 439.707031 475.351562 439.617188 C 475.445312 439.523438 475.554688 439.476562 475.683594 439.476562 Z M 486.777344 439.476562 L 492.449219 439.476562 C 492.578125 439.476562 492.691406 439.523438 492.78125 439.617188 C 492.875 439.707031 492.921875 439.820312 492.921875 439.949219 C 492.921875 440.078125 492.875 440.191406 492.78125 440.28125 C 492.691406 440.375 492.578125 440.421875 492.449219 440.421875 L 486.777344 440.421875 C 486.648438 440.421875 486.535156 440.375 486.445312 440.28125 C 486.351562 440.191406 486.304688 440.078125 486.304688 439.949219 C 486.304688 439.820312 486.351562 439.707031 486.445312 439.617188 C 486.535156 439.523438 486.648438 439.476562 486.777344 439.476562 Z M 498.09375 439.476562 L 503.589844 439.476562 C 503.722656 439.476562 503.832031 439.523438 503.925781 439.617188 C 504.015625 439.707031 504.0625 439.820312 504.0625 439.949219 C 504.0625 440.078125 504.015625 440.191406 503.925781 440.28125 C 503.832031 440.375 503.722656 440.421875 503.589844 440.421875 L 498.09375 440.421875 C 497.960938 440.421875 497.851562 440.375 497.757812 440.28125 C 497.667969 440.191406 497.621094 440.078125 497.621094 439.949219 C 497.621094 439.820312 497.667969 439.707031 497.757812 439.617188 C 497.851562 439.523438 497.960938 439.476562 498.09375 439.476562 Z M 509.167969 439.476562 L 514.761719 439.476562 C 514.890625 439.476562 515 439.523438 515.09375 439.617188 C 515.1875 439.707031 515.230469 439.820312 515.230469 439.949219 C 515.230469 440.078125 515.1875 440.191406 515.09375 440.28125 C 515 440.375 514.890625 440.421875 514.761719 440.421875 L 509.167969 440.421875 C 509.039062 440.421875 508.925781 440.375 508.835938 440.28125 C 508.742188 440.191406 508.695312 440.078125 508.695312 439.949219 C 508.695312 439.820312 508.742188 439.707031 508.835938 439.617188 C 508.925781 439.523438 509.039062 439.476562 509.167969 439.476562 Z M 520.335938 439.476562 L 525.832031 439.476562 C 525.960938 439.476562 526.070312 439.523438 526.164062 439.617188 C 526.253906 439.707031 526.300781 439.820312 526.300781 439.949219 C 526.300781 440.078125 526.253906 440.191406 526.164062 440.28125 C 526.070312 440.375 525.960938 440.421875 525.832031 440.421875 L 520.335938 440.421875 C 520.203125 440.421875 520.09375 440.375 520 440.28125 C 519.910156 440.191406 519.863281 440.078125 519.863281 439.949219 C 519.863281 439.820312 519.910156 439.707031 520 439.617188 C 520.09375 439.523438 520.203125 439.476562 520.335938 439.476562 Z M 520.335938 439.476562 " fill-opacity="1" fill-rule="nonzero"/><path stroke-linecap="round" transform="matrix(0.471528, 0, 0, 0.471528, 532.96889, 438.549207)" fill="none" stroke-linejoin="round" d="M -3.429973 2.969097 C -3.429973 2.969097 2.576102 2.969097 2.576102 2.969097 C 2.576102 2.969097 3.429379 -2.970705 3.429379 -2.970705 " stroke="#231f1f" stroke-width="2" stroke-opacity="1" stroke-miterlimit="4"/><path fill="#231f1f" d="M 534.894531 431.683594 L 535.476562 427.636719 L 535.683594 426.195312 C 535.699219 426.066406 535.761719 425.960938 535.867188 425.882812 C 535.96875 425.804688 536.085938 425.777344 536.214844 425.796875 C 536.34375 425.8125 536.449219 425.875 536.527344 425.980469 C 536.605469 426.082031 536.632812 426.199219 536.617188 426.328125 L 536.40625 427.773438 L 535.828125 431.820312 C 535.808594 431.949219 535.746094 432.050781 535.644531 432.128906 C 535.539062 432.207031 535.421875 432.238281 535.292969 432.21875 C 535.164062 432.199219 535.0625 432.140625 534.984375 432.035156 C 534.90625 431.929688 534.875 431.8125 534.894531 431.683594 Z M 534.894531 431.683594 " fill-opacity="1" fill-rule="nonzero"/><path stroke-linecap="round" transform="matrix(0.471528, 0, 0, 0.471528, 535.898076, 419.558852)" fill="none" stroke-linejoin="round" d="M 2.146385 2.965211 C 2.146385 2.965211 2.999662 -2.966307 2.999662 -2.966307 C 2.999662 -2.966307 -2.99813 -2.966307 -2.99813 -2.966307 " stroke="#231f1f" stroke-width="2" stroke-opacity="1" stroke-miterlimit="4"/><path fill="#231f1f" d="M 528.621094 418.628906 L 522.808594 418.628906 C 522.679688 418.628906 522.570312 418.585938 522.476562 418.492188 C 522.386719 418.398438 522.339844 418.289062 522.339844 418.160156 C 522.339844 418.027344 522.386719 417.917969 522.476562 417.824219 C 522.570312 417.734375 522.679688 417.6875 522.808594 417.6875 L 528.621094 417.6875 C 528.75 417.6875 528.863281 417.734375 528.953125 417.824219 C 529.046875 417.917969 529.09375 418.027344 529.09375 418.160156 C 529.09375 418.289062 529.046875 418.398438 528.953125 418.492188 C 528.863281 418.585938 528.75 418.628906 528.621094 418.628906 Z M 516.960938 418.628906 L 511.09375 418.628906 C 510.960938 418.628906 510.851562 418.585938 510.757812 418.492188 C 510.667969 418.398438 510.621094 418.289062 510.621094 418.160156 C 510.621094 418.027344 510.667969 417.917969 510.757812 417.824219 C 510.851562 417.734375 510.960938 417.6875 511.09375 417.6875 L 516.960938 417.6875 C 517.089844 417.6875 517.203125 417.734375 517.292969 417.824219 C 517.386719 417.917969 517.433594 418.027344 517.433594 418.160156 C 517.433594 418.289062 517.386719 418.398438 517.292969 418.492188 C 517.203125 418.585938 517.089844 418.628906 516.960938 418.628906 Z M 505.242188 418.628906 L 499.394531 418.628906 C 499.261719 418.628906 499.152344 418.585938 499.058594 418.492188 C 498.96875 418.398438 498.921875 418.289062 498.921875 418.160156 C 498.921875 418.027344 498.96875 417.917969 499.058594 417.824219 C 499.152344 417.734375 499.261719 417.6875 499.394531 417.6875 L 505.242188 417.6875 C 505.371094 417.6875 505.484375 417.734375 505.574219 417.824219 C 505.667969 417.917969 505.714844 418.027344 505.714844 418.160156 C 505.714844 418.289062 505.667969 418.398438 505.574219 418.492188 C 505.484375 418.585938 505.371094 418.628906 505.242188 418.628906 Z M 493.417969 418.628906 L 487.484375 418.628906 C 487.355469 418.628906 487.246094 418.585938 487.152344 418.492188 C 487.058594 418.398438 487.015625 418.289062 487.015625 418.160156 C 487.015625 418.027344 487.058594 417.917969 487.152344 417.824219 C 487.246094 417.734375 487.355469 417.6875 487.484375 417.6875 L 493.417969 417.6875 C 493.546875 417.6875 493.660156 417.734375 493.75 417.824219 C 493.84375 417.917969 493.890625 418.027344 493.890625 418.160156 C 493.890625 418.289062 493.84375 418.398438 493.75 418.492188 C 493.660156 418.585938 493.546875 418.628906 493.417969 418.628906 Z M 481.695312 418.628906 L 475.8125 418.628906 C 475.679688 418.628906 475.570312 418.585938 475.476562 418.492188 C 475.386719 418.398438 475.339844 418.289062 475.339844 418.160156 C 475.339844 418.027344 475.386719 417.917969 475.476562 417.824219 C 475.570312 417.734375 475.679688 417.6875 475.8125 417.6875 L 481.695312 417.6875 C 481.828125 417.6875 481.9375 417.734375 482.03125 417.824219 C 482.121094 417.917969 482.167969 418.027344 482.167969 418.160156 C 482.167969 418.289062 482.121094 418.398438 482.03125 418.492188 C 481.9375 418.585938 481.828125 418.628906 481.695312 418.628906 Z M 469.894531 418.628906 L 464.132812 418.628906 C 464.003906 418.628906 463.890625 418.585938 463.800781 418.492188 C 463.707031 418.398438 463.660156 418.289062 463.660156 418.160156 C 463.660156 418.027344 463.707031 417.917969 463.800781 417.824219 C 463.890625 417.734375 464.003906 417.6875 464.132812 417.6875 L 469.894531 417.6875 C 470.023438 417.6875 470.136719 417.734375 470.226562 417.824219 C 470.320312 417.917969 470.367188 418.027344 470.367188 418.160156 C 470.367188 418.289062 470.320312 418.398438 470.226562 418.492188 C 470.136719 418.585938 470.023438 418.628906 469.894531 418.628906 Z M 469.894531 418.628906 " fill-opacity="1" fill-rule="nonzero"/><path stroke-linecap="round" transform="matrix(0.471528, 0, 0, 0.471528, 265.571647, 402.766352)" fill="none" stroke-linejoin="round" d="M 591.111004 42.347505 C 591.111004 42.347505 693.239144 42.347505 693.239144 42.347505 " stroke="#231f1f" stroke-width="2" stroke-opacity="1" stroke-miterlimit="4"/><path stroke-linecap="butt" transform="matrix(0.471528, 0, 0, 0.471528, 265.571647, 402.766352)" fill="none" stroke-linejoin="miter" d="M 591.111004 53.837749 C 591.111004 53.837749 693.239144 53.837749 693.239144 53.837749 " stroke="#231f1f" stroke-width="2" stroke-opacity="1" stroke-miterlimit="10"/><path stroke-linecap="butt" transform="matrix(0.471528, 0, 0, 0.471528, 265.571647, 402.766352)" fill="none" stroke-linejoin="miter" d="M 588.045834 68.476005 C 588.045834 68.476005 697.66293 68.476005 697.66293 68.476005 " stroke="#231f1f" stroke-width="2" stroke-opacity="1" stroke-miterlimit="10"/><path stroke-linecap="round" transform="matrix(0.471528, 0, 0, 0.471528, 489.638335, 429.354855)" fill-opacity="1" fill="#ffffff" fill-rule="nonzero" stroke-linejoin="round" d="M -66.211093 -14.040489 C -66.211093 -14.040489 -77.78418 14.043093 -77.78418 14.043093 C -77.78418 14.043093 -18.576699 14.043093 -18.576699 14.043093 C -18.576699 14.043093 -15.147023 -2.550245 -15.147023 -2.550245 C -15.147023 -2.550245 75.747685 -2.550245 75.747685 -2.550245 C 75.747685 -2.550245 77.785609 -14.040489 77.785609 -14.040489 " stroke="#231f1f" stroke-width="2" stroke-opacity="1" stroke-miterlimit="4"/><path stroke-linecap="butt" transform="matrix(0.471528, 0, 0, 0.471528, 510.074824, 460.644967)" fill-opacity="1" fill="#d4d4d4" fill-rule="nonzero" stroke-linejoin="round" d="M 513.53062 16.36874 C 513.53062 16.36874 -513.533188 16.36874 -513.533188 16.36874 C -513.533188 16.36874 -513.533188 -16.362302 -513.533188 -16.362302 C -513.533188 -16.362302 513.53062 -16.362302 513.53062 -16.362302 C 513.53062 -16.362302 513.53062 16.36874 513.53062 16.36874 Z M 513.53062 16.36874 " stroke="#231f1f" stroke-width="2" stroke-opacity="1" stroke-miterlimit="4"/><path stroke-linecap="round" transform="matrix(0.471528, 0, 0, 0.471528, 651.908933, 424.178421)" fill-opacity="1" fill="#ffffff" fill-rule="nonzero" stroke-linejoin="round" d="M 88.851094 33.79411 C 88.851094 33.79411 32.170307 -35.743821 32.170307 -35.743821 C 32.170307 -35.743821 -88.854191 -35.743821 -88.854191 -35.743821 C -88.854191 -35.743821 -50.556138 35.740907 -50.556138 35.740907 C -50.556138 35.740907 88.851094 33.79411 88.851094 33.79411 Z M 88.851094 33.79411 " stroke="#231f1f" stroke-width="2" stroke-opacity="1" stroke-miterlimit="4"/><path stroke-linecap="round" transform="matrix(0.471528, 0, 0, 0.471528, 265.571647, 402.766352)" fill="none" stroke-linejoin="round" d="M 879.419209 63.795409 C 879.419209 63.795409 781.118388 63.795409 781.118388 63.795409 " stroke="#231f1f" stroke-width="2" stroke-opacity="1" stroke-miterlimit="4"/><path stroke-linecap="round" transform="matrix(0.471528, 0, 0, 0.471528, 265.571647, 402.766352)" fill="none" stroke-linejoin="round" d="M 865.120606 47.964221 C 865.120606 47.964221 766.819786 47.964221 766.819786 47.964221 " stroke="#231f1f" stroke-width="2" stroke-opacity="1" stroke-miterlimit="4"/><path stroke-linecap="round" transform="matrix(0.471528, 0, 0, 0.471528, 265.571647, 402.766352)" fill="none" stroke-linejoin="round" d="M 874.349252 55.618861 C 874.349252 55.618861 770.754801 55.618861 770.754801 55.618861 " stroke="#231f1f" stroke-width="2" stroke-opacity="1" stroke-miterlimit="4"/><path stroke-linecap="round" transform="matrix(0.471528, 0, 0, 0.471528, 644.585188, 415.630577)" fill-opacity="1" fill="#7aba59" fill-rule="nonzero" stroke-linejoin="round" d="M 42.723428 -9.704392 C 42.723428 -9.704392 57.403106 9.705588 57.403106 9.705588 C 57.403106 9.705588 -44.468224 9.705588 -44.468224 9.705588 C -44.468224 9.705588 -57.399926 -9.704392 -57.399926 -9.704392 C -57.399926 -9.704392 42.723428 -9.704392 42.723428 -9.704392 Z M 42.723428 -9.704392 " stroke="#231f1f" stroke-width="2" stroke-opacity="1" stroke-miterlimit="4"/><path stroke-linecap="round" transform="matrix(0.471528, 0, 0, 0.471528, 693.804653, 429.29498)" fill-opacity="1" fill="#ffffff" fill-rule="nonzero" stroke-linejoin="round" d="M 88.848574 33.795444 C 88.848574 33.795444 32.167787 -35.742487 32.167787 -35.742487 C 32.167787 -35.742487 -88.848426 -35.742487 -88.848426 -35.742487 C -88.848426 -35.742487 -50.550373 35.742241 -50.550373 35.742241 C -50.550373 35.742241 88.848574 33.795444 88.848574 33.795444 Z M 88.848574 33.795444 " stroke="#231f1f" stroke-width="2" stroke-opacity="1" stroke-miterlimit="4"/><path stroke-linecap="round" transform="matrix(0.471528, 0, 0, 0.471528, 265.571647, 402.766352)" fill="none" stroke-linejoin="round" d="M 968.267709 74.647766 C 968.267709 74.647766 869.966888 74.647766 869.966888 74.647766 " stroke="#231f1f" stroke-width="2" stroke-opacity="1" stroke-miterlimit="4"/><path stroke-linecap="round" transform="matrix(0.471528, 0, 0, 0.471528, 265.571647, 402.766352)" fill="none" stroke-linejoin="round" d="M 953.969106 58.816579 C 953.969106 58.816579 855.668286 58.816579 855.668286 58.816579 " stroke="#231f1f" stroke-width="2" stroke-opacity="1" stroke-miterlimit="4"/><path stroke-linecap="round" transform="matrix(0.471528, 0, 0, 0.471528, 265.571647, 402.766352)" fill="none" stroke-linejoin="round" d="M 963.206037 66.471219 C 963.206037 66.471219 859.603301 66.471219 859.603301 66.471219 " stroke="#231f1f" stroke-width="2" stroke-opacity="1" stroke-miterlimit="4"/><path stroke-linecap="round" transform="matrix(0.471528, 0, 0, 0.471528, 265.571647, 402.766352)" fill="none" stroke-linejoin="round" d="M 949.412773 48.088485 C 949.412773 48.088485 851.120236 48.088485 851.120236 48.088485 " stroke="#231f1f" stroke-width="2" stroke-opacity="1" stroke-miterlimit="4"/><path stroke-linecap="round" transform="matrix(0.471528, 0, 0, 0.471528, 265.571647, 402.766352)" fill="none" stroke-linejoin="round" d="M 935.11417 32.257298 C 935.11417 32.257298 836.821634 32.257298 836.821634 32.257298 " stroke="#231f1f" stroke-width="2" stroke-opacity="1" stroke-miterlimit="4"/><path stroke-linecap="round" transform="matrix(0.471528, 0, 0, 0.471528, 265.571647, 402.766352)" fill="none" stroke-linejoin="round" d="M 944.351101 39.920222 C 944.351101 39.920222 840.756649 39.920222 840.756649 39.920222 " stroke="#231f1f" stroke-width="2" stroke-opacity="1" stroke-miterlimit="4"/></svg>